<svg xmlns="http://www.w3.org/2000/svg" width="40.797" height="40.797" viewBox="0 0 40.797 40.797">
  <g id="Group_149" data-name="Group 149" transform="translate(-488.085 -450.78)">
    <g id="Group_143" data-name="Group 143">
      <circle id="Ellipse_4" data-name="Ellipse 4" cx="20.399" cy="20.399" r="20.399" transform="translate(488.085 450.78)" fill="#e4001b"/>
    </g>
    <g id="Group_148" data-name="Group 148">
      <g id="Group_144" data-name="Group 144">
        <path id="Path_187" data-name="Path 187" d="M517.757,483.435a.848.848,0,0,1-.818-.632,8.746,8.746,0,0,0-16.912,0,.846.846,0,1,1-1.637-.43,10.438,10.438,0,0,1,20.186,0,.847.847,0,0,1-.819,1.062Z" fill="#040505"/>
      </g>
      <g id="Group_147" data-name="Group 147">
        <g id="Group_145" data-name="Group 145">
          <circle id="Ellipse_5" data-name="Ellipse 5" cx="1.804" cy="1.804" r="1.804" transform="translate(499.892 463.823)" fill="#040505" stroke="#040505" stroke-miterlimit="10" stroke-width="4"/>
          <path id="Path_188" data-name="Path 188" d="M501.7,467.824a2.2,2.2,0,1,1,2.2-2.2A2.2,2.2,0,0,1,501.7,467.824Zm0-3.609a1.412,1.412,0,1,0,1.412,1.412A1.414,1.414,0,0,0,501.7,464.215Z" fill="#040505" stroke="#040505" stroke-miterlimit="10" stroke-width="4"/>
        </g>
        <g id="Group_146" data-name="Group 146">
          <circle id="Ellipse_6" data-name="Ellipse 6" cx="1.804" cy="1.804" r="1.804" transform="translate(513.465 463.823)" fill="#040505" stroke="#040505" stroke-miterlimit="10" stroke-width="4"/>
          <path id="Path_189" data-name="Path 189" d="M515.27,467.824a2.2,2.2,0,1,1,2.2-2.2A2.2,2.2,0,0,1,515.27,467.824Zm0-3.609a1.412,1.412,0,1,0,1.412,1.412A1.414,1.414,0,0,0,515.27,464.215Z" fill="#040505" stroke="#040505" stroke-miterlimit="10" stroke-width="4"/>
        </g>
      </g>
    </g>
  </g>
</svg>
