<svg xmlns="http://www.w3.org/2000/svg" width="766.576" height="133.674" viewBox="0 0 766.576 133.674">
  <g id="Group_48" data-name="Group 48" transform="translate(-1069.712 -2362.891)">
    <g id="Group_47" data-name="Group 47" transform="translate(-1379 -43.859)">
      <path id="Path_155" data-name="Path 155" d="M779.512,146.024h0l-3.461,3.49c-.071,0-.071.142,0,.142l3.461,3.49c0,.072.141.072.141,0l3.463-3.49c.07,0,.07-.142,0-.142l-3.463-3.49c0-.071-.141-.071-.141,0" transform="translate(2292 2333.152)" fill="#f1e1c6"/>
      <path id="Path_156" data-name="Path 156" d="M768,87.912h0c.071.066.212.066.212,0l3.462-3.493a.138.138,0,0,0,0-.218l-3.462-3.483c0-.076-.141-.076-.212,0L764.6,84.2a.138.138,0,0,0,0,.218Z" transform="translate(2292 2333.084)" fill="#f1e1c6"/>
      <path id="Path_157" data-name="Path 157" d="M838.3,123.9h0l-3.674,3.7-3.675-3.7,3.675-3.7Z" transform="translate(2292 2333.125)" fill="#f1e1c6"/>
      <path id="Path_158" data-name="Path 158" d="M830.03,123.9h0l-3.674,3.7-3.674-3.7,3.674-3.7Z" transform="translate(2292 2333.125)" fill="#f1e1c6"/>
      <path id="Path_159" data-name="Path 159" d="M866.13,157.269h0l-3.672,3.7-3.673-3.7,3.673-3.7Z" transform="translate(2292 2333.16)" fill="#f1e1c6"/>
      <path id="Path_160" data-name="Path 160" d="M857.872,157.269h0l-3.682,3.7-3.67-3.7,3.67-3.7Z" transform="translate(2292 2333.16)" fill="#f1e1c6"/>
      <path id="Path_161" data-name="Path 161" d="M846.351,104.481h0l-3.673,3.7-3.675-3.7,3.675-3.7Z" transform="translate(2292 2333.105)" fill="#f1e1c6"/>
      <path id="Path_162" data-name="Path 162" d="M838.085,152.355h0c-1.908,0-3.462-.213-3.462,1.424v2.636H824.66v1.638h15.261v-5.769s-1.624.071-1.836.071m0,4.06H836.6a2.232,2.232,0,0,1,.141-1.424,2.88,2.88,0,0,1,1.343-.213Z" transform="translate(2292 2333.159)" fill="#f1e1c6"/>
      <path id="Path_163" data-name="Path 163" d="M788.556,98.454h63.8a.3.3,0,0,0,.282-.284v-12.6a.3.3,0,0,0-.282-.284l-2.47.066a26.765,26.765,0,0,1-4.169-.284,17.4,17.4,0,0,1-5.369-1.423c-2.474-1-3.745-2.421-5.794-4.129l-1.484,1.709s3.956,4.062,6.924,4.982a40.873,40.873,0,0,0,8.266,1.357c.142,0,.212.142.212.285v2.638a.26.26,0,0,1-.282.285H789.969a1.305,1.305,0,0,1-1.342-1.357V73.882c0-.142-.142-.208-.283-.208h-3.532c-.213,0-.283.066-.283.208V94.392a4,4,0,0,0,4.027,4.062" transform="translate(2292 2333.077)" fill="#f1e1c6"/>
      <path id="Path_164" data-name="Path 164" d="M763.333,105.419H774.92a5.868,5.868,0,0,0,5.865-5.9V84.055c0-.209-.071-.285-.283-.285h-3.6a.262.262,0,0,0-.283.285V96.089a1.648,1.648,0,0,1-1.625,1.643h-10.6a3.149,3.149,0,0,1-3.109-3.132V90.964a.26.26,0,0,0-.282-.285h-3.533a.261.261,0,0,0-.283.285v8.267a6.17,6.17,0,0,0,6.147,6.187" transform="translate(2292 2333.087)" fill="#f1e1c6"/>
      <path id="Path_165" data-name="Path 165" d="M921.734,166.442H910.782c-3.314.071-2.966,3.347-3.032,7.478-.075,6.766,0,7.621,0,7.621h9.539v3.205a1.667,1.667,0,0,1-1.629,1.709h-4.8a.325.325,0,0,0-.358.285v6.338a.325.325,0,0,0,.358.284h4.1a7.13,7.13,0,0,0,7.137-7.121V166.727a.325.325,0,0,0-.357-.285m-4.445,7.407h-4.172c0-.641.142-.854.424-1.068a3.706,3.706,0,0,1,3.748.072Z" transform="translate(2292 2333.173)" fill="#f1e1c6"/>
      <path id="Path_166" data-name="Path 166" d="M923.081,136.011h-1.629V118.847a.3.3,0,0,0-.283-.284h-3.531a.3.3,0,0,0-.282.284v24.571c0,.142.141.213.282.213h5.443c.141,0,.207-.071.207-.213v-7.193c0-.142-.066-.213-.207-.213" transform="translate(2292 2333.124)" fill="#f1e1c6"/>
      <path id="Path_167" data-name="Path 167" d="M841.829,143.418h0L841.9,140s1.131,3.7,3.18,3.631h68.537c.142,0,.283-.07.283-.213v-24.57a.3.3,0,0,0-.283-.284h-3.54a.3.3,0,0,0-.283.284v17.093h-6V131.1a4.053,4.053,0,0,0-3.4-3.988h-.066a1.593,1.593,0,0,0-.565-.07l-27.769.07c1.553-.64,2.966-1.21,4.171-1.851,2.825-1.567,6.008-6.552,6.008-6.552l-1.912-1.423c-1.7,2.207-2.759,3.845-5.019,5.483-3.6,2.493-8.126,3.562-12.006,4.273v2.99h35.18l.075,5.912H842.041v-6.41h-5.228v6.41l-17.946.071a1.348,1.348,0,0,1-1.343-1.353v-15.81a.3.3,0,0,0-.282-.284H813.71a.3.3,0,0,0-.284.284v20.725a4.055,4.055,0,0,0,4.1,4.058h24.023c.141,0,.282-.07.282-.213" transform="translate(2292 2333.122)" fill="#f1e1c6"/>
      <path id="Path_168" data-name="Path 168" d="M780.148,174.423h0v6.908a.335.335,0,0,1-.353.356H757.61a.335.335,0,0,1-.353-.356v-6.979a.335.335,0,0,1,.353-.356h4.8V166.3a.4.4,0,0,1,.424-.355h2.473a22.322,22.322,0,0,0,10.74-2.422s.918-.5.989-.5l1.625,2.992a11.851,11.851,0,0,1-2.12,1.068,30.131,30.131,0,0,1-8.266,1.923V174h11.516c.212,0,.353.143.353.427" transform="translate(2292 2333.17)" fill="#f1e1c6"/>
      <path id="Path_169" data-name="Path 169" d="M791.736,174.5h0v7.121a.26.26,0,0,1-.283.285h-5.37a.3.3,0,0,1-.282-.285v-24.57a.3.3,0,0,1,.282-.285h3.533a.3.3,0,0,1,.283.285v17.164h1.554c.212,0,.283.071.283.284" transform="translate(2292 2333.163)" fill="#f1e1c6"/>
      <path id="Path_170" data-name="Path 170" d="M763.262,143.623h41.4a4.058,4.058,0,0,0,4.1-4.059v-12.89c0-.142-.142-.213-.283-.213h-3.673c-.142,0-.284.071-.284.213v7.905a1.289,1.289,0,0,1-1.271,1.353H763.827a2.543,2.543,0,0,1-2.543-2.564v-3.205a.305.305,0,0,0-.283-.284h-3.6a.3.3,0,0,0-.283.284v7.265a6.176,6.176,0,0,0,6.147,6.2" transform="translate(2292 2333.132)" fill="#f1e1c6"/>
      <path id="Path_171" data-name="Path 171" d="M903.579,173.93h-1.62V156.767c0-.142-.141-.213-.282-.213h-3.541c-.141,0-.282.071-.282.213v24.642c0,.142.141.213.282.213h5.443a.192.192,0,0,0,.217-.213v-7.193c0-.142-.076-.285-.217-.285" transform="translate(2292 2333.163)" fill="#f1e1c6"/>
      <path id="Path_172" data-name="Path 172" d="M894.181,156.554h-3.6c-.141,0-.283.071-.283.213V173.93L866.129,174v-10.9h-9.247a7,7,0,0,0-7,7.05V174H804.664a1.516,1.516,0,0,1-1.483-1.567v-7.55a.335.335,0,0,0-.353-.355h-4.169a.324.324,0,0,0-.282.355v19.8a1.726,1.726,0,0,1-1.7,1.708h-4.8a.325.325,0,0,0-.353.286v6.409a.324.324,0,0,0,.353.285h4.168a7.19,7.19,0,0,0,7.136-7.193v-9.258c0,2.136.706,4.558,2.826,4.629l88.174.071c.141,0,.217-.071.217-.284V156.767a.192.192,0,0,0-.217-.213" transform="translate(2292 2333.163)" fill="#f1e1c6"/>
      <path id="Path_173" data-name="Path 173" d="M851.225,103.713h0v6.34a.3.3,0,0,0,.281.285h4.171a7.144,7.144,0,0,0,7.138-7.194V94.1c0,2.211.706,4.423,2.891,4.347h42.75a.3.3,0,0,0,.283-.284V94.317l1.9,3.417a1.372,1.372,0,0,0,1.205.712h9.04a1.09,1.09,0,0,0,1.064-1.063v-10.4s-1.064-4.631-8.409-4.27c0,0-5.725.284-7.561,7.763v.285h-7.42v-.076a8.969,8.969,0,0,0-8.692-9.254,9.656,9.656,0,0,0-8.117,4.556.743.743,0,0,0,0,.57l1.055,2.069a.373.373,0,0,0,.565.142,8.055,8.055,0,0,1,5.367-2c3.324,0,6.008,1.433,7.355,4h-3.748a4.529,4.529,0,0,0-1.271-1.785,2.464,2.464,0,0,0-3.249.076,4.863,4.863,0,0,0-1.205,1.709H864.369a1.779,1.779,0,0,1-1.554-1.785V81.856a.326.326,0,0,0-.283-.36h-4.171a.335.335,0,0,0-.349.36V101.72a1.606,1.606,0,0,1-1.629,1.642h-4.877a.322.322,0,0,0-.281.351" transform="translate(2292 2333.085)" fill="#f1e1c6"/>
      <path id="Path_174" data-name="Path 174" d="M864.294,111.663h0c-1.9,0-3.39-.142-3.39,1.422-.066,1.5-.066,1.638-.066,2.065H850.307v1.638H866.13v-5.125Zm.075,3.488h-1.488c-.207-.57-.066-.57.141-.854a3,3,0,0,1,1.347-.142Z" transform="translate(2292 2333.116)" fill="#f1e1c6"/>
      <path id="Path_175" data-name="Path 175" d="M806.361,152.927h-8.479v-1.211h8.479Z" transform="translate(2292 2333.158)" fill="#f1e1c6"/>
      <path id="Path_176" data-name="Path 176" d="M805.231,158.049h1.13v-1.638h-8.479v1.638h7.349Z" transform="translate(2292 2333.163)" fill="#f1e1c6"/>
      <path id="Path_177" data-name="Path 177" d="M806.361,154.633h0v-.571h-1.625v3.989h1.625v-3.419Z" transform="translate(2292 2333.16)" fill="#f1e1c6"/>
      <path id="Path_178" data-name="Path 178" d="M802.9,154.633h0v-.571h-1.625v3.989H802.9v-3.419Z" transform="translate(2292 2333.16)" fill="#f1e1c6"/>
      <path id="Path_179" data-name="Path 179" d="M799.507,154.633h0v-.571h-1.625v3.989h1.625v-3.419Z" transform="translate(2292 2333.16)" fill="#f1e1c6"/>
      <path id="Path_180" data-name="Path 180" d="M833.916,111.588h-8.479v-1.139h8.479Z" transform="translate(2292 2333.115)" fill="#f1e1c6"/>
      <path id="Path_181" data-name="Path 181" d="M832.714,116.785h1.2v-1.709h-8.479v1.709h7.277Z" transform="translate(2292 2333.12)" fill="#f1e1c6"/>
      <path id="Path_182" data-name="Path 182" d="M833.916,113.369h0v-.57h-1.625v3.988h1.625v-3.419Z" transform="translate(2292 2333.117)" fill="#f1e1c6"/>
      <path id="Path_183" data-name="Path 183" d="M830.454,113.369h0v-.57h-1.625v3.988h1.625v-3.419Z" transform="translate(2292 2333.117)" fill="#f1e1c6"/>
      <path id="Path_184" data-name="Path 184" d="M827.063,113.369h0v-.57h-1.625v3.988h1.625v-3.419Z" transform="translate(2292 2333.117)" fill="#f1e1c6"/>
      <path id="Path_185" data-name="Path 185" d="M771.034,197.532h0l-2.9,9.543H766.23l-2.191-6.41-2.119,6.41h-1.908l-2.9-9.543h1.908l2.049,6.979,2.12-6.979h1.766l2.191,6.979,1.907-6.979Z" transform="translate(2292 2333.206)" fill="#f1e1c6"/>
      <path id="Path_186" data-name="Path 186" d="M776.192,200.093h.212v1.923h-.212c-1.131,0-2.261.427-2.261,1.709v3.347h-1.908v-6.837h1.908v1.5a2.168,2.168,0,0,1,2.261-1.638" transform="translate(2292 2333.208)" fill="#f1e1c6"/>
      <path id="Path_187" data-name="Path 187" d="M778.453,197.1h0a1.182,1.182,0,0,1,1.13,1.21,1.105,1.105,0,0,1-1.13,1.068,1.044,1.044,0,0,1-1.06-1.068,1.126,1.126,0,0,1,1.06-1.21m.989,9.97h-1.908v-6.837h1.908Z" transform="translate(2292 2333.205)" fill="#f1e1c6"/>
      <path id="Path_188" data-name="Path 188" d="M783.116,201.448h0v3.419c0,.57.283.783.777.783h.919v1.424H783.4c-1.343,0-2.12-.57-2.12-1.994v-3.632H780.5v-1.21h.777v-1.5h1.837v1.5h1.624v1.21Z" transform="translate(2292 2333.207)" fill="#f1e1c6"/>
      <path id="Path_189" data-name="Path 189" d="M785.66,203.654h0a3.314,3.314,0,0,1,3.532-3.561c2.332,0,3.674,1.638,3.462,4.13h-5.016a1.493,1.493,0,0,0,1.625,1.639,1.253,1.253,0,0,0,1.342-1h1.979c-.283,1.709-1.7,2.278-3.392,2.278a3.3,3.3,0,0,1-3.532-3.49m5.157-.57h0a1.59,1.59,0,1,0-3.179,0Z" transform="translate(2292 2333.208)" fill="#f1e1c6"/>
      <path id="Path_190" data-name="Path 190" d="M798.023,200.093h.283v1.923h-.283c-1.059,0-2.19.427-2.19,1.709v3.347h-1.978v-6.837h1.978v1.5a2.136,2.136,0,0,1,2.19-1.638" transform="translate(2292 2333.208)" fill="#f1e1c6"/>
      <path id="Path_191" data-name="Path 191" d="M801.98,207.215h0c-1.837,0-2.967-.784-3.108-2.136h1.907c.071.5.565.854,1.272.854.636,0,1.06-.284,1.06-.783,0-.427-.353-.641-1.484-.784-1.767-.213-2.614-.712-2.614-2.065,0-1.424,1.343-2.207,2.9-2.207,1.7,0,2.826.641,3.039,2.065H803.04a.956.956,0,0,0-1.06-.713c-.636,0-1.059.285-1.059.713s.423.641,1.412.783c1.837.214,2.827.642,2.827,2.066,0,1.5-1.343,2.207-3.18,2.207" transform="translate(2292 2333.208)" fill="#f1e1c6"/>
      <path id="Path_192" data-name="Path 192" d="M808.48,204.724h0c-.071-.925.353-1.638,1.625-2.349a3.348,3.348,0,0,1-.847-2.066,2.319,2.319,0,0,1,2.4-2.278,2.127,2.127,0,0,1,2.261,2.136,2.579,2.579,0,0,1-1.2,2.065l-.494.356,1.484,1.781a3.138,3.138,0,0,0,.424-1.639l1.483.072a5.294,5.294,0,0,1-.777,2.777l1.272,1.5H814.2l-.494-.641a.07.07,0,0,0-.071.071,3.714,3.714,0,0,1-2.261.712,2.632,2.632,0,0,1-2.9-2.493m1.767-.142h0a1.2,1.2,0,0,0,1.272,1.139,1.725,1.725,0,0,0,1.13-.426l-1.626-1.852c-.565.427-.776.712-.776,1.139m1.413-5.056h0a.879.879,0,0,0-.919.855c0,.355.212.641.636,1.21l.424-.284c.989-.642.918-1.781-.141-1.781" transform="translate(2292 2333.206)" fill="#f1e1c6"/>
      <path id="Path_193" data-name="Path 193" d="M826.85,207.075h-1.978l-1.907-3.775h-1.7v3.775H819.5v-9.543h3.463q3.391,0,3.391,2.777v.143a2.279,2.279,0,0,1-1.484,2.278l-.354.143Zm-2.261-6.481h0v-.213c0-.784-.565-1.14-1.7-1.14h-1.625V201.8h1.625c1.13,0,1.7-.426,1.7-1.21" transform="translate(2292 2333.206)" fill="#f1e1c6"/>
      <path id="Path_194" data-name="Path 194" d="M827.628,203.654h0a3.369,3.369,0,0,1,3.6-3.561c2.261,0,3.674,1.638,3.392,4.13h-5.017a1.527,1.527,0,0,0,1.625,1.639,1.209,1.209,0,0,0,1.343-1h1.978c-.283,1.709-1.625,2.278-3.321,2.278a3.315,3.315,0,0,1-3.6-3.49m5.228-.57h0a1.559,1.559,0,0,0-1.625-1.638,1.6,1.6,0,0,0-1.625,1.638Z" transform="translate(2292 2333.208)" fill="#f1e1c6"/>
      <path id="Path_195" data-name="Path 195" d="M842.253,202.658h0v4.416h-1.624v-.926a2.714,2.714,0,0,1-2.473,1.068c-1.272,0-2.332-.641-2.332-2,0-1.495,1.2-2.135,3.391-2.135h1.131v-.427a1.263,1.263,0,0,0-2.474-.213h-1.836c.141-1.5,1.342-2.35,3.108-2.35,1.838,0,3.109.855,3.109,2.564m-1.907,1.495h-1.131c-.918,0-1.484.215-1.484.926,0,.5.425.784,1.06.784a1.387,1.387,0,0,0,1.555-1.139Z" transform="translate(2292 2333.208)" fill="#f1e1c6"/>
      <path id="Path_196" data-name="Path 196" d="M846.068,207.218h0c-1.555,0-2.826-1.139-2.826-3.419v-.142c0-2.208,1.271-3.561,2.967-3.561a2.1,2.1,0,0,1,2.19,1.281V197.6h1.979v9.472h-1.837v-1.282a2.47,2.47,0,0,1-2.473,1.424m2.4-3.419h0v-.213c0-1-.494-1.923-1.624-1.923a1.7,1.7,0,0,0-1.7,1.923v.213c0,1.139.635,1.923,1.624,1.923a1.7,1.7,0,0,0,1.7-1.923" transform="translate(2292 2333.206)" fill="#f1e1c6"/>
      <path id="Path_197" data-name="Path 197" d="M851.506,203.654h0a3.352,3.352,0,0,1,3.531-3.561c2.335,0,3.748,1.638,3.465,4.13h-5.019a1.5,1.5,0,0,0,1.629,1.639,1.247,1.247,0,0,0,1.337-1h1.987c-.282,1.709-1.629,2.278-3.4,2.278a3.294,3.294,0,0,1-3.531-3.49m5.16-.57h0a1.521,1.521,0,0,0-1.629-1.638,1.546,1.546,0,0,0-1.554,1.638Z" transform="translate(2292 2333.208)" fill="#f1e1c6"/>
      <path id="Path_198" data-name="Path 198" d="M863.945,200.093h.207v1.923h-.207c-1.13,0-2.26.427-2.26,1.709v3.347h-1.912v-6.837h1.912v1.5a2.162,2.162,0,0,1,2.26-1.638" transform="translate(2292 2333.208)" fill="#f1e1c6"/>
      <path id="Path_199" data-name="Path 199" d="M867.9,207.215h0c-1.836,0-3.042-.784-3.107-2.136h1.836a1.2,1.2,0,0,0,1.271.854c.64,0,1.064-.284,1.064-.783,0-.427-.358-.641-1.422-.784-1.836-.213-2.684-.712-2.684-2.065,0-1.424,1.347-2.207,2.967-2.207s2.759.641,2.975,2.065h-1.911c-.066-.5-.49-.713-1.064-.713-.631,0-1.055.285-1.055.713s.424.641,1.412.783c1.837.214,2.825.642,2.825,2.066,0,1.5-1.337,2.207-3.107,2.207" transform="translate(2292 2333.208)" fill="#f1e1c6"/>
      <path id="Path_200" data-name="Path 200" d="M880.688,197.532h0v1.78h-4.1V201.8h3.39v1.568h-3.39v3.7h-1.836v-9.543Z" transform="translate(2292 2333.206)" fill="#f1e1c6"/>
      <path id="Path_201" data-name="Path 201" d="M881.61,203.654h0a3.314,3.314,0,0,1,3.531-3.561c2.326,0,3.673,1.638,3.456,4.13h-5.009a1.489,1.489,0,0,0,1.619,1.639,1.3,1.3,0,0,0,1.347-1h1.977c-.282,1.709-1.7,2.278-3.39,2.278a3.3,3.3,0,0,1-3.531-3.49m5.151-.57h0a1.518,1.518,0,0,0-1.62-1.638,1.5,1.5,0,0,0-1.553,1.638Z" transform="translate(2292 2333.208)" fill="#f1e1c6"/>
      <path id="Path_202" data-name="Path 202" d="M892.42,207.215h0c-1.836,0-2.976-.784-3.117-2.136h1.912a1.078,1.078,0,0,0,1.2.854c.706,0,1.13-.284,1.13-.783,0-.427-.358-.641-1.488-.784-1.761-.213-2.618-.712-2.618-2.065,0-1.424,1.347-2.207,2.9-2.207,1.629,0,2.759.641,2.966,2.065h-1.836a.952.952,0,0,0-1.055-.713c-.64,0-1.064.285-1.064.713s.424.641,1.412.783c1.837.214,2.759.642,2.759,2.066,0,1.5-1.271,2.207-3.107,2.207" transform="translate(2292 2333.208)" fill="#f1e1c6"/>
      <path id="Path_203" data-name="Path 203" d="M898.843,201.448h0v3.419c0,.57.282.783.706.783h.923v1.424H899.06c-1.347,0-2.053-.57-2.053-1.994v-3.632h-.848v-1.21h.848v-1.5h1.836v1.5h1.629v1.21Z" transform="translate(2292 2333.207)" fill="#f1e1c6"/>
      <path id="Path_204" data-name="Path 204" d="M902.731,197.1h0a1.179,1.179,0,0,1,1.064,1.21,1.094,1.094,0,0,1-1.064,1.068,1.109,1.109,0,0,1-1.13-1.068,1.185,1.185,0,0,1,1.13-1.21m.923,9.97h-1.912v-6.837h1.912Z" transform="translate(2292 2333.205)" fill="#f1e1c6"/>
      <path id="Path_205" data-name="Path 205" d="M910.218,200.236h1.77l-2.617,6.837h-2.119l-2.684-6.837h2.053l1.836,4.772Z" transform="translate(2292 2333.208)" fill="#f1e1c6"/>
      <path id="Path_206" data-name="Path 206" d="M919.333,202.658h0v4.416h-1.7v-.926a2.65,2.65,0,0,1-2.4,1.068c-1.271,0-2.4-.641-2.4-2,0-1.495,1.271-2.135,3.465-2.135h1.13v-.427a1.265,1.265,0,0,0-2.477-.213h-1.836c.076-1.5,1.347-2.35,3.108-2.35,1.836,0,3.107.855,3.107,2.564m-1.9,1.495H916.3c-.923,0-1.554.215-1.554.926,0,.5.49.784,1.13.784a1.388,1.388,0,0,0,1.554-1.139Z" transform="translate(2292 2333.208)" fill="#f1e1c6"/>
      <path id="Path_207" data-name="Path 207" d="M922.516,207.075H920.6v-9.614h1.911Z" transform="translate(2292 2333.206)" fill="#f1e1c6"/>
      <path id="Path_208" data-name="Path 208" d="M334.244,74.177c.241,5.244.053,8.7.13,13.209.066,3.962.4,7.34.218,11.885-.158,3.924.147,7.857.211,11.786q.1,5.739.152,11.475c.051,2.963.1,5.644.106,8.612,0,.5-.047,1.557-.042,2.055,0,0-5.734-.2-6.515-.105a12.793,12.793,0,0,1-4.222-.22c-.484-.145-.655-10.286-.642-11.235.051-3.883-.168-8.942-.181-12.825-.015-3.931-.649-9.852-.707-13.781-.057-3.973-.32-8.1-.4-12.068-.079-4.007-.235-4.3-.314-8.306-.017-.816.51-.935,1.558-.886,1.643.074,9.454-.094,10.649.4" transform="translate(2292 2333.077)" fill="#f1e1c6"/>
      <path id="Path_209" data-name="Path 209" d="M348.559,126.86c.176-1.179.326-2.362.464-3.549a4.65,4.65,0,0,1-2.36-.6A4.742,4.742,0,0,1,344.3,118.9l-.039-.684c-.017-.214-.02-.425-.03-.65l-.061-1.316c-.053-.875-.072-1.749-.12-2.621-.023-.639-.055-1.273-.087-1.908a3.5,3.5,0,0,0,1.808.5,4.924,4.924,0,0,1-1.895-2.262c-.026-.517-.049-1.04-.081-1.558-.088-1.739-.218-3.469-.365-5.2q-.115-1.3-.273-2.585c-.1-.859-.193-1.72-.312-2.576-.181-1.3-.423-2.6-.7-3.9a3.673,3.673,0,0,0,3.176.669,4.777,4.777,0,0,1-3.538-3.029,22.622,22.622,0,0,1-1.146-3.926c-.242-.97-.927-2.824-1.193-3.794a3.919,3.919,0,0,0,1.873.936,2.873,2.873,0,0,1-1.452-1.22,17.282,17.282,0,0,1-1.737-6.105,3.385,3.385,0,0,1,1.264-3.358c-1.118-.121-1.839-.224-1.839-.224.04,1.122.081,2.57.122,3.69.059,1.675-.171,4.821-.032,6.488a143.2,143.2,0,0,1,.386,18.132c-.077,4.352.561,9.594.484,13.723-.105,5.855-.07,9.961-.325,16.741a39.432,39.432,0,0,1,6.147-.072c.663.081,1.728.147,3.034.2.423-1.884.92-4.375,1.19-6.141" transform="translate(2292 2333.077)" fill="#f1e1c6"/>
      <path id="Path_210" data-name="Path 210" d="M432.607,132.873c-.034-1.124-.066-2.57-.1-3.694-.049-1.677.136-4.824.025-6.5a180.557,180.557,0,0,1-.3-18.152c.06-4.358-.446-9.6-.386-13.74.087-5.862.057-9.972.26-16.761a4.844,4.844,0,0,1-2.505.075c-3.293-.517-21.185-.4-21.185-.4.037.694-.014,8.221.075,11.094.145,4.657-.245,7.12-.13,10.057.113,2.854.606,5.672.606,9.954,0,6.527-.659,10.609-.538,15.225.13,4.9.054,3.174-.042,8.075a14.554,14.554,0,0,0,.565,4.439,42.176,42.176,0,0,0,8.487.637V112.873h5.642v19.476a47.969,47.969,0,0,1,9.529.524m-13.1-52.752h.514l.02,13.748a.931.931,0,1,0,.437.015l.019-13.763h.512c0,5.263,5.965,13.375,5.965,13.375-2.806,9.374-2.61,14.558-2.61,14.558h-8.212s.2-5.184-2.607-14.558c0,0,5.962-8.111,5.962-13.375m-4.428,32.1v-3.393h10.361l0,3.393Z" transform="translate(2292 2333.077)" fill="#f1e1c6"/>
      <path id="Path_211" data-name="Path 211" d="M385.827,111.875c-.427.073-.849.141-1.27.2a23.185,23.185,0,0,1-3.591,8.282,14.709,14.709,0,0,1-7.045,5.6,13.562,13.562,0,0,1-2.682.681c-.058,2.98-.06,6.118.2,6.2a74.987,74.987,0,0,0,9.526.218c.779-.09,5.06.106,5.06.106,0-.5.042-1.557.04-2.055,0-2.965-.053-5.646-.1-8.609q-.048-5.31-.139-10.621" transform="translate(2292 2333.116)" fill="#f1e1c6"/>
      <path id="Path_212" data-name="Path 212" d="M406.056,122.556q-.054-5.727-.152-11.45c-.064-3.92-.371-7.847-.211-11.762.184-4.538-.151-7.906-.22-11.86-.079-4.5.111-7.949-.132-13.181-1.193-.5-11.125.066-12.439-.4-.988-.354-4.558.071-4.541.887.081,4,.168,7.4.249,11.4.081,3.963-.085,7.68-.027,11.645.032,2.279.138,4.644.226,6.994,1.167-1.339,2.351-2.665,3.559-3.963q2.257-2.425,4.687-4.689a7,7,0,0,1,3.57-1.569,5.9,5.9,0,0,1,1.018-.1,3.309,3.309,0,0,1,2.652,1.169,3.718,3.718,0,0,1,.916,2.336,3.565,3.565,0,0,1-.446,1.692,28.477,28.477,0,0,1-2.354,3.831,17.1,17.1,0,0,1-5.2,4.614,24.359,24.359,0,0,1-6.483,2.7c-.607.161-1.2.3-1.8.442q.012,5.086-.049,10.176c-.013.946-.419,11.264.066,11.409a46.56,46.56,0,0,0,7.6.218c.779-.092,9.563.107,9.563.107,0-.5.042-1.556.042-2.053,0-2.959-.053-5.633-.1-8.592m-9.919-33.522-2.083,2.587-3.57-3.357q1.018-1.317,2.07-2.613t2.1-2.611l3.57,3.358q-1.041,1.342-2.083,2.636" transform="translate(2292 2333.077)" fill="#f1e1c6"/>
      <path id="Path_213" data-name="Path 213" d="M392.554,85.641q1.053-1.291,2.093-2.61-1.037,1.315-2.093,2.61c-.7.862-1.394,1.735-2.07,2.611l3.57,3.361-3.57-3.361c.676-.876,1.368-1.749,2.07-2.611" transform="translate(2292 2333.086)" fill="#f1e1c6"/>
      <path id="Path_214" data-name="Path 214" d="M399.782,102.737a.574.574,0,0,0,.346-.547,1.689,1.689,0,0,0-.271-.8,2.735,2.735,0,0,0-1.712-1.218,3.317,3.317,0,0,0-.941-.149,2.737,2.737,0,0,0-1.389.373,13.593,13.593,0,0,0-3.173,2.363q-1.391,1.39-2.779,2.783,2.679-.518,5.209-1.142a24.171,24.171,0,0,0,4.71-1.667" transform="translate(2292 2333.104)" fill="#f1e1c6"/>
      <path id="Path_215" data-name="Path 215" d="M368.085,112.039c-.068-1.375-.25-2.745-.418-4.274-.28.583-.6,1.215-.948,1.9a17.631,17.631,0,0,0-1.4,3.632,8.392,8.392,0,0,0-.247,1.965,6.2,6.2,0,0,0,.173,1.466,3.678,3.678,0,0,0,2.4,2.464c.081.015.158.019.237.034.042-2.933.311-4.922.2-7.188" transform="translate(2292 2333.112)" fill="#f1e1c6"/>
      <path id="Path_216" data-name="Path 216" d="M366.658,126.07q-3.025-1.464-3.446-6.343c-.018-.264-.026-.53-.026-.795q0-4.7,4.323-12.7c-.108-1.228-.189-2.572-.189-4.108,0-6.518.834-10.593.68-15.206a75.86,75.86,0,0,1,.056-8.064,11.633,11.633,0,0,0-.717-4.433s-10.843-1.466-17.392-.042a28.165,28.165,0,0,1-6.767.254l.008.008a26.842,26.842,0,0,1,4.8,5.36v1.876a4.334,4.334,0,0,0,.36-1.35,43.53,43.53,0,0,1,2.239,3.777,25.461,25.461,0,0,1,2.1,4.225,8.659,8.659,0,0,1-.254,5.395,5.221,5.221,0,0,0,1.767-1.844c.435,1.132.832,2.277,1.18,3.431.271.977.519,1.957.734,2.944.2.987.374,1.98.489,2.976a16.032,16.032,0,0,1,.3,3.457,11.167,11.167,0,0,1-3.13,6.887,5.757,5.757,0,0,0,3.024-2.371,29.465,29.465,0,0,1-.626,3.986,21.9,21.9,0,0,1-2.155,5.8l-.982,1.743a4.627,4.627,0,0,1-2.2,1.982c.043-.656.09-1.311.12-1.967a106.471,106.471,0,0,0-.118-12.326,77.789,77.789,0,0,0-5.215-23.916,77.251,77.251,0,0,1,4.106,23.969c.021.874.023,1.752.021,2.63.145,3.268.139,6.552-.015,9.828q-.147,3.083-.465,6.159c-.207,1.92-.45,3.813-.792,5.746,7.14.231,19.543.156,19.543.156-.027-.437-.015-3.634-.027-6.644a6.787,6.787,0,0,1-1.332-.483" transform="translate(2292 2333.077)" fill="#f1e1c6"/>
      <path id="Path_217" data-name="Path 217" d="M468.8,122.222q-.054-5.733-.151-11.468c-.064-3.926-.372-7.856-.214-11.776.186-4.544-.149-7.915-.217-11.875-.077-4.51.111-7.96-.131-13.2-1.195-.5-29.763-.013-31.156-.107-1.409-.092-1.6.361-1.588,1.179.081,4.005.171,6.823.25,10.826.081,3.967-.085,7.695-.028,11.664.056,3.926.339,8.094.352,12.022.011,2.681,0,5.365-.019,8.047.126-.28.252-.562.4-.846a23.2,23.2,0,0,1,6.135-8.229,10.021,10.021,0,0,1-1.2-1.335,7.708,7.708,0,0,1-1.66-3.854,12.631,12.631,0,0,1-.118-1.7,10.588,10.588,0,0,1,.271-2.421,7.974,7.974,0,0,1,1.565-3.272,3.174,3.174,0,0,1,2.526-1.3h.039a10.16,10.16,0,0,1,1.931.251c.6.141,1.236.286,1.891.427l-1.66,5.148a21.249,21.249,0,0,0-4.149-.831,6.555,6.555,0,0,0,.743,2.313,6.959,6.959,0,0,0,1.457,1.677,2.415,2.415,0,0,0,1.776.733,4.827,4.827,0,0,0,2.065-.56,16.922,16.922,0,0,0,4.226-2.963l-1.776,4.589a5.829,5.829,0,0,1-1.959,2.247q-1.533,1.18-2.712,2.207-.826.733-2.749,2.478a39.2,39.2,0,0,0-3.657,3.8,17.92,17.92,0,0,0-2.664,4.1,4.043,4.043,0,0,0-.426,1.685,2.478,2.478,0,0,0,.64,1.665,11.2,11.2,0,0,0,4.814,3.234,19.917,19.917,0,0,0,5.877,1.063c.348.013.694.02,1.042.02a31.178,31.178,0,0,0,5.115-.427q3.088-.523,5.674-1.179a2.2,2.2,0,0,1,.482-.1c.052,0,.077.013.077.038a.145.145,0,0,1-.019.058,17.93,17.93,0,0,1-6.379,4.772,23.558,23.558,0,0,1-5.1,1.724c5.794,0,20.446.131,20.446.128,0-.5.043-1.557.043-2.052,0-2.965-.056-5.644-.105-8.6m-19.24-38.141c-3.717,1.485-7.5,2.79-11.15,3.971l-.06-.059L438.8,85.9c4.23-1.424,8.643-2.909,11.906-4.182l.062.09Zm0-4.548c-3.717,1.485-7.5,2.788-11.15,3.971l-.06-.06.452-2.093c4.23-1.424,8.643-2.912,11.906-4.182l.062.091Z" transform="translate(2292 2333.077)" fill="#f1e1c6"/>
      <path id="Path_218" data-name="Path 218" d="M438.454,131.792a6.847,6.847,0,0,1-2.755-2.412,9.363,9.363,0,0,0,.237,3.116c.316.077,2.77.205,5.243.267a12.668,12.668,0,0,1-2.725-.972" transform="translate(2292 2333.135)" fill="#f1e1c6"/>
      <path id="Path_219" data-name="Path 219" d="M385.6,99.286c.184-4.547-.151-7.919-.218-11.88-.079-4.51.109-7.963-.13-13.206-1.2-.5-7.475-.284-8.869-.4-1.449-.126-5.548.07-5.531.888.079,4.008.169,7.413.25,11.421.079,3.969-.088,7.7-.028,11.666.055,3.928.337,8.1.352,12.027q.017,4.852-.034,9.705a13.534,13.534,0,0,0,4.411-.893,18.976,18.976,0,0,0,6.1-3.658v-.445a16.264,16.264,0,0,0-.346-3.46c-.282-1.191-.6-2.362-.941-3.5l2.774-6.369q1.264,2.808,1.786,4a1.251,1.251,0,0,0,.468.565c-.077-2.153-.13-4.307-.043-6.456m-4-7.454a5.648,5.648,0,0,1-2.736,2.624,7.643,7.643,0,0,1-1.637.566,13.09,13.09,0,0,1-1.7.233l-.345-.034a7.708,7.708,0,0,1,2.215-1.3,8.948,8.948,0,0,0,2.648-1.686l.019-.087a5.732,5.732,0,0,0-2.2-.451c-.369-.034-.7-.051-1-.051a2.726,2.726,0,0,0-1.558.329,5.332,5.332,0,0,0-.493.424,3.382,3.382,0,0,1-.392.338l-.034-.015a5.513,5.513,0,0,1,.46-1.354,8.993,8.993,0,0,1,1.306-2.153c.3-.359,1.023-.541,2.164-.541h.643a4.9,4.9,0,0,1,2.8.662,1.208,1.208,0,0,1,.328.885,3.751,3.751,0,0,1-.484,1.615" transform="translate(2292 2333.077)" fill="#f1e1c6"/>
      <path id="Path_220" data-name="Path 220" d="M494.4,112.147c-.113-2.839-.606-5.646-.606-9.912,0-6.494.659-10.557.538-15.152-.13-4.877-.052-3.162.045-8.037a14.522,14.522,0,0,0-.566-4.42s-5.843-.6-11.793-.662c7.25,12.637,10.1,23.644,8.481,32.737l-6.118,6.135,1.82-.2c.013,0,1.11-.122,2.6-.32a22.123,22.123,0,0,1-7.445,9.182.041.041,0,0,0-.013.01c.051-.19.1-.375.149-.564a73.816,73.816,0,0,0,1.669-8.295c.852-6.026,1.306-14.723-1.1-22.83a10.416,10.416,0,0,0-1.27-2.731l-.288-.444a10.6,10.6,0,0,0,.032,1.927,11.013,11.013,0,0,0,.371,1.891c2.856,9.856,1.714,21.473-.77,30.6-.049.179-.1.356-.147.536a41.534,41.534,0,0,1-5.758-19.134l4.652,2.157-4.5-8.295c.119-1.22.3-2.453.524-3.653l.278-1.468,6.667-17.246c-.572-.007-1.146-.007-1.716,0-3.357.038-9.386.337-9.386.337.035,1.117.069,2.559.1,3.676.047,1.669-.137,4.805-.026,6.467a179.774,179.774,0,0,1,.3,18.069c-.062,4.339.444,9.561.384,13.678-.085,5.836-.055,9.926-.258,16.683a4.862,4.862,0,0,1,2.5-.072c.434.066,1.117.124,1.962.17a15.9,15.9,0,0,1,.663-1.538,52.2,52.2,0,0,0,3.137-8.13.788.788,0,0,1,.043.068l.309.488.515-.252s.066-.032.185-.094l.224-.1.032-.013a54.69,54.69,0,0,1-2.729,7.435,14.7,14.7,0,0,1-1.242,2.189c6.041.248,17.5.171,17.5.171-.037-.691.012-8.183-.077-11.042-.145-4.636.245-7.088.13-10.01" transform="translate(2292 2333.077)" fill="#f1e1c6"/>
      <path id="Path_221" data-name="Path 221" d="M157.6,185.593h2.36v14.328h8.534v2.091H157.6Z" transform="translate(2292 2333.193)" fill="#f1e1c6"/>
      <path id="Path_222" data-name="Path 222" d="M170.681,186.035h2.484v2.487h-2.484Zm.149,4.532h2.213v11.448H170.83Z" transform="translate(2292 2333.194)" fill="#f1e1c6"/>
      <path id="Path_223" data-name="Path 223" d="M177.174,192.411h-2.066v-1.846h2.066v-3.743h2.213v3.743h3.346v1.846h-3.346v5.638a3.085,3.085,0,0,0,.429,1.9,1.5,1.5,0,0,0,1.218.515,2.464,2.464,0,0,0,1.057-.2,3.239,3.239,0,0,0,.838-.59l1.008,1.351a4.211,4.211,0,0,1-3.246,1.305,3.34,3.34,0,0,1-2.67-.984,4.646,4.646,0,0,1-.847-3.076Z" transform="translate(2292 2333.195)" fill="#f1e1c6"/>
      <path id="Path_224" data-name="Path 224" d="M195.321,200.334a6.458,6.458,0,0,1-.589.568,5.107,5.107,0,0,1-1.022.665,7.677,7.677,0,0,1-1.475.551,7.252,7.252,0,0,1-1.929.235,6.5,6.5,0,0,1-2.435-.442,5.416,5.416,0,0,1-1.9-1.253,5.655,5.655,0,0,1-1.216-1.946,7.047,7.047,0,0,1-.429-2.513,6.6,6.6,0,0,1,.416-2.352,5.566,5.566,0,0,1,5.286-3.627,5.326,5.326,0,0,1,2.535.564,5.041,5.041,0,0,1,1.733,1.5,6.412,6.412,0,0,1,1,2.142,9.742,9.742,0,0,1,.32,2.51h-9.025a3.421,3.421,0,0,0,.331,1.4,3.563,3.563,0,0,0,.823,1.111,4.052,4.052,0,0,0,1.181.737,3.674,3.674,0,0,0,1.4.271,5.089,5.089,0,0,0,2.385-.494,4.783,4.783,0,0,0,1.351-.959Zm-1.991-5.046a3.722,3.722,0,0,0-.933-2.264,3.01,3.01,0,0,0-2.364-.938,3.523,3.523,0,0,0-1.413.273,3.392,3.392,0,0,0-1.069.714,3.157,3.157,0,0,0-.689,1.021,3.387,3.387,0,0,0-.269,1.194Z" transform="translate(2292 2333.198)" fill="#f1e1c6"/>
      <path id="Path_225" data-name="Path 225" d="M198.076,202.008V191.276c0-.148-.009-.384-.023-.716h2.114l.073,1.846a6.126,6.126,0,0,1,.516-.652,3.811,3.811,0,0,1,.775-.652,5.046,5.046,0,0,1,1.058-.507,4.242,4.242,0,0,1,1.39-.209,4.164,4.164,0,0,1,.676.051,3.034,3.034,0,0,1,.576.147l-.491,2.066a3.191,3.191,0,0,0-1.131-.171,3.133,3.133,0,0,0-1.316.273,3.168,3.168,0,0,0-1.044.75,3.622,3.622,0,0,0-.7,1.12,3.567,3.567,0,0,0-.258,1.354v6.03Z" transform="translate(2292 2333.198)" fill="#f1e1c6"/>
      <path id="Path_226" data-name="Path 226" d="M213.817,200.629a3.844,3.844,0,0,1-1.686,1.282,5.77,5.77,0,0,1-2.151.416,5.5,5.5,0,0,1-1.415-.184,3.59,3.59,0,0,1-1.278-.617,3.259,3.259,0,0,1-.935-1.107,3.516,3.516,0,0,1-.357-1.662,3.685,3.685,0,0,1,1.292-2.952,5.546,5.546,0,0,1,3.726-1.109c.262,0,.539.009.836.024l.834.049c.265.017.493.034.69.049s.337.034.418.049v-.416a2.1,2.1,0,0,0-.775-1.835,3.539,3.539,0,0,0-2.1-.554,4.949,4.949,0,0,0-2.065.356,8.009,8.009,0,0,0-1.279.725l-1.035-1.5a5.626,5.626,0,0,1,.715-.494,6.018,6.018,0,0,1,.982-.455,8.021,8.021,0,0,1,1.28-.343,8.912,8.912,0,0,1,1.648-.135,5.217,5.217,0,0,1,3.478,1.068,3.766,3.766,0,0,1,1.268,3.042v7.1c0,.156.008.35.025.582h-2.065Zm-.026-4.037c-.066-.017-.192-.036-.38-.062s-.4-.045-.653-.062-.508-.032-.787-.047-.549-.025-.811-.025a4.237,4.237,0,0,0-1.513.222,2.559,2.559,0,0,0-.909.553,1.763,1.763,0,0,0-.457.74,2.71,2.71,0,0,0-.122.775,1.663,1.663,0,0,0,.641,1.416,2.9,2.9,0,0,0,1.769.479,3.392,3.392,0,0,0,1.218-.22,3.68,3.68,0,0,0,1.022-.592,3.006,3.006,0,0,0,.713-.863,2.078,2.078,0,0,0,.269-1.008Z" transform="translate(2292 2333.198)" fill="#f1e1c6"/>
      <path id="Path_227" data-name="Path 227" d="M219.914,192.411h-2.066v-1.846h2.066v-3.743h2.213v3.743h3.346v1.846h-3.346v5.638a3.085,3.085,0,0,0,.429,1.9,1.5,1.5,0,0,0,1.218.515,2.464,2.464,0,0,0,1.057-.2,3.239,3.239,0,0,0,.838-.59l1.008,1.351a4.211,4.211,0,0,1-3.246,1.305,3.34,3.34,0,0,1-2.67-.984,4.646,4.646,0,0,1-.847-3.076Z" transform="translate(2292 2333.195)" fill="#f1e1c6"/>
      <path id="Path_228" data-name="Path 228" d="M228.054,190.56h2.213v6.722a3.42,3.42,0,0,0,.664,2.348,2.459,2.459,0,0,0,1.918.729,2.929,2.929,0,0,0,1.586-.4,3.244,3.244,0,0,0,1.022-1.021,4.216,4.216,0,0,0,.553-1.429,8.346,8.346,0,0,0,.16-1.633V190.56h2.213v10.745c0,.237.008.473.025.7h-2.115l-.074-1.7c-.148.2-.329.407-.54.638a3.651,3.651,0,0,1-.79.626,5,5,0,0,1-1.08.484,4.633,4.633,0,0,1-1.4.2,4.023,4.023,0,0,1-3.295-1.291,5.418,5.418,0,0,1-1.058-3.534Z" transform="translate(2292 2333.198)" fill="#f1e1c6"/>
      <path id="Path_229" data-name="Path 229" d="M241.456,202.008V191.276c0-.148-.009-.384-.023-.716h2.114l.073,1.846a6.129,6.129,0,0,1,.516-.652,3.811,3.811,0,0,1,.775-.652,5.046,5.046,0,0,1,1.058-.507,4.242,4.242,0,0,1,1.39-.209,4.164,4.164,0,0,1,.676.051,3.034,3.034,0,0,1,.576.147l-.491,2.066a3.191,3.191,0,0,0-1.131-.171,3.133,3.133,0,0,0-1.316.273,3.168,3.168,0,0,0-1.044.75,3.622,3.622,0,0,0-.7,1.12,3.567,3.567,0,0,0-.258,1.354v6.03Z" transform="translate(2292 2333.198)" fill="#f1e1c6"/>
      <path id="Path_230" data-name="Path 230" d="M260.218,200.334a6.454,6.454,0,0,1-.589.568,5.107,5.107,0,0,1-1.022.665,7.676,7.676,0,0,1-1.475.551,7.252,7.252,0,0,1-1.929.235,6.5,6.5,0,0,1-2.435-.442,5.416,5.416,0,0,1-1.9-1.253,5.655,5.655,0,0,1-1.216-1.946,7.047,7.047,0,0,1-.429-2.513,6.6,6.6,0,0,1,.416-2.352,5.566,5.566,0,0,1,5.286-3.627,5.326,5.326,0,0,1,2.535.564,5.041,5.041,0,0,1,1.733,1.5,6.412,6.412,0,0,1,1,2.142,9.743,9.743,0,0,1,.32,2.51H251.49a3.421,3.421,0,0,0,.331,1.4,3.563,3.563,0,0,0,.823,1.111,4.052,4.052,0,0,0,1.181.737,3.674,3.674,0,0,0,1.4.271,5.089,5.089,0,0,0,2.385-.494,4.783,4.783,0,0,0,1.351-.959Zm-1.991-5.046a3.721,3.721,0,0,0-.933-2.264,3.01,3.01,0,0,0-2.364-.938,3.523,3.523,0,0,0-1.413.273,3.392,3.392,0,0,0-1.069.714,3.157,3.157,0,0,0-.689,1.021,3.387,3.387,0,0,0-.269,1.194Z" transform="translate(2292 2333.198)" fill="#f1e1c6"/>
      <path id="Path_231" data-name="Path 231" d="M264.179,202H263.2v-2.732h2.777v2.708l-1.7,2.9h-1.353Z" transform="translate(2292 2333.208)" fill="#f1e1c6"/>
      <path id="Path_232" data-name="Path 232" d="M274.039,185.593h5.19a7.127,7.127,0,0,1,2.766.465,4.977,4.977,0,0,1,1.745,1.184,4.07,4.07,0,0,1,.911,1.6,6.117,6.117,0,0,1,.259,1.724,5.21,5.21,0,0,1-.421,2.166,4.305,4.305,0,0,1-1.154,1.562,4.934,4.934,0,0,1-1.759.949,7.4,7.4,0,0,1-2.226.32h-2.972v6.449h-2.339Zm5.288,7.951a3.289,3.289,0,0,0,2.347-.776,2.815,2.815,0,0,0,.826-2.153,2.882,2.882,0,0,0-.849-2.2,3.254,3.254,0,0,0-2.324-.8h-2.949v5.932Z" transform="translate(2292 2333.193)" fill="#f1e1c6"/>
      <path id="Path_233" data-name="Path 233" d="M287.049,190.56h2.213v6.722a3.42,3.42,0,0,0,.664,2.348,2.459,2.459,0,0,0,1.918.729,2.929,2.929,0,0,0,1.586-.4,3.243,3.243,0,0,0,1.022-1.021,4.216,4.216,0,0,0,.553-1.429,8.347,8.347,0,0,0,.16-1.633V190.56h2.213v10.745c0,.237.008.473.025.7h-2.115l-.074-1.7c-.148.2-.329.407-.54.638a3.652,3.652,0,0,1-.79.626,4.96,4.96,0,0,1-1.08.484,4.633,4.633,0,0,1-1.4.2,4.023,4.023,0,0,1-3.3-1.291,5.418,5.418,0,0,1-1.058-3.534Z" transform="translate(2292 2333.198)" fill="#f1e1c6"/>
      <path id="Path_234" data-name="Path 234" d="M300.451,185.593h2.212v6.226a3.932,3.932,0,0,1,.481-.491,3.8,3.8,0,0,1,.751-.5,4.476,4.476,0,0,1,1.02-.382,5.772,5.772,0,0,1,3.54.307,4.709,4.709,0,0,1,1.637,1.256,5.388,5.388,0,0,1,.994,1.884,7.826,7.826,0,0,1,.333,2.313,6.486,6.486,0,0,1-.467,2.485,5.6,5.6,0,0,1-1.317,1.946,6,6,0,0,1-2.029,1.269,7.22,7.22,0,0,1-2.606.455,14.464,14.464,0,0,1-2.605-.222,10.4,10.4,0,0,1-1.944-.518Zm2.189,14.524c.228.066.512.134.847.209a7.51,7.51,0,0,0,1.488.111,4.564,4.564,0,0,0,1.722-.307,3.931,3.931,0,0,0,1.316-.861,3.751,3.751,0,0,0,.848-1.331,4.722,4.722,0,0,0,.294-1.685,6.129,6.129,0,0,0-.183-1.515,3.633,3.633,0,0,0-.589-1.28,3.065,3.065,0,0,0-1.023-.889,3.138,3.138,0,0,0-1.5-.33,3.32,3.32,0,0,0-1.415.281,3.161,3.161,0,0,0-1.009.742,2.93,2.93,0,0,0-.6,1.057,4.025,4.025,0,0,0-.2,1.243Z" transform="translate(2292 2333.193)" fill="#f1e1c6"/>
      <rect id="Rectangle_37" data-name="Rectangle 37" width="2.213" height="16.419" transform="translate(2605.903 2518.784)" fill="#f1e1c6"/>
      <path id="Path_235" data-name="Path 235" d="M319.093,186.035h2.484v2.487h-2.484Zm.147,4.532h2.213v11.448H319.24Z" transform="translate(2292 2333.194)" fill="#f1e1c6"/>
      <path id="Path_236" data-name="Path 236" d="M325.337,199.127a4.635,4.635,0,0,0,1.477.985,4.98,4.98,0,0,0,1.991.369,4.192,4.192,0,0,0,1.846-.358,1.176,1.176,0,0,0,.736-1.12,1.347,1.347,0,0,0-.16-.675,1.416,1.416,0,0,0-.54-.507,4.738,4.738,0,0,0-1.009-.405q-.629-.186-1.563-.406a9.572,9.572,0,0,1-1.314-.392,4.393,4.393,0,0,1-1.17-.654,3.243,3.243,0,0,1-.834-.985,2.829,2.829,0,0,1-.32-1.39,2.764,2.764,0,0,1,.382-1.464,3.359,3.359,0,0,1,1.018-1.06,4.942,4.942,0,0,1,1.44-.652,6.194,6.194,0,0,1,1.661-.222,7.3,7.3,0,0,1,2.494.382,5.728,5.728,0,0,1,1.833,1.071l-1.2,1.525a4.476,4.476,0,0,0-1.289-.786,4.733,4.733,0,0,0-1.81-.32,3.592,3.592,0,0,0-1.7.343,1.187,1.187,0,0,0-.639,1.132,1.167,1.167,0,0,0,.848,1.1,14.12,14.12,0,0,0,2.225.678,13.37,13.37,0,0,1,1.513.454,4.61,4.61,0,0,1,1.227.665,2.972,2.972,0,0,1,.839,1,3.067,3.067,0,0,1,.307,1.429,2.878,2.878,0,0,1-.394,1.513,3.424,3.424,0,0,1-1.059,1.1,4.944,4.944,0,0,1-1.521.664,7.185,7.185,0,0,1-1.8.222,6.338,6.338,0,0,1-4.87-1.747Z" transform="translate(2292 2333.198)" fill="#f1e1c6"/>
      <path id="Path_237" data-name="Path 237" d="M336.182,185.593h2.187v6.672c.15-.2.329-.41.542-.642a3.946,3.946,0,0,1,.788-.639,4.8,4.8,0,0,1,1.082-.494,4.615,4.615,0,0,1,1.4-.2,4.064,4.064,0,0,1,3.32,1.305,5.379,5.379,0,0,1,1.08,3.546v6.866h-2.211v-6.695a3.39,3.39,0,0,0-.689-2.349,2.5,2.5,0,0,0-1.942-.753,3,3,0,0,0-1.6.393,3.1,3.1,0,0,0-1.02,1.023,4.515,4.515,0,0,0-.553,1.427,7.745,7.745,0,0,0-.173,1.636v5.318h-2.213Z" transform="translate(2292 2333.193)" fill="#f1e1c6"/>
      <path id="Path_238" data-name="Path 238" d="M349.509,186.035h2.484v2.487h-2.484Zm.147,4.532h2.213v11.448h-2.213Z" transform="translate(2292 2333.194)" fill="#f1e1c6"/>
      <path id="Path_239" data-name="Path 239" d="M355.019,202.008V191.289c0-.156-.009-.4-.023-.729h2.114l.073,1.724c.147-.2.329-.414.54-.652a3.755,3.755,0,0,1,.789-.652,4.674,4.674,0,0,1,1.093-.5,4.754,4.754,0,0,1,1.415-.2,4.071,4.071,0,0,1,3.32,1.307,5.372,5.372,0,0,1,1.082,3.544v6.868h-2.213v-6.695a3.4,3.4,0,0,0-.689-2.352,2.5,2.5,0,0,0-1.942-.752,3.01,3.01,0,0,0-1.6.393,3.1,3.1,0,0,0-1.022,1.023,4.545,4.545,0,0,0-.553,1.429,7.719,7.719,0,0,0-.173,1.634v5.32Z" transform="translate(2292 2333.198)" fill="#f1e1c6"/>
      <path id="Path_240" data-name="Path 240" d="M369.922,204.348a5.632,5.632,0,0,0,1.387.676,6.27,6.27,0,0,0,2.006.283,3.139,3.139,0,0,0,2.461-.91,3.466,3.466,0,0,0,.811-2.387v-1.4c-.116.1-.267.233-.455.406a3.694,3.694,0,0,1-.715.492,5.977,5.977,0,0,1-1.02.42,4.565,4.565,0,0,1-1.353.184,5.423,5.423,0,0,1-2.226-.431,4.763,4.763,0,0,1-1.636-1.182,5.063,5.063,0,0,1-1.006-1.8,7.234,7.234,0,0,1-.345-2.277,6.29,6.29,0,0,1,.467-2.451,5.748,5.748,0,0,1,1.317-1.944,5.9,5.9,0,0,1,2.029-1.281,7.283,7.283,0,0,1,2.631-.455,13.162,13.162,0,0,1,2.606.246,11.537,11.537,0,0,1,1.942.543v10.931a5.054,5.054,0,0,1-1.438,3.851,5.648,5.648,0,0,1-4.046,1.365,8.242,8.242,0,0,1-2.779-.38,6.41,6.41,0,0,1-1.673-.872Zm6.688-11.768c-.147-.049-.4-.12-.749-.209a6.922,6.922,0,0,0-1.586-.135,4.5,4.5,0,0,0-1.7.308,3.837,3.837,0,0,0-2.177,2.176,4.444,4.444,0,0,0-.307,1.675,5.713,5.713,0,0,0,.185,1.479,3.286,3.286,0,0,0,.589,1.205,2.877,2.877,0,0,0,1.023.814,3.446,3.446,0,0,0,1.5.294,3.815,3.815,0,0,0,1.427-.245,2.949,2.949,0,0,0,1.01-.654,2.712,2.712,0,0,0,.589-.91,2.878,2.878,0,0,0,.2-1.047Z" transform="translate(2292 2333.198)" fill="#f1e1c6"/>
      <path id="Path_241" data-name="Path 241" d="M395.621,200.217a8.663,8.663,0,0,1-1.98,1.551,5.548,5.548,0,0,1-2.792.641,6.438,6.438,0,0,1-2.225-.356,4.574,4.574,0,0,1-1.624-.987,4.126,4.126,0,0,1-.982-1.451,4.661,4.661,0,0,1-.333-1.76,4.952,4.952,0,0,1,.837-2.807,9.368,9.368,0,0,1,2.556-2.438l-.294-.369a6.053,6.053,0,0,1-.909-1.528,4.378,4.378,0,0,1-.321-1.673,3.7,3.7,0,0,1,.3-1.441,3.79,3.79,0,0,1,.847-1.243,4.082,4.082,0,0,1,1.366-.861,5,5,0,0,1,1.846-.32,4.928,4.928,0,0,1,1.609.235,4.152,4.152,0,0,1,1.18.614,3.8,3.8,0,0,1,.836.861,7.1,7.1,0,0,1,.579,1l-1.648,1.06a4.105,4.105,0,0,0-1.218-1.464,2.264,2.264,0,0,0-1.217-.357,2.111,2.111,0,0,0-1.6.565,1.861,1.861,0,0,0-.54,1.33,2.561,2.561,0,0,0,.357,1.29,8.357,8.357,0,0,0,.945,1.318l4.477,5.242,2.14-2.731,1.669,1.329-2.433,3.052,3,3.5h-2.853Zm-5.239-6.056a6.771,6.771,0,0,0-1.807,1.686,3.337,3.337,0,0,0-.53,1.884,2.511,2.511,0,0,0,.739,1.848,2.932,2.932,0,0,0,2.164.737,3.422,3.422,0,0,0,1.9-.5,6.454,6.454,0,0,0,1.389-1.219Z" transform="translate(2292 2333.193)" fill="#f1e1c6"/>
      <path id="Path_242" data-name="Path 242" d="M411.382,187.661h-5.877v-2.068H419.6v2.068h-5.854v14.351h-2.36Z" transform="translate(2292 2333.193)" fill="#f1e1c6"/>
      <path id="Path_243" data-name="Path 243" d="M418.267,202.008V191.276c0-.148-.009-.384-.024-.716h2.115l.073,1.846a6.128,6.128,0,0,1,.516-.652,3.812,3.812,0,0,1,.775-.652,5.047,5.047,0,0,1,1.058-.507,4.242,4.242,0,0,1,1.39-.209,4.164,4.164,0,0,1,.676.051,3.034,3.034,0,0,1,.576.147l-.491,2.066a3.191,3.191,0,0,0-1.131-.171,3.133,3.133,0,0,0-1.316.273,3.168,3.168,0,0,0-1.044.75,3.622,3.622,0,0,0-.7,1.12,3.567,3.567,0,0,0-.258,1.354v6.03Z" transform="translate(2292 2333.198)" fill="#f1e1c6"/>
      <path id="Path_244" data-name="Path 244" d="M434.007,200.629a3.861,3.861,0,0,1-1.686,1.282,5.77,5.77,0,0,1-2.151.416,5.5,5.5,0,0,1-1.415-.184,3.59,3.59,0,0,1-1.278-.617,3.237,3.237,0,0,1-.935-1.107,3.516,3.516,0,0,1-.357-1.662,3.685,3.685,0,0,1,1.292-2.952A5.545,5.545,0,0,1,431.2,194.7c.262,0,.539.009.836.024l.834.049c.265.017.493.034.69.049s.337.034.418.049v-.416a2.1,2.1,0,0,0-.775-1.835,3.539,3.539,0,0,0-2.1-.554,4.949,4.949,0,0,0-2.065.356,8.009,8.009,0,0,0-1.279.725l-1.035-1.5a5.628,5.628,0,0,1,.715-.494,6.017,6.017,0,0,1,.982-.455,8.021,8.021,0,0,1,1.28-.343,8.912,8.912,0,0,1,1.648-.135,5.217,5.217,0,0,1,3.478,1.068,3.766,3.766,0,0,1,1.268,3.042v7.1c0,.156.008.35.025.582h-2.065Zm-.026-4.037c-.066-.017-.192-.036-.38-.062s-.4-.045-.653-.062-.508-.032-.787-.047-.549-.025-.811-.025a4.237,4.237,0,0,0-1.513.222,2.559,2.559,0,0,0-.909.553,1.763,1.763,0,0,0-.457.74,2.71,2.71,0,0,0-.122.775,1.663,1.663,0,0,0,.641,1.416,2.9,2.9,0,0,0,1.769.479,3.392,3.392,0,0,0,1.218-.22,3.64,3.64,0,0,0,1.02-.592,2.981,2.981,0,0,0,.715-.863,2.079,2.079,0,0,0,.269-1.008Z" transform="translate(2292 2333.198)" fill="#f1e1c6"/>
      <path id="Path_245" data-name="Path 245" d="M439.121,202.008V191.289c0-.156-.009-.4-.023-.729h2.114l.073,1.724c.147-.2.329-.414.54-.652a3.755,3.755,0,0,1,.789-.652,4.674,4.674,0,0,1,1.093-.5,4.754,4.754,0,0,1,1.415-.2,4.071,4.071,0,0,1,3.32,1.307,5.372,5.372,0,0,1,1.082,3.544v6.868h-2.213v-6.695a3.4,3.4,0,0,0-.689-2.352,2.5,2.5,0,0,0-1.942-.752,3.01,3.01,0,0,0-1.6.393,3.1,3.1,0,0,0-1.022,1.023,4.545,4.545,0,0,0-.553,1.429,7.719,7.719,0,0,0-.173,1.634v5.32Z" transform="translate(2292 2333.198)" fill="#f1e1c6"/>
      <path id="Path_246" data-name="Path 246" d="M453.236,199.127a4.635,4.635,0,0,0,1.477.985,4.98,4.98,0,0,0,1.991.369,4.192,4.192,0,0,0,1.846-.358,1.176,1.176,0,0,0,.736-1.12,1.347,1.347,0,0,0-.16-.675,1.416,1.416,0,0,0-.54-.507,4.738,4.738,0,0,0-1.009-.405q-.629-.186-1.563-.406a9.569,9.569,0,0,1-1.314-.392,4.394,4.394,0,0,1-1.17-.654,3.243,3.243,0,0,1-.834-.985,2.829,2.829,0,0,1-.32-1.39,2.764,2.764,0,0,1,.382-1.464,3.36,3.36,0,0,1,1.018-1.06,4.942,4.942,0,0,1,1.44-.652,6.194,6.194,0,0,1,1.661-.222,7.3,7.3,0,0,1,2.494.382,5.729,5.729,0,0,1,1.833,1.071L460,193.169a4.476,4.476,0,0,0-1.289-.786,4.733,4.733,0,0,0-1.81-.32,3.592,3.592,0,0,0-1.7.343,1.187,1.187,0,0,0-.639,1.132,1.167,1.167,0,0,0,.848,1.1,14.121,14.121,0,0,0,2.225.678,13.368,13.368,0,0,1,1.513.454,4.632,4.632,0,0,1,1.228.665,2.981,2.981,0,0,1,.838,1,3.067,3.067,0,0,1,.307,1.429,2.878,2.878,0,0,1-.394,1.513,3.439,3.439,0,0,1-1.057,1.1,4.977,4.977,0,0,1-1.523.664,7.185,7.185,0,0,1-1.8.222,6.338,6.338,0,0,1-4.87-1.747Z" transform="translate(2292 2333.198)" fill="#f1e1c6"/>
      <rect id="Rectangle_38" data-name="Rectangle 38" width="2.213" height="16.419" transform="translate(2756.082 2518.784)" fill="#f1e1c6"/>
      <path id="Path_247" data-name="Path 247" d="M476.476,200.629a3.861,3.861,0,0,1-1.686,1.282,5.77,5.77,0,0,1-2.151.416,5.5,5.5,0,0,1-1.415-.184,3.589,3.589,0,0,1-1.278-.617,3.237,3.237,0,0,1-.935-1.107,3.516,3.516,0,0,1-.357-1.662,3.685,3.685,0,0,1,1.292-2.952,5.544,5.544,0,0,1,3.726-1.109c.262,0,.539.009.836.024l.834.049c.265.017.493.034.69.049s.337.034.418.049v-.416a2.1,2.1,0,0,0-.775-1.835,3.539,3.539,0,0,0-2.1-.554,4.949,4.949,0,0,0-2.065.356,8.009,8.009,0,0,0-1.279.725l-1.035-1.5a5.628,5.628,0,0,1,.715-.494,6.019,6.019,0,0,1,.982-.455,8.022,8.022,0,0,1,1.28-.343,8.935,8.935,0,0,1,1.648-.135,5.217,5.217,0,0,1,3.478,1.068,3.766,3.766,0,0,1,1.268,3.042v7.1c0,.156.008.35.025.582h-2.065Zm-.026-4.037c-.066-.017-.192-.036-.38-.062s-.4-.045-.653-.062-.508-.032-.787-.047-.549-.025-.811-.025a4.249,4.249,0,0,0-1.513.222,2.559,2.559,0,0,0-.909.553,1.763,1.763,0,0,0-.457.74,2.71,2.71,0,0,0-.122.775,1.663,1.663,0,0,0,.641,1.416,2.9,2.9,0,0,0,1.769.479,3.392,3.392,0,0,0,1.218-.22,3.64,3.64,0,0,0,1.02-.592,2.981,2.981,0,0,0,.715-.863,2.079,2.079,0,0,0,.269-1.008Z" transform="translate(2292 2333.198)" fill="#f1e1c6"/>
      <path id="Path_248" data-name="Path 248" d="M482.574,192.411h-2.066v-1.846h2.066v-3.743h2.213v3.743h3.346v1.846h-3.346v5.638a3.085,3.085,0,0,0,.429,1.9,1.5,1.5,0,0,0,1.218.515,2.464,2.464,0,0,0,1.057-.2,3.239,3.239,0,0,0,.838-.59l1.008,1.351a4.211,4.211,0,0,1-3.246,1.305,3.34,3.34,0,0,1-2.67-.984,4.646,4.646,0,0,1-.847-3.076Z" transform="translate(2292 2333.195)" fill="#f1e1c6"/>
      <path id="Path_249" data-name="Path 249" d="M490.983,186.035h2.484v2.487h-2.484Zm.147,4.532h2.213v11.448H491.13Z" transform="translate(2292 2333.194)" fill="#f1e1c6"/>
      <path id="Path_250" data-name="Path 250" d="M502,202.353a6.042,6.042,0,0,1-2.435-.48,5.753,5.753,0,0,1-1.906-1.315,6.287,6.287,0,0,1-1.254-1.933,6.3,6.3,0,0,1,0-4.7,6.263,6.263,0,0,1,1.254-1.933,5.783,5.783,0,0,1,1.906-1.315,6.344,6.344,0,0,1,4.844,0,5.912,5.912,0,0,1,1.919,1.315,6.087,6.087,0,0,1,1.722,4.283,6.076,6.076,0,0,1-.455,2.352,6.164,6.164,0,0,1-1.267,1.933,5.881,5.881,0,0,1-1.919,1.315,5.985,5.985,0,0,1-2.409.48m0-1.92a3.547,3.547,0,0,0,1.6-.356,3.766,3.766,0,0,0,1.2-.936,4.054,4.054,0,0,0,.751-1.328,4.7,4.7,0,0,0,.258-1.541,4.6,4.6,0,0,0-.258-1.513,4.039,4.039,0,0,0-.764-1.341,3.839,3.839,0,0,0-1.2-.949,3.453,3.453,0,0,0-1.586-.356,3.525,3.525,0,0,0-1.6.356,3.744,3.744,0,0,0-1.2.936,4.057,4.057,0,0,0-.753,1.328,4.737,4.737,0,0,0-.259,1.539,4.632,4.632,0,0,0,.259,1.528,4.142,4.142,0,0,0,.764,1.328,3.862,3.862,0,0,0,1.2.949,3.48,3.48,0,0,0,1.588.356" transform="translate(2292 2333.198)" fill="#f1e1c6"/>
      <path id="Path_251" data-name="Path 251" d="M510.558,202.008V191.289c0-.156-.009-.4-.023-.729h2.114l.073,1.724c.147-.2.329-.414.54-.652a3.753,3.753,0,0,1,.789-.652,4.674,4.674,0,0,1,1.093-.5,4.754,4.754,0,0,1,1.415-.2,4.071,4.071,0,0,1,3.32,1.307,5.372,5.372,0,0,1,1.082,3.544v6.868h-2.213v-6.695a3.4,3.4,0,0,0-.689-2.352,2.5,2.5,0,0,0-1.942-.752,3.01,3.01,0,0,0-1.6.393,3.1,3.1,0,0,0-1.022,1.023,4.545,4.545,0,0,0-.553,1.429,7.719,7.719,0,0,0-.173,1.634v5.32Z" transform="translate(2292 2333.198)" fill="#f1e1c6"/>
      <path id="Path_252" data-name="Path 252" d="M542.675,199.132a5.749,5.749,0,0,1-.834,1.008,7.569,7.569,0,0,1-1.379,1.072,8.514,8.514,0,0,1-1.869.849,7.506,7.506,0,0,1-2.337.345,8.4,8.4,0,0,1-3.321-.641,7.606,7.606,0,0,1-2.58-1.786,8.167,8.167,0,0,1-1.686-2.707,9.867,9.867,0,0,1,0-6.782,8.6,8.6,0,0,1,1.686-2.758,7.8,7.8,0,0,1,2.593-1.857,8.116,8.116,0,0,1,3.357-.679,7.957,7.957,0,0,1,2.337.32,7.851,7.851,0,0,1,1.807.8,7.075,7.075,0,0,1,1.33,1.047,7.53,7.53,0,0,1,.9,1.083L541,189.878a9.467,9.467,0,0,0-.7-.876,4.758,4.758,0,0,0-.971-.824,5.593,5.593,0,0,0-1.3-.616,5.36,5.36,0,0,0-1.7-.247,5.405,5.405,0,0,0-4.243,1.92,6.25,6.25,0,0,0-1.144,2.068,7.922,7.922,0,0,0-.392,2.51,7.622,7.622,0,0,0,.4,2.5,6.276,6.276,0,0,0,1.146,2.032A5.253,5.253,0,0,0,533.9,199.7a5.548,5.548,0,0,0,2.36.492,5.788,5.788,0,0,0,1.908-.283,5.45,5.45,0,0,0,1.35-.678,5.182,5.182,0,0,0,.912-.8c.237-.271.437-.5.6-.677Z" transform="translate(2292 2333.193)" fill="#f1e1c6"/>
      <path id="Path_253" data-name="Path 253" d="M550.078,202.353a6.042,6.042,0,0,1-2.435-.48,5.753,5.753,0,0,1-1.906-1.315,6.288,6.288,0,0,1-1.254-1.933,6.3,6.3,0,0,1,0-4.7,6.264,6.264,0,0,1,1.254-1.933,5.783,5.783,0,0,1,1.906-1.315,6.344,6.344,0,0,1,4.844,0,5.911,5.911,0,0,1,1.919,1.315,6.087,6.087,0,0,1,1.722,4.283,6.075,6.075,0,0,1-.455,2.352,6.163,6.163,0,0,1-1.267,1.933,5.88,5.88,0,0,1-1.919,1.315,5.985,5.985,0,0,1-2.409.48m0-1.92a3.547,3.547,0,0,0,1.6-.356,3.766,3.766,0,0,0,1.2-.936,4.053,4.053,0,0,0,.751-1.328,4.7,4.7,0,0,0,.258-1.541,4.6,4.6,0,0,0-.258-1.513,4.074,4.074,0,0,0-.764-1.341,3.839,3.839,0,0,0-1.2-.949,3.453,3.453,0,0,0-1.586-.356,3.525,3.525,0,0,0-1.6.356,3.745,3.745,0,0,0-1.2.936,4.057,4.057,0,0,0-.753,1.328,4.736,4.736,0,0,0-.258,1.539,4.631,4.631,0,0,0,.258,1.528,4.143,4.143,0,0,0,.764,1.328,3.862,3.862,0,0,0,1.2.949,3.48,3.48,0,0,0,1.588.356" transform="translate(2292 2333.198)" fill="#f1e1c6"/>
      <path id="Path_254" data-name="Path 254" d="M558.635,202.008V191.289c0-.156-.009-.4-.023-.729h2.114l.073,1.724a6.031,6.031,0,0,1,.516-.652,3.969,3.969,0,0,1,.764-.652,4.32,4.32,0,0,1,1.044-.5,4.509,4.509,0,0,1,1.389-.2,4.172,4.172,0,0,1,2.2.532,3.6,3.6,0,0,1,1.366,1.537,7.243,7.243,0,0,1,1.682-1.438,4.54,4.54,0,0,1,2.473-.63,3.946,3.946,0,0,1,3.269,1.317,5.477,5.477,0,0,1,1.059,3.534v6.868H574.35v-6.695a3.63,3.63,0,0,0-.628-2.352,2.249,2.249,0,0,0-1.833-.752,2.837,2.837,0,0,0-1.265.284,3.389,3.389,0,0,0-1.01.752,3.314,3.314,0,0,0-.663,1.094,3.746,3.746,0,0,0-.233,1.318v6.351h-2.213v-6.695a3.624,3.624,0,0,0-.629-2.352,2.215,2.215,0,0,0-1.806-.752,2.793,2.793,0,0,0-1.526.393,3.2,3.2,0,0,0-1,1.023,4.369,4.369,0,0,0-.54,1.443,8.315,8.315,0,0,0-.16,1.621v5.32Z" transform="translate(2292 2333.198)" fill="#f1e1c6"/>
      <path id="Path_255" data-name="Path 255" d="M579.538,202.008V191.289c0-.156-.009-.4-.023-.729h2.114l.073,1.724a6.024,6.024,0,0,1,.516-.652,3.967,3.967,0,0,1,.764-.652,4.319,4.319,0,0,1,1.044-.5,4.513,4.513,0,0,1,1.391-.2,4.169,4.169,0,0,1,2.2.532,3.6,3.6,0,0,1,1.366,1.537,7.244,7.244,0,0,1,1.682-1.438,4.541,4.541,0,0,1,2.473-.63,3.946,3.946,0,0,1,3.269,1.317,5.477,5.477,0,0,1,1.059,3.534v6.868h-2.213v-6.695a3.63,3.63,0,0,0-.628-2.352,2.249,2.249,0,0,0-1.833-.752,2.838,2.838,0,0,0-1.265.284,3.388,3.388,0,0,0-1.01.752,3.314,3.314,0,0,0-.663,1.094,3.746,3.746,0,0,0-.233,1.318v6.351h-2.213v-6.695a3.636,3.636,0,0,0-.627-2.352,2.222,2.222,0,0,0-1.808-.752,2.793,2.793,0,0,0-1.526.393,3.22,3.22,0,0,0-1,1.023,4.369,4.369,0,0,0-.54,1.443,8.315,8.315,0,0,0-.16,1.621v5.32Z" transform="translate(2292 2333.198)" fill="#f1e1c6"/>
      <path id="Path_256" data-name="Path 256" d="M600.392,186.035h2.484v2.487h-2.484Zm.147,4.532h2.213v11.448h-2.213Z" transform="translate(2292 2333.194)" fill="#f1e1c6"/>
      <path id="Path_257" data-name="Path 257" d="M606.637,199.127a4.635,4.635,0,0,0,1.477.985,4.98,4.98,0,0,0,1.991.369,4.192,4.192,0,0,0,1.846-.358,1.177,1.177,0,0,0,.736-1.12,1.347,1.347,0,0,0-.16-.675,1.416,1.416,0,0,0-.54-.507,4.738,4.738,0,0,0-1.009-.405q-.629-.186-1.563-.406a9.57,9.57,0,0,1-1.314-.392,4.393,4.393,0,0,1-1.17-.654,3.243,3.243,0,0,1-.834-.985,2.829,2.829,0,0,1-.32-1.39,2.765,2.765,0,0,1,.382-1.464,3.36,3.36,0,0,1,1.018-1.06,4.942,4.942,0,0,1,1.44-.652,6.194,6.194,0,0,1,1.661-.222,7.3,7.3,0,0,1,2.494.382,5.728,5.728,0,0,1,1.833,1.071l-1.2,1.525a4.477,4.477,0,0,0-1.289-.786,4.733,4.733,0,0,0-1.81-.32,3.592,3.592,0,0,0-1.7.343,1.187,1.187,0,0,0-.639,1.132,1.167,1.167,0,0,0,.848,1.1,14.12,14.12,0,0,0,2.225.678,13.368,13.368,0,0,1,1.513.454,4.632,4.632,0,0,1,1.228.665,2.981,2.981,0,0,1,.838,1,3.067,3.067,0,0,1,.307,1.429,2.878,2.878,0,0,1-.394,1.513,3.438,3.438,0,0,1-1.057,1.1,4.976,4.976,0,0,1-1.523.664,7.185,7.185,0,0,1-1.8.222,6.338,6.338,0,0,1-4.87-1.747Z" transform="translate(2292 2333.198)" fill="#f1e1c6"/>
      <path id="Path_258" data-name="Path 258" d="M618.244,199.127a4.635,4.635,0,0,0,1.477.985,4.98,4.98,0,0,0,1.991.369,4.192,4.192,0,0,0,1.846-.358,1.177,1.177,0,0,0,.736-1.12,1.346,1.346,0,0,0-.16-.675,1.416,1.416,0,0,0-.54-.507,4.738,4.738,0,0,0-1.009-.405q-.629-.186-1.563-.406a9.57,9.57,0,0,1-1.314-.392,4.393,4.393,0,0,1-1.17-.654,3.243,3.243,0,0,1-.834-.985,2.83,2.83,0,0,1-.32-1.39,2.765,2.765,0,0,1,.382-1.464,3.36,3.36,0,0,1,1.018-1.06,4.942,4.942,0,0,1,1.44-.652,6.194,6.194,0,0,1,1.661-.222,7.3,7.3,0,0,1,2.494.382,5.728,5.728,0,0,1,1.833,1.071l-1.2,1.525a4.477,4.477,0,0,0-1.289-.786,4.733,4.733,0,0,0-1.81-.32,3.592,3.592,0,0,0-1.7.343,1.187,1.187,0,0,0-.639,1.132,1.167,1.167,0,0,0,.848,1.1,14.12,14.12,0,0,0,2.225.678,13.368,13.368,0,0,1,1.513.454,4.632,4.632,0,0,1,1.228.665,2.98,2.98,0,0,1,.838,1,3.067,3.067,0,0,1,.307,1.429,2.878,2.878,0,0,1-.394,1.513,3.445,3.445,0,0,1-1.059,1.1,4.943,4.943,0,0,1-1.521.664,7.185,7.185,0,0,1-1.8.222,6.338,6.338,0,0,1-4.87-1.747Z" transform="translate(2292 2333.198)" fill="#f1e1c6"/>
      <path id="Path_259" data-name="Path 259" d="M629.064,186.035h2.484v2.487h-2.484Zm.148,4.532h2.213v11.448h-2.213Z" transform="translate(2292 2333.194)" fill="#f1e1c6"/>
      <path id="Path_260" data-name="Path 260" d="M640.081,202.353a6.042,6.042,0,0,1-2.435-.48,5.753,5.753,0,0,1-1.906-1.315,6.286,6.286,0,0,1-1.254-1.933,6.3,6.3,0,0,1,0-4.7,6.262,6.262,0,0,1,1.254-1.933,5.783,5.783,0,0,1,1.906-1.315,6.344,6.344,0,0,1,4.844,0,5.911,5.911,0,0,1,1.919,1.315,6.086,6.086,0,0,1,1.722,4.283,6.076,6.076,0,0,1-.455,2.352,6.164,6.164,0,0,1-1.267,1.933,5.88,5.88,0,0,1-1.919,1.315,5.985,5.985,0,0,1-2.409.48m0-1.92a3.547,3.547,0,0,0,1.6-.356,3.766,3.766,0,0,0,1.2-.936,4.053,4.053,0,0,0,.751-1.328,4.7,4.7,0,0,0,.258-1.541,4.6,4.6,0,0,0-.258-1.513,4.038,4.038,0,0,0-.764-1.341,3.839,3.839,0,0,0-1.2-.949,3.453,3.453,0,0,0-1.586-.356,3.525,3.525,0,0,0-1.6.356,3.745,3.745,0,0,0-1.2.936,4.057,4.057,0,0,0-.753,1.328,4.736,4.736,0,0,0-.258,1.539,4.631,4.631,0,0,0,.258,1.528,4.143,4.143,0,0,0,.764,1.328,3.862,3.862,0,0,0,1.2.949,3.48,3.48,0,0,0,1.588.356" transform="translate(2292 2333.198)" fill="#f1e1c6"/>
      <path id="Path_261" data-name="Path 261" d="M648.639,202.008V191.289c0-.156-.009-.4-.023-.729h2.114l.073,1.724c.147-.2.328-.414.54-.652a3.755,3.755,0,0,1,.789-.652,4.674,4.674,0,0,1,1.093-.5,4.754,4.754,0,0,1,1.415-.2,4.071,4.071,0,0,1,3.32,1.307,5.372,5.372,0,0,1,1.082,3.544v6.868h-2.213v-6.695a3.4,3.4,0,0,0-.689-2.352,2.5,2.5,0,0,0-1.942-.752,3.01,3.01,0,0,0-1.6.393,3.114,3.114,0,0,0-1.023,1.023,4.566,4.566,0,0,0-.552,1.429,7.715,7.715,0,0,0-.173,1.634v5.32Z" transform="translate(2292 2333.198)" fill="#f1e1c6"/>
      <path id="Path_262" data-name="Path 262" d="M164.545,155.454l-1.509-1.534-1.506,1.534,1.506,1.534Z" transform="translate(2292 2333.16)" fill="#f1e1c6"/>
      <path id="Path_263" data-name="Path 263" d="M160.994,155.454l-1.509-1.534-1.506,1.534,1.506,1.534Z" transform="translate(2292 2333.16)" fill="#f1e1c6"/>
      <path id="Path_264" data-name="Path 264" d="M272.27,173.966l1.509,1.534,1.506-1.534-1.506-1.534Z" transform="translate(2292 2333.18)" fill="#f1e1c6"/>
      <path id="Path_265" data-name="Path 265" d="M278.863,164.266a4.14,4.14,0,0,1-.7-.182c-.261-.089-.559-.2-.89-.343s-.717-.3-1.155-.5q-.806-.365-1.4-.609a10.863,10.863,0,0,0-1.058-.378,7.7,7.7,0,0,0-.839-.194,4.931,4.931,0,0,0-.74-.059,3.679,3.679,0,0,0-1.983.523,4.548,4.548,0,0,0-1.5,1.693l1.121.875a3.726,3.726,0,0,1,.96-.8,2.3,2.3,0,0,1,1.058-.218,3.8,3.8,0,0,1,.658.06,6.838,6.838,0,0,1,.776.194q.439.132,1.023.361t1.385.569l1.242.532a12.532,12.532,0,0,0-1.326.5q-.695.306-1.542.72c-.636.326-1.219.6-1.753.831a13.617,13.617,0,0,1-1.508.553,10.177,10.177,0,0,1-1.377.3,9.339,9.339,0,0,1-1.372.1h-1.946a3.471,3.471,0,0,1-1.835-.4,1.388,1.388,0,0,1-.278-.215,5.6,5.6,0,0,0,.094-1.015,6.136,6.136,0,0,0-.316-1.984,6.033,6.033,0,0,0-.84-1.645,4.148,4.148,0,0,0-1.228-1.12,2.9,2.9,0,0,0-1.485-.411,3.019,3.019,0,0,0-1.884.645,6.555,6.555,0,0,0-1.618,2.034l-1.361,2.433a5,5,0,0,1-.538.8,2.48,2.48,0,0,1-.57.513,2.058,2.058,0,0,1-.681.279,3.75,3.75,0,0,1-.84.086H167a2.655,2.655,0,0,1-1.726-.451,1.8,1.8,0,0,1-.51-1.5l.1-8.255-1.921.339v1.487a10.737,10.737,0,0,0-4.588,1.923,3.963,3.963,0,0,0-1.641,3.189,3.065,3.065,0,0,0,.316,1.4,3.022,3.022,0,0,0,.852,1.034,3.845,3.845,0,0,0,1.252.635,5.293,5.293,0,0,0,1.545.217,4.772,4.772,0,0,0,2.41-.583q.412,2.749,3.915,2.751h85.613a4.247,4.247,0,0,0,1.969-.424,4.109,4.109,0,0,0,1.486-1.4,5.27,5.27,0,0,0,1.811,1.474,5.139,5.139,0,0,0,2.3.524,3.664,3.664,0,0,0,2.785-1.06c.028-.029.047-.068.072-.1a2.971,2.971,0,0,0,.549.414,4.658,4.658,0,0,0,2.407.573h1.946a9.759,9.759,0,0,0,1.556-.121,10.382,10.382,0,0,0,1.568-.389,13.382,13.382,0,0,0,1.752-.733c.623-.307,1.328-.682,2.1-1.117.583-.341,1.108-.633,1.569-.867s.888-.44,1.276-.62.764-.329,1.12-.45.722-.231,1.1-.329v-2.044h-.488a4.168,4.168,0,0,1-.632-.049M160.97,166.7a5.461,5.461,0,0,1-.986-.085,3.081,3.081,0,0,1-.839-.267,1.5,1.5,0,0,1-.572-.476,1.226,1.226,0,0,1-.207-.73,1.494,1.494,0,0,1,.378-.985,3.473,3.473,0,0,1,1.02-.806,6.889,6.889,0,0,1,1.475-.583,10.706,10.706,0,0,1,1.726-.329l.049,3.92a5.607,5.607,0,0,1-2.044.341m99.357,2.337a4.12,4.12,0,0,1-1.884-.461,3.934,3.934,0,0,1-1.426-1.17l.756-1.46q.9-1.778,2.213-1.777a1.829,1.829,0,0,1,.887.23,2.527,2.527,0,0,1,.756.633,2.944,2.944,0,0,1,.51.938,3.458,3.458,0,0,1,.181,1.119,1.9,1.9,0,0,1-.533,1.438,2.035,2.035,0,0,1-1.46.511" transform="translate(2292 2333.165)" fill="#f1e1c6"/>
      <path id="Path_266" data-name="Path 266" d="M297.642,160.66l-1.509-1.536-1.506,1.536,1.506,1.534Z" transform="translate(2292 2333.166)" fill="#f1e1c6"/>
      <path id="Path_267" data-name="Path 267" d="M301.193,160.66l-1.509-1.536-1.506,1.536,1.506,1.534Z" transform="translate(2292 2333.166)" fill="#f1e1c6"/>
      <path id="Path_268" data-name="Path 268" d="M305.961,167.556a.776.776,0,0,1-.257.584,1.829,1.829,0,0,1-.655.39,4.067,4.067,0,0,1-.914.207,8.462,8.462,0,0,1-1.019.062h-1.947q-2.9,0-2.9-1.511c0-.13.032-.478.1-1.049s.137-1.191.219-1.873l-1.655-.2c-.031.211-.064.456-.1.733s-.073.551-.121.826-.1.548-.149.819-.088.489-.121.669a1.7,1.7,0,0,1-.961,1.215,5.682,5.682,0,0,1-2.346.367H291.2a6,6,0,0,1-1-.073,1.816,1.816,0,0,1-.7-.271,1.875,1.875,0,0,1-.51-.511,3.944,3.944,0,0,1-.412-.8c-.117-.258-.274-.69-.478-1.29s-.4-1.2-.6-1.8l-1.825.855q.465,1.387.818,2.313a13.787,13.787,0,0,0,.691,1.557,4.886,4.886,0,0,1-1.9,2.8,15.451,15.451,0,0,1-4.3,2.36l1.116,1.925a13.126,13.126,0,0,0,4.211-2.373,7,7,0,0,0,2.189-3.2,4.706,4.706,0,0,0,2.7.71h1.947a7.319,7.319,0,0,0,2.638-.429,3.1,3.1,0,0,0,1.594-1.2c.63,1.085,1.9,1.633,3.8,1.633h1.947a7.793,7.793,0,0,0,1.687-.182,4.362,4.362,0,0,0,1.46-.611,3.309,3.309,0,0,0,1.048-1.119,3.4,3.4,0,0,0,.4-1.718l.1-12.079-1.922.339Z" transform="translate(2292 2333.162)" fill="#f1e1c6"/>
      <path id="Path_269" data-name="Path 269" d="M311,170.989h1.679l.12-15.707-1.921.341Z" transform="translate(2292 2333.162)" fill="#f1e1c6"/>
      <path id="Path_270" data-name="Path 270" d="M319.46,161.995a3.359,3.359,0,0,0-1.53.354,3.624,3.624,0,0,0-1.218.985,4.844,4.844,0,0,0-.8,1.5,5.957,5.957,0,0,0-.292,1.887,4.344,4.344,0,0,0,.973,2.948,3.244,3.244,0,0,0,2.578,1.119,4.7,4.7,0,0,0,1.376-.194,3.6,3.6,0,0,0,1.129-.56q-.8,3.092-6.056,3.824l.877,2a9.743,9.743,0,0,0,2.87-.842,7.571,7.571,0,0,0,2.2-1.57,6.706,6.706,0,0,0,1.411-2.192,7.19,7.19,0,0,0,.5-2.7,9.244,9.244,0,0,0-1.056-4.832,3.31,3.31,0,0,0-2.958-1.718m1.351,6.625a4.612,4.612,0,0,1-1.327.194,2.292,2.292,0,0,1-1.639-.56,2.06,2.06,0,0,1-.6-1.583,2.767,2.767,0,0,1,.6-1.851,1.975,1.975,0,0,1,3.258.34,6.558,6.558,0,0,1,.715,2.972,2.97,2.97,0,0,1-1.007.487" transform="translate(2292 2333.169)" fill="#f1e1c6"/>
      <path id="Path_271" data-name="Path 271" d="M436.747,161.123l1.509-1.534-1.509-1.534-1.509,1.534Z" transform="translate(2292 2333.165)" fill="#f1e1c6"/>
      <path id="Path_272" data-name="Path 272" d="M434.7,159.589l-1.509-1.534-1.506,1.534,1.506,1.534Z" transform="translate(2292 2333.165)" fill="#f1e1c6"/>
      <path id="Path_273" data-name="Path 273" d="M436.479,156.452l-1.509-1.534-1.506,1.534,1.506,1.534Z" transform="translate(2292 2333.161)" fill="#f1e1c6"/>
      <path id="Path_274" data-name="Path 274" d="M449.931,160.66l-1.509-1.536-1.506,1.536,1.506,1.534Z" transform="translate(2292 2333.166)" fill="#f1e1c6"/>
      <path id="Path_275" data-name="Path 275" d="M462.312,167.556a.78.78,0,0,1-.254.584,1.856,1.856,0,0,1-.657.39,4.055,4.055,0,0,1-.914.207,8.516,8.516,0,0,1-1.02.062h-7.785q-2.894,0-2.9-1.511c0-.13.032-.478.1-1.049s.138-1.191.22-1.873l-1.654-.2c-.032.211-.064.456-.1.733s-.073.551-.122.826-.1.548-.145.819-.09.489-.122.669a1.7,1.7,0,0,1-.96,1.215,5.7,5.7,0,0,1-2.348.367,3.474,3.474,0,0,1-1.837-.4,1.344,1.344,0,0,1-.516-.567c.01-.045.021-.081.03-.128.057-.275.1-.592.145-.948s.083-.765.121-1.218.086-.989.135-1.609l-1.654-.145c-.034.293-.066.616-.1.974s-.069.7-.109,1.036-.081.637-.122.915-.077.485-.109.63q-.291,1.487-2.189,1.488a2.592,2.592,0,0,1-1.569-.4,1.313,1.313,0,0,1-.548-1.13c0-.13.032-.478.1-1.049s.137-1.191.218-1.873l-1.654-.2c-.034.211-.064.456-.1.733s-.075.551-.122.826-.1.548-.147.819-.09.489-.122.669q-.316,1.605-2.358,1.607a2.751,2.751,0,0,1-1.85-.563,2.228,2.228,0,0,1-.452-.56q.249-.865.478-2.044l-1.584-.438c-.226.778-.433,1.406-.619,1.876a3.4,3.4,0,0,1-.618,1.07,1.694,1.694,0,0,1-.818.488,5.751,5.751,0,0,1-1.227.147H338.849a6.007,6.007,0,0,1-1-.073,1.808,1.808,0,0,1-.706-.271,1.861,1.861,0,0,1-.51-.511,4.046,4.046,0,0,1-.414-.8c-.113-.258-.271-.69-.474-1.29s-.4-1.2-.6-1.8l-1.825.855q.461,1.387.815,2.313a13.755,13.755,0,0,0,.694,1.557,4.886,4.886,0,0,1-1.9,2.8,15.407,15.407,0,0,1-4.307,2.36l1.121,1.925a13.131,13.131,0,0,0,4.208-2.373,7,7,0,0,0,2.189-3.2,4.706,4.706,0,0,0,2.7.71h85.614a8.357,8.357,0,0,0,1.983-.244,2.8,2.8,0,0,0,1.325-.8,3.321,3.321,0,0,0,.3-.391,2.858,2.858,0,0,0,.565.671,3.665,3.665,0,0,0,2.444.77,4.709,4.709,0,0,0,1.837-.342,3.326,3.326,0,0,0,1.325-.974,3.473,3.473,0,0,0,3.018,1.316,3.973,3.973,0,0,0,3.214-1.218,3.037,3.037,0,0,0,.776.643,4.631,4.631,0,0,0,2.407.576,7.3,7.3,0,0,0,2.638-.429,3.1,3.1,0,0,0,1.594-1.2c.632,1.085,1.9,1.633,3.794,1.633h7.785a7.782,7.782,0,0,0,1.688-.182,4.37,4.37,0,0,0,1.46-.611,3.318,3.318,0,0,0,1.048-1.119,3.4,3.4,0,0,0,.4-1.718l.1-12.079-1.921.339Z" transform="translate(2292 2333.162)" fill="#f1e1c6"/>
      <path id="Path_276" data-name="Path 276" d="M467.347,170.989h1.679l.122-15.707-1.923.341Z" transform="translate(2292 2333.162)" fill="#f1e1c6"/>
      <path id="Path_277" data-name="Path 277" d="M475.811,161.995a3.362,3.362,0,0,0-1.53.354,3.624,3.624,0,0,0-1.218.985,4.84,4.84,0,0,0-.8,1.5,5.846,5.846,0,0,0-.293,1.887,4.344,4.344,0,0,0,.972,2.948,3.246,3.246,0,0,0,2.579,1.119,4.692,4.692,0,0,0,1.375-.194,3.607,3.607,0,0,0,1.13-.56q-.8,3.092-6.056,3.824l.876,2a9.727,9.727,0,0,0,2.869-.842,7.549,7.549,0,0,0,2.2-1.57,6.744,6.744,0,0,0,1.413-2.192,7.229,7.229,0,0,0,.5-2.7,9.223,9.223,0,0,0-1.059-4.832,3.3,3.3,0,0,0-2.956-1.718m1.352,6.625a4.619,4.619,0,0,1-1.328.194,2.289,2.289,0,0,1-1.638-.56,2.057,2.057,0,0,1-.6-1.583,2.762,2.762,0,0,1,.6-1.851,1.974,1.974,0,0,1,3.257.34,6.582,6.582,0,0,1,.717,2.972,3,3,0,0,1-1.008.487" transform="translate(2292 2333.169)" fill="#f1e1c6"/>
      <path id="Path_278" data-name="Path 278" d="M502.644,164.225q-.2-.766-.45-1.511a8.718,8.718,0,0,0-.572-1.326l-1.75.974a13.444,13.444,0,0,1,.583,1.292q.269.68.473,1.348a11.1,11.1,0,0,1,.318,1.279,6.336,6.336,0,0,1,.109,1.072c0,.212-.175.41-.523.6a6.222,6.222,0,0,1-1.41.5,15.406,15.406,0,0,1-2.094.339,25.523,25.523,0,0,1-2.565.122,21.845,21.845,0,0,1-2.979-.171,7.309,7.309,0,0,1-2.008-.521,2.463,2.463,0,0,1-1.131-.928,2.547,2.547,0,0,1-.354-1.375,5.594,5.594,0,0,1,.207-1.411,10.568,10.568,0,0,1,.6-1.633l-1.287-.633a11.121,11.121,0,0,0-1,2.277,7.441,7.441,0,0,0-.364,2.179,3.94,3.94,0,0,0,.486,2.008,3.714,3.714,0,0,0,1.509,1.388,8.33,8.33,0,0,0,2.591.8,23.449,23.449,0,0,0,3.734.257,15.394,15.394,0,0,0,6.276-.962,3.142,3.142,0,0,0,2.019-2.984,10.075,10.075,0,0,0-.111-1.436,14.278,14.278,0,0,0-.3-1.547" transform="translate(2292 2333.168)" fill="#f1e1c6"/>
      <path id="Path_279" data-name="Path 279" d="M493.254,174.453l1.509,1.534,1.506-1.534-1.506-1.534Z" transform="translate(2292 2333.18)" fill="#f1e1c6"/>
      <path id="Path_280" data-name="Path 280" d="M512.156,164.372a11.967,11.967,0,0,0-1.242-1.837,14.909,14.909,0,0,0-1.628-1.707l-1.509,1.438a16.407,16.407,0,0,1,1.5,1.5,13.168,13.168,0,0,1,1.189,1.57,8.556,8.556,0,0,1,.781,1.511,3.705,3.705,0,0,1,.279,1.29c0,.1-.109.2-.328.305a3.821,3.821,0,0,1-.865.267c-.356.072-.766.134-1.229.181a13.485,13.485,0,0,1-1.421.075q-.682,0-1.426-.062a12.937,12.937,0,0,1-1.374-.181l.463,2.264c.325.047.711.087,1.155.121s.841.047,1.182.047a9.165,9.165,0,0,0,4.245-.728,2.55,2.55,0,0,0,1.3-2.41,6.192,6.192,0,0,0-.279-1.78,9.851,9.851,0,0,0-.79-1.863" transform="translate(2292 2333.167)" fill="#f1e1c6"/>
      <path id="Path_281" data-name="Path 281" d="M521.472,163.733a15.874,15.874,0,0,0,1.594-3.98,18.95,18.95,0,0,0,.57-4.471l-1.921.341a20.115,20.115,0,0,1-.365,3.762,12.581,12.581,0,0,1-1.022,3.057c-.356-.42-.745-.865-1.167-1.328s-.86-.925-1.315-1.386-.9-.906-1.348-1.329-.873-.8-1.279-1.144l-1.361,1.632a30.466,30.466,0,0,1,2.859,2.386q1.422,1.342,2.662,2.753c-.291.421-.606.853-.946,1.288s-.7.868-1.06,1.279-.732.808-1.108,1.182a14.04,14.04,0,0,1-1.1,1l.318,1.8a6.242,6.242,0,0,0,1.618.425,13.662,13.662,0,0,0,2.1.158,6.993,6.993,0,0,0,3.491-.7,2.223,2.223,0,0,0,1.2-2.021,4.486,4.486,0,0,0-.559-1.961,16.656,16.656,0,0,0-1.874-2.739m-.049,5.1a6.091,6.091,0,0,1-2.019.28c-.356,0-.7-.013-1.02-.037a5.832,5.832,0,0,1-.9-.134,18.564,18.564,0,0,0,1.607-1.718,23.606,23.606,0,0,0,1.437-1.935q.364.438.668.865c.2.284.377.552.522.8a7.177,7.177,0,0,1,.352.682,1.332,1.332,0,0,1,.133.477c0,.292-.258.532-.777.718" transform="translate(2292 2333.162)" fill="#f1e1c6"/>
      <path id="Path_282" data-name="Path 282" d="M517.142,153.631q-.339.026-.7.073t-.779.121a2.318,2.318,0,0,1-1.01-.316.713.713,0,0,1-.377-.609.69.69,0,0,1,.279-.562,1.139,1.139,0,0,1,.717-.218,1.5,1.5,0,0,1,.779.218l.487-.7a1.732,1.732,0,0,0-1.362-.609,1.847,1.847,0,0,0-1.338.547,1.788,1.788,0,0,0-.559,1.326,1.464,1.464,0,0,0,.8,1.339c-.177.064-.362.13-.559.194s-.4.139-.631.22l.341.876a16.325,16.325,0,0,1,3.747-.729Z" transform="translate(2292 2333.157)" fill="#f1e1c6"/>
      <path id="Path_283" data-name="Path 283" d="M526.677,170.989h1.679l.122-15.707-1.923.341Z" transform="translate(2292 2333.162)" fill="#f1e1c6"/>
      <path id="Path_284" data-name="Path 284" d="M539.595,155.454l-1.509-1.534-1.506,1.534,1.506,1.534Z" transform="translate(2292 2333.16)" fill="#f1e1c6"/>
      <path id="Path_285" data-name="Path 285" d="M543.146,155.454l-1.509-1.534-1.506,1.534,1.506,1.534Z" transform="translate(2292 2333.16)" fill="#f1e1c6"/>
      <path id="Path_286" data-name="Path 286" d="M631.946,161.562l.341.876a16.372,16.372,0,0,1,3.746-.731l.17-1.166c-.226.015-.463.041-.7.072s-.506.073-.781.122a2.3,2.3,0,0,1-1.007-.318.712.712,0,0,1-.378-.609.685.685,0,0,1,.28-.56,1.128,1.128,0,0,1,.717-.218,1.5,1.5,0,0,1,.779.218l.486-.7a1.726,1.726,0,0,0-1.361-.612,1.852,1.852,0,0,0-1.341.552,1.787,1.787,0,0,0-.559,1.324,1.462,1.462,0,0,0,.8,1.339c-.179.066-.367.13-.561.194s-.406.139-.632.22" transform="translate(2292 2333.165)" fill="#f1e1c6"/>
      <path id="Path_287" data-name="Path 287" d="M640.216,174.453l1.509,1.534,1.506-1.534-1.506-1.534Z" transform="translate(2292 2333.18)" fill="#f1e1c6"/>
      <path id="Path_288" data-name="Path 288" d="M643.768,174.453l1.509,1.534,1.506-1.534-1.506-1.534Z" transform="translate(2292 2333.18)" fill="#f1e1c6"/>
      <path id="Path_289" data-name="Path 289" d="M659.275,164.47a8.755,8.755,0,0,0-1.361-2.459,10.464,10.464,0,0,0-2.141-2.034,11.517,11.517,0,0,0-2.813-1.462l-.823,1.876a10.491,10.491,0,0,1,2.443,1.207,8.582,8.582,0,0,1,1.885,1.692,7.551,7.551,0,0,1,1.2,2.034,6.091,6.091,0,0,1,.425,2.251c0,.373-.258.675-.777.9a5.015,5.015,0,0,1-1.995.34c-.194,0-.382-.005-.561-.013s-.357-.019-.534-.036a3.712,3.712,0,0,0,1.193-2.825,4.311,4.311,0,0,0-.269-1.521,4,4,0,0,0-.743-1.254,3.456,3.456,0,0,0-1.1-.841,3.207,3.207,0,0,0-2.727,0,3.482,3.482,0,0,0-1.106.841,4.1,4.1,0,0,0-.742,1.241,4.29,4.29,0,0,0-.267,1.534,3.748,3.748,0,0,0,1.144,2.752c-.357.034-.728.058-1.121.073s-.793.025-1.214.025q-2.894,0-2.9-1.508c0-.131.032-.481.1-1.049s.136-1.194.217-1.876l-1.652-.194c-.034.211-.066.454-.1.731s-.072.553-.121.829-.1.547-.148.816-.089.49-.121.671a1.7,1.7,0,0,1-.961,1.215,5.7,5.7,0,0,1-2.345.365H637.3q-2.9,0-2.9-1.508c0-.131.032-.481.1-1.049s.137-1.194.22-1.876l-1.656-.194q-.048.317-.1.731c-.034.277-.075.553-.122.829s-.1.547-.147.816-.087.49-.119.671a1.7,1.7,0,0,1-.963,1.215,5.706,5.706,0,0,1-2.347.365H545.6a2.671,2.671,0,0,1-1.729-.45,1.8,1.8,0,0,1-.51-1.5l.1-8.257-1.922.344v1.483a10.745,10.745,0,0,0-4.584,1.924,3.963,3.963,0,0,0-1.643,3.192,3.031,3.031,0,0,0,1.167,2.435,3.882,3.882,0,0,0,1.252.633,5.318,5.318,0,0,0,1.545.218,4.772,4.772,0,0,0,2.408-.584q.415,2.752,3.916,2.75h83.67a7.337,7.337,0,0,0,2.638-.425,3.1,3.1,0,0,0,1.594-1.2q.946,1.629,3.794,1.629h1.948a7.344,7.344,0,0,0,2.638-.425,3.117,3.117,0,0,0,1.594-1.2q.948,1.629,3.794,1.629a12.067,12.067,0,0,0,2.239-.229,15.572,15.572,0,0,0,2.309-.622,10.006,10.006,0,0,0,1.8.622,7.5,7.5,0,0,0,1.775.229,4.771,4.771,0,0,0,3.212-.985,3.478,3.478,0,0,0,1.144-2.786,8.057,8.057,0,0,0-.476-2.743M539.57,166.7a5.405,5.405,0,0,1-.984-.086,3.015,3.015,0,0,1-.839-.266,1.508,1.508,0,0,1-.574-.474,1.23,1.23,0,0,1-.207-.729,1.508,1.508,0,0,1,.378-.989,3.512,3.512,0,0,1,1.022-.8,6.881,6.881,0,0,1,1.473-.588,10.675,10.675,0,0,1,1.724-.326l.049,3.919a5.557,5.557,0,0,1-2.042.34m112.347,1.487a3.96,3.96,0,0,1-1.413-.961,1.882,1.882,0,0,1-.51-1.28,1.914,1.914,0,0,1,.559-1.411,1.987,1.987,0,0,1,2.775.01,1.938,1.938,0,0,1,.559,1.4q0,1.562-1.97,2.241" transform="translate(2292 2333.165)" fill="#f1e1c6"/>
      <rect id="Rectangle_39" data-name="Rectangle 39" width="4.118" height="133.672" transform="translate(2998.02 2406.751)" fill="#f1e1c6"/>
    </g>
  </g>
</svg>
