<svg xmlns="http://www.w3.org/2000/svg" width="264.546" height="65.074" viewBox="0 0 264.546 65.074">
  <g id="Group_105" data-name="Group 105" transform="translate(-1061.727 -12078.133)">
    <g id="Group_102" data-name="Group 102">
      <path id="Path_777" data-name="Path 777" d="M1185.118,12141.691h17.764l-8.939-37.019Z" fill="#f54224"/>
      <path id="Path_778" data-name="Path 778" d="M1203.57,12101.464h22.967s-8.509-13.814-25.724-6.8l16.223-16.182s-15.815-3.783-23.036,13.408c-7.22-17.191-23.036-13.408-23.036-13.408l16.223,16.182c-17.215-7.019-25.724,6.8-25.724,6.8h22.967c-17.191,7.22-13.408,23.036-13.408,23.036l22.978-23.036,22.978,23.036S1220.761,12108.684,1203.57,12101.464Z" fill="#f54224"/>
    </g>
    <g id="Group_103" data-name="Group 103">
      <path id="Path_779" data-name="Path 779" d="M1310,12078.133h-32.537l16.268,16.269Z" fill="#f54224"/>
      <path id="Path_780" data-name="Path 780" d="M1293.735,12094.4H1261.2l16.269,16.269Z" fill="#f54224"/>
      <path id="Path_781" data-name="Path 781" d="M1326.273,12094.4h-32.537L1310,12110.67Z" fill="#f54224"/>
      <path id="Path_782" data-name="Path 782" d="M1310,12110.67h-32.537l16.268,16.269Z" fill="#f54224"/>
      <path id="Path_783" data-name="Path 783" d="M1277.467,12143.207H1310l-16.269-16.269Z" fill="#f54224"/>
      <path id="Path_784" data-name="Path 784" d="M1261.2,12126.938h32.537l-16.268-16.269Z" fill="#f54224"/>
      <path id="Path_785" data-name="Path 785" d="M1293.736,12126.938h32.537L1310,12110.669Z" fill="#f54224"/>
      <path id="Path_786" data-name="Path 786" d="M1277.467,12110.67H1310l-16.269-16.269Z" fill="#f54224"/>
    </g>
    <g id="Group_104" data-name="Group 104">
      <path id="Path_787" data-name="Path 787" d="M1110.533,12078.133H1078l16.269,16.269Z" fill="#f54224"/>
      <path id="Path_788" data-name="Path 788" d="M1094.264,12094.4h-32.537L1078,12110.67Z" fill="#f54224"/>
      <path id="Path_789" data-name="Path 789" d="M1126.8,12094.4h-32.537l16.268,16.269Z" fill="#f54224"/>
      <path id="Path_790" data-name="Path 790" d="M1110.533,12110.67H1078l16.269,16.269Z" fill="#f54224"/>
      <path id="Path_791" data-name="Path 791" d="M1078,12143.207h32.537l-16.268-16.269Z" fill="#f54224"/>
      <path id="Path_792" data-name="Path 792" d="M1061.727,12126.938h32.537L1078,12110.67Z" fill="#f54224"/>
      <path id="Path_793" data-name="Path 793" d="M1094.265,12126.938H1126.8l-16.269-16.269Z" fill="#f54224"/>
      <path id="Path_794" data-name="Path 794" d="M1078,12110.67h32.537l-16.268-16.269Z" fill="#f54224"/>
    </g>
  </g>
</svg>
