<svg xmlns="http://www.w3.org/2000/svg" width="1103.115" height="190.03" viewBox="0 0 1103.115 190.03">
  <g id="Group_166" data-name="Group 166" transform="translate(-435.046 -133.573)">
    <g id="Group_163" data-name="Group 163">
      <g id="Group_162" data-name="Group 162">
        <g id="Group_161" data-name="Group 161">
          <g id="Group_108" data-name="Group 108">
            <path id="Path_147" data-name="Path 147" d="M1331.266,236.534h0l-4.981,4.961c-.1,0-.1.2,0,.2l4.981,4.961c0,.1.2.1.2,0l4.983-4.961c.1,0,.1-.2,0-.2l-4.983-4.961C1331.469,236.433,1331.266,236.433,1331.266,236.534Z" fill="#90782e"/>
          </g>
          <g id="Group_109" data-name="Group 109">
            <path id="Path_148" data-name="Path 148" d="M1314.694,153.825h0c.1.094.3.094.3,0l4.983-4.965a.2.2,0,0,0,0-.311L1315,143.6c0-.108-.2-.108-.3,0l-4.881,4.951a.2.2,0,0,0,0,.311Z" fill="#e44e33"/>
          </g>
          <g id="Group_110" data-name="Group 110">
            <path id="Path_149" data-name="Path 149" d="M1415.857,205.047h0l-5.287,5.265-5.287-5.265,5.287-5.265Z" fill="#e44e33"/>
          </g>
          <g id="Group_111" data-name="Group 111">
            <path id="Path_150" data-name="Path 150" d="M1403.961,205.047h0l-5.287,5.265-5.286-5.265,5.286-5.265Z" fill="#e44e33"/>
          </g>
          <g id="Group_112" data-name="Group 112">
            <path id="Path_151" data-name="Path 151" d="M1455.91,252.53h0l-5.285,5.265-5.285-5.265,5.285-5.265Z" fill="#e44e33"/>
          </g>
          <g id="Group_113" data-name="Group 113">
            <path id="Path_152" data-name="Path 152" d="M1444.026,252.53h0l-5.3,5.265-5.282-5.265,5.282-5.265Z" fill="#e44e33"/>
          </g>
          <g id="Group_114" data-name="Group 114">
            <path id="Path_153" data-name="Path 153" d="M1427.447,177.409h0l-5.286,5.262-5.287-5.262,5.287-5.262Z" fill="#90782e"/>
          </g>
          <g id="Group_115" data-name="Group 115">
            <path id="Path_154" data-name="Path 154" d="M1415.552,245.544h0c-2.745,0-4.982-.3-4.982,2.025v3.747h-14.337v2.328h21.962v-8.2S1415.857,245.544,1415.552,245.544Zm0,5.772h-2.135a3.136,3.136,0,0,1,.2-2.025,4.171,4.171,0,0,1,1.932-.3Z" fill="#90782e"/>
          </g>
          <g id="Group_116" data-name="Group 116">
            <path id="Path_155" data-name="Path 155" d="M1344.28,168.8h91.8a.437.437,0,0,0,.407-.4V150.479a.436.436,0,0,0-.407-.4l-3.554.094a39.019,39.019,0,0,1-6-.4,25.238,25.238,0,0,1-7.726-2.024c-3.56-1.417-5.389-3.441-8.338-5.869l-2.135,2.428s5.694,5.775,9.963,7.084a59.551,59.551,0,0,0,11.9,1.929c.2,0,.3.2.3.4v3.751a.371.371,0,0,1-.406.4h-83.777a1.866,1.866,0,0,1-1.933-1.929V133.87c0-.2-.2-.3-.406-.3h-5.083c-.306,0-.408.1-.408.3v29.156A5.722,5.722,0,0,0,1344.28,168.8Z" fill="#040505"/>
          </g>
          <g id="Group_117" data-name="Group 117">
            <path id="Path_156" data-name="Path 156" d="M1307.983,178.717h16.674a8.392,8.392,0,0,0,8.439-8.392V148.347c0-.3-.1-.4-.406-.4H1327.5a.375.375,0,0,0-.406.4v17.108a2.358,2.358,0,0,1-2.339,2.334h-15.251a4.5,4.5,0,0,1-4.473-4.453v-5.167a.372.372,0,0,0-.407-.4h-5.084a.371.371,0,0,0-.406.4v11.752A8.824,8.824,0,0,0,1307.983,178.717Z" fill="#040505"/>
          </g>
          <g id="Group_118" data-name="Group 118">
            <path id="Path_157" data-name="Path 157" d="M1535.925,265.59h-15.759c-4.77.1-4.268,4.759-4.363,10.63-.109,9.619,0,10.834,0,10.834h13.726v4.557a2.383,2.383,0,0,1-2.344,2.429h-6.911a.468.468,0,0,0-.515.4v9.01a.467.467,0,0,0,.515.4h5.895a10.2,10.2,0,0,0,10.271-10.124V265.995A.467.467,0,0,0,1535.925,265.59Zm-6.4,10.529h-6c0-.91.2-1.214.609-1.518a5.388,5.388,0,0,1,5.393.1Z" fill="#040505"/>
          </g>
          <g id="Group_119" data-name="Group 119">
            <path id="Path_158" data-name="Path 158" d="M1537.863,222.258h-2.344v-24.4a.438.438,0,0,0-.407-.4h-5.081a.437.437,0,0,0-.407.4v34.929c0,.2.2.3.407.3h7.832a.264.264,0,0,0,.3-.3V222.562A.264.264,0,0,0,1537.863,222.258Z" fill="#040505"/>
          </g>
          <g id="Group_120" data-name="Group 120">
            <path id="Path_159" data-name="Path 159" d="M1420.94,232.787h0l.1-4.859s1.627,5.264,4.576,5.163h98.627c.2,0,.406-.1.406-.3V197.858a.436.436,0,0,0-.406-.4h-5.095a.437.437,0,0,0-.407.4v24.3h-8.631v-6.885a5.781,5.781,0,0,0-4.892-5.669h-.095a2.288,2.288,0,0,0-.813-.1l-39.96.1c2.235-.911,4.268-1.722,6-2.632,4.066-2.228,8.646-9.315,8.646-9.315l-2.751-2.024c-2.439,3.138-3.97,5.467-7.222,7.8-5.177,3.543-11.695,5.062-17.277,6.074v4.252h50.624l.109,8.4h-81.238v-9.112h-7.523v9.112l-25.825.1a1.926,1.926,0,0,1-1.932-1.924V197.858a.437.437,0,0,0-.407-.4h-5.082a.437.437,0,0,0-.408.4V227.32a5.8,5.8,0,0,0,5.9,5.771h34.569C1420.737,233.091,1420.94,232.99,1420.94,232.787Z" fill="#040505"/>
          </g>
          <g id="Group_121" data-name="Group 121">
            <path id="Path_160" data-name="Path 160" d="M1332.18,276.93h0v9.821a.479.479,0,0,1-.508.506h-31.924a.48.48,0,0,1-.509-.506v-9.922a.479.479,0,0,1,.509-.506h6.913V265.388a.568.568,0,0,1,.61-.506h3.559c6.3-.1,9.354-.708,15.455-3.442,0,0,1.321-.71,1.422-.71l2.339,4.253A17.074,17.074,0,0,1,1327,266.5c-4.169,1.316-6.2,2.228-11.9,2.734v7.087h16.572C1331.977,276.323,1332.18,276.525,1332.18,276.93Z" fill="#040505"/>
          </g>
          <g id="Group_122" data-name="Group 122">
            <path id="Path_161" data-name="Path 161" d="M1348.856,277.031h0v10.125a.372.372,0,0,1-.408.4h-7.727a.436.436,0,0,1-.406-.4v-34.93a.436.436,0,0,1,.406-.4h5.084a.436.436,0,0,1,.407.4v24.4h2.236C1348.754,276.627,1348.856,276.728,1348.856,277.031Z" fill="#040505"/>
          </g>
          <g id="Group_123" data-name="Group 123">
            <path id="Path_162" data-name="Path 162" d="M1307.881,233.091h59.579a5.8,5.8,0,0,0,5.9-5.771V209c0-.2-.2-.3-.407-.3h-5.286c-.205,0-.408.1-.408.3v11.237a1.842,1.842,0,0,1-1.829,1.924h-56.733a3.637,3.637,0,0,1-3.66-3.644v-4.556a.437.437,0,0,0-.407-.4h-5.185a.436.436,0,0,0-.407.4v10.326A8.833,8.833,0,0,0,1307.881,233.091Z" fill="#040505"/>
          </g>
          <g id="Group_124" data-name="Group 124">
            <path id="Path_163" data-name="Path 163" d="M1509.8,276.22h-2.331v-24.4c0-.2-.2-.3-.406-.3h-5.095c-.2,0-.407.1-.407.3v35.03c0,.2.2.3.407.3h7.832a.275.275,0,0,0,.312-.3V276.627C1510.112,276.424,1510,276.22,1509.8,276.22Z" fill="#040505"/>
          </g>
          <g id="Group_125" data-name="Group 125">
            <path id="Path_164" data-name="Path 164" d="M1496.277,251.518H1491.1c-.2,0-.406.1-.406.3v24.4l-34.784.1V260.832H1442.6a10.006,10.006,0,0,0-10.072,10.023v5.468H1367.46a2.166,2.166,0,0,1-2.134-2.228V263.363a.479.479,0,0,0-.508-.506h-6a.463.463,0,0,0-.406.506v28.146a2.469,2.469,0,0,1-2.441,2.429h-6.913a.465.465,0,0,0-.508.406v9.111a.464.464,0,0,0,.508.4h6a10.283,10.283,0,0,0,10.268-10.226V280.473c0,3.037,1.016,6.48,4.067,6.581l126.884.1c.2,0,.311-.1.311-.4V251.822A.273.273,0,0,0,1496.277,251.518Z" fill="#040505"/>
          </g>
          <g id="Group_126" data-name="Group 126">
            <path id="Path_165" data-name="Path 165" d="M1434.462,176.289h0V185.3a.434.434,0,0,0,.4.4h6a10.217,10.217,0,0,0,10.271-10.227V162.621c0,3.144,1.016,6.288,4.16,6.18h61.519a.437.437,0,0,0,.407-.4v-5.464l2.737,4.857a1.978,1.978,0,0,0,1.734,1.012h13.009a1.56,1.56,0,0,0,1.531-1.511V152.5s-1.531-6.585-12.1-6.072c0,0-8.238.4-10.881,11.037v.4h-10.678v-.108c0-7.285-5.582-13.154-12.507-13.154a13.93,13.93,0,0,0-11.68,6.476,1.032,1.032,0,0,0,0,.809l1.518,2.942a.54.54,0,0,0,.813.2,11.676,11.676,0,0,1,7.723-2.847c4.784,0,8.646,2.037,10.583,5.68h-5.393a6.433,6.433,0,0,0-1.829-2.536,3.575,3.575,0,0,0-4.675.108,6.93,6.93,0,0,0-1.735,2.428h-32.019a2.539,2.539,0,0,1-2.236-2.536V145.217a.466.466,0,0,0-.407-.513h-6a.48.48,0,0,0-.5.513v28.238a2.3,2.3,0,0,1-2.344,2.335h-7.019A.459.459,0,0,0,1434.462,176.289Z" fill="#040505"/>
          </g>
          <g id="Group_127" data-name="Group 127">
            <path id="Path_166" data-name="Path 166" d="M1453.267,187.635h0c-2.737,0-4.878-.2-4.878,2.023-.1,2.126-.1,2.329-.1,2.936h-15.153v2.328h22.769v-7.287Zm.109,4.959h-2.141c-.3-.81-.095-.81.2-1.215a4.361,4.361,0,0,1,1.938-.2Z" fill="#e44e33"/>
          </g>
          <g id="Group_128" data-name="Group 128">
            <path id="Path_167" data-name="Path 167" d="M1369.9,246.355h-12.2v-1.722h12.2Z" fill="#e44e33"/>
          </g>
          <g id="Group_129" data-name="Group 129">
            <path id="Path_168" data-name="Path 168" d="M1368.275,253.644h1.626v-2.329h-12.2v2.329h10.575Z" fill="#e44e33"/>
          </g>
          <g id="Group_130" data-name="Group 130">
            <path id="Path_169" data-name="Path 169" d="M1369.9,248.785h0v-.811h-2.339v5.671h2.339v-4.86Z" fill="#e44e33"/>
          </g>
          <g id="Group_131" data-name="Group 131">
            <path id="Path_170" data-name="Path 170" d="M1364.92,248.785h0v-.811h-2.339v5.671h2.339v-4.86Z" fill="#e44e33"/>
          </g>
          <g id="Group_132" data-name="Group 132">
            <path id="Path_171" data-name="Path 171" d="M1360.039,248.785h0v-.811H1357.7v5.671h2.339v-4.86Z" fill="#e44e33"/>
          </g>
          <g id="Group_133" data-name="Group 133">
            <path id="Path_172" data-name="Path 172" d="M1409.554,187.527h-12.2v-1.619h12.2Z" fill="#90782e"/>
          </g>
          <g id="Group_134" data-name="Group 134">
            <path id="Path_173" data-name="Path 173" d="M1407.825,194.922h1.729v-2.43h-12.2v2.43h10.472Z" fill="#90782e"/>
          </g>
          <g id="Group_135" data-name="Group 135">
            <path id="Path_174" data-name="Path 174" d="M1409.554,190.063h0v-.809h-2.339v5.669h2.339v-4.86Z" fill="#90782e"/>
          </g>
          <g id="Group_136" data-name="Group 136">
            <path id="Path_175" data-name="Path 175" d="M1404.571,190.063h0v-.809h-2.339v5.669h2.339v-4.86Z" fill="#90782e"/>
          </g>
          <g id="Group_137" data-name="Group 137">
            <path id="Path_176" data-name="Path 176" d="M1399.692,190.063h0v-.809h-2.339v5.669h2.339v-4.86Z" fill="#90782e"/>
          </g>
          <g id="Group_138" data-name="Group 138">
            <path id="Path_177" data-name="Path 177" d="M1319.065,309.834h0L1314.9,323.4h-2.745L1309,314.288l-3.05,9.112H1303.2l-4.168-13.566h2.745l2.948,9.922,3.05-9.922h2.542l3.152,9.922,2.744-9.922Z" fill="#040505"/>
          </g>
          <g id="Group_139" data-name="Group 139">
            <path id="Path_178" data-name="Path 178" d="M1326.488,313.479h.3v2.733h-.3c-1.628,0-3.254.608-3.254,2.43V323.4h-2.745v-9.719h2.745v2.126A3.108,3.108,0,0,1,1326.488,313.479Z" fill="#040505"/>
          </g>
          <g id="Group_140" data-name="Group 140">
            <path id="Path_179" data-name="Path 179" d="M1329.741,309.227h0a1.689,1.689,0,0,1,1.626,1.72,1.583,1.583,0,0,1-1.626,1.519,1.494,1.494,0,0,1-1.525-1.519A1.607,1.607,0,0,1,1329.741,309.227Zm1.423,14.173h-2.745v-9.719h2.745Z" fill="#040505"/>
          </g>
          <g id="Group_141" data-name="Group 141">
            <path id="Path_180" data-name="Path 180" d="M1336.452,315.4h0v4.86a.972.972,0,0,0,1.117,1.113h1.323V323.4h-2.034c-1.932,0-3.05-.81-3.05-2.834V315.4h-1.118v-1.721h1.118v-2.126h2.644v2.126h2.337V315.4Z" fill="#040505"/>
          </g>
          <g id="Group_142" data-name="Group 142">
            <path id="Path_181" data-name="Path 181" d="M1340.112,318.541h0a4.74,4.74,0,0,1,5.082-5.062c3.357,0,5.288,2.328,4.983,5.872h-7.219a2.135,2.135,0,0,0,2.339,2.328,1.8,1.8,0,0,0,1.931-1.417h2.847c-.406,2.43-2.44,3.24-4.881,3.24A4.714,4.714,0,0,1,1340.112,318.541Zm7.421-.81h0a2.288,2.288,0,1,0-4.575,0Z" fill="#040505"/>
          </g>
          <g id="Group_143" data-name="Group 143">
            <path id="Path_182" data-name="Path 182" d="M1357.9,313.479h.408v2.733h-.408c-1.524,0-3.152.608-3.152,2.43V323.4h-2.845v-9.719h2.845v2.126A3.064,3.064,0,0,1,1357.9,313.479Z" fill="#040505"/>
          </g>
          <g id="Group_144" data-name="Group 144">
            <path id="Path_183" data-name="Path 183" d="M1363.6,323.6h0c-2.644,0-4.27-1.114-4.473-3.037h2.746c.1.708.813,1.214,1.829,1.214.916,0,1.526-.4,1.526-1.113,0-.608-.509-.911-2.136-1.114-2.542-.3-3.762-1.012-3.762-2.936,0-2.025,1.933-3.138,4.169-3.138,2.44,0,4.066.911,4.372,2.936h-2.745a1.376,1.376,0,0,0-1.526-1.013c-.914,0-1.524.4-1.524,1.013s.61.911,2.032,1.113c2.644.3,4.068.911,4.068,2.936C1368.173,322.59,1366.241,323.6,1363.6,323.6Z" fill="#040505"/>
          </g>
          <g id="Group_145" data-name="Group 145">
            <path id="Path_184" data-name="Path 184" d="M1372.951,320.059h0c-.1-1.316.508-2.328,2.339-3.341a4.718,4.718,0,0,1-1.22-2.936,3.318,3.318,0,0,1,3.457-3.239,3.044,3.044,0,0,1,3.254,3.037,3.661,3.661,0,0,1-1.73,2.936l-.711.506,2.136,2.531a4.425,4.425,0,0,0,.609-2.328l2.135.1a7.46,7.46,0,0,1-1.118,3.948l1.83,2.126h-2.745l-.711-.911a.1.1,0,0,0-.1.1,5.392,5.392,0,0,1-3.255,1.013C1374.578,323.6,1372.951,321.983,1372.951,320.059Zm2.542-.2h0a1.72,1.72,0,0,0,1.831,1.62,2.5,2.5,0,0,0,1.626-.608l-2.339-2.632C1375.8,318.845,1375.493,319.249,1375.493,319.857Zm2.034-7.188h0a1.258,1.258,0,0,0-1.322,1.215c0,.506.3.911.914,1.721l.611-.4C1379.153,314.288,1379.051,312.669,1377.527,312.669Z" fill="#90782e"/>
          </g>
          <g id="Group_146" data-name="Group 146">
            <path id="Path_185" data-name="Path 185" d="M1399.385,323.4h-2.845l-2.746-5.366h-2.44V323.4h-2.542V309.834h4.982q4.881,0,4.88,3.948v.2a3.243,3.243,0,0,1-2.134,3.24l-.51.2Zm-3.253-9.213h0v-.3c0-1.114-.813-1.62-2.439-1.62h-2.339v3.644h2.339C1395.319,315.908,1396.132,315.3,1396.132,314.187Z" fill="#040505"/>
          </g>
          <g id="Group_147" data-name="Group 147">
            <path id="Path_186" data-name="Path 186" d="M1400.505,318.541h0a4.819,4.819,0,0,1,5.184-5.062c3.253,0,5.287,2.328,4.881,5.872h-7.218a2.182,2.182,0,0,0,2.337,2.328,1.734,1.734,0,0,0,1.932-1.417h2.847c-.406,2.43-2.339,3.24-4.779,3.24C1402.537,323.5,1400.505,321.578,1400.505,318.541Zm7.523-.81h0a2.229,2.229,0,0,0-2.339-2.329,2.294,2.294,0,0,0-2.337,2.329Z" fill="#040505"/>
          </g>
          <g id="Group_148" data-name="Group 148">
            <path id="Path_187" data-name="Path 187" d="M1421.55,317.123h0V323.4h-2.338v-1.316c-.406.709-1.525,1.519-3.558,1.519-1.831,0-3.355-.911-3.355-2.835,0-2.126,1.728-3.037,4.879-3.037h1.628v-.608a1.821,1.821,0,0,0-3.56-.3H1412.6c.2-2.127,1.931-3.341,4.473-3.341C1419.72,313.479,1421.55,314.693,1421.55,317.123Zm-2.744,2.126h-1.628c-1.321,0-2.135.3-2.135,1.317,0,.708.611,1.113,1.526,1.113,1.219,0,2.135-.607,2.237-1.62Z" fill="#040505"/>
          </g>
          <g id="Group_149" data-name="Group 149">
            <path id="Path_188" data-name="Path 188" d="M1427.04,323.6h0c-2.237,0-4.066-1.62-4.066-4.86v-.2c0-3.139,1.829-5.062,4.27-5.062,2.034,0,2.948,1.113,3.152,1.822v-5.366h2.846V323.4H1430.6v-1.822A3.558,3.558,0,0,1,1427.04,323.6Zm3.457-4.86h0v-.3c0-1.417-.711-2.733-2.337-2.733a2.434,2.434,0,0,0-2.441,2.733v.3c0,1.62.915,2.734,2.338,2.734A2.434,2.434,0,0,0,1430.5,318.743Z" fill="#040505"/>
          </g>
          <g id="Group_150" data-name="Group 150">
            <path id="Path_189" data-name="Path 189" d="M1434.866,318.541h0a4.794,4.794,0,0,1,5.081-5.062c3.361,0,5.393,2.328,4.987,5.872h-7.223a2.14,2.14,0,0,0,2.345,2.328,1.792,1.792,0,0,0,1.924-1.417h2.859c-.407,2.43-2.344,3.24-4.892,3.24A4.713,4.713,0,0,1,1434.866,318.541Zm7.425-.81h0a2.173,2.173,0,0,0-2.344-2.329,2.21,2.21,0,0,0-2.236,2.329Z" fill="#040505"/>
          </g>
          <g id="Group_151" data-name="Group 151">
            <path id="Path_190" data-name="Path 190" d="M1452.766,313.479h.3v2.733h-.3c-1.626,0-3.252.608-3.252,2.43V323.4h-2.751v-9.719h2.751v2.126A3.1,3.1,0,0,1,1452.766,313.479Z" fill="#040505"/>
          </g>
          <g id="Group_152" data-name="Group 152">
            <path id="Path_191" data-name="Path 191" d="M1458.457,323.6h0c-2.642,0-4.377-1.114-4.471-3.037h2.642a1.729,1.729,0,0,0,1.829,1.214c.922,0,1.531-.4,1.531-1.113,0-.608-.515-.911-2.046-1.114-2.642-.3-3.862-1.012-3.862-2.936,0-2.025,1.938-3.138,4.269-3.138s3.97.911,4.282,2.936h-2.751c-.095-.709-.7-1.013-1.531-1.013-.908,0-1.518.4-1.518,1.013s.61.911,2.033,1.113c2.642.3,4.065.911,4.065,2.936C1462.929,322.59,1461.005,323.6,1458.457,323.6Z" fill="#040505"/>
          </g>
          <g id="Group_153" data-name="Group 153">
            <path id="Path_192" data-name="Path 192" d="M1476.859,309.834h0v2.531h-5.895v3.544h4.878v2.227h-4.878V323.4h-2.642V309.834Z" fill="#040505"/>
          </g>
          <g id="Group_154" data-name="Group 154">
            <path id="Path_193" data-name="Path 193" d="M1478.187,318.541h0a4.739,4.739,0,0,1,5.081-5.062c3.347,0,5.285,2.328,4.973,5.872h-7.209a2.129,2.129,0,0,0,2.331,2.328,1.875,1.875,0,0,0,1.938-1.417h2.845c-.406,2.43-2.439,3.24-4.878,3.24A4.713,4.713,0,0,1,1478.187,318.541Zm7.412-.81h0a2.17,2.17,0,0,0-2.331-2.329,2.148,2.148,0,0,0-2.236,2.329Z" fill="#040505"/>
          </g>
          <g id="Group_155" data-name="Group 155">
            <path id="Path_194" data-name="Path 194" d="M1493.743,323.6h0c-2.643,0-4.282-1.114-4.486-3.037h2.751a1.55,1.55,0,0,0,1.735,1.214c1.016,0,1.626-.4,1.626-1.113,0-.608-.515-.911-2.141-1.114-2.534-.3-3.767-1.012-3.767-2.936,0-2.025,1.937-3.138,4.173-3.138,2.344,0,3.97.911,4.269,2.936h-2.643a1.367,1.367,0,0,0-1.517-1.013c-.922,0-1.532.4-1.532,1.013s.61.911,2.033,1.113c2.642.3,3.97.911,3.97,2.936C1498.214,322.59,1496.385,323.6,1493.743,323.6Z" fill="#040505"/>
          </g>
          <g id="Group_156" data-name="Group 156">
            <path id="Path_195" data-name="Path 195" d="M1502.984,315.4h0v4.86c0,.81.407,1.113,1.016,1.113h1.328V323.4H1503.3c-1.938,0-2.954-.81-2.954-2.834V315.4h-1.22v-1.721h1.22v-2.126h2.642v2.126h2.344V315.4Z" fill="#040505"/>
          </g>
          <g id="Group_157" data-name="Group 157">
            <path id="Path_196" data-name="Path 196" d="M1508.58,309.227h0a1.683,1.683,0,0,1,1.532,1.72,1.567,1.567,0,0,1-1.532,1.519,1.588,1.588,0,0,1-1.626-1.519A1.693,1.693,0,0,1,1508.58,309.227Zm1.328,14.173h-2.75v-9.719h2.75Z" fill="#040505"/>
          </g>
          <g id="Group_158" data-name="Group 158">
            <path id="Path_197" data-name="Path 197" d="M1519.353,313.681h2.547l-3.767,9.719h-3.049l-3.862-9.719h2.954l2.642,6.783Z" fill="#040505"/>
          </g>
          <g id="Group_159" data-name="Group 159">
            <path id="Path_198" data-name="Path 198" d="M1532.47,317.123h0V323.4h-2.439v-1.316a3.831,3.831,0,0,1-3.456,1.519c-1.829,0-3.455-.911-3.455-2.835,0-2.126,1.829-3.037,4.987-3.037h1.626v-.608a1.824,1.824,0,0,0-3.564-.3h-2.642c.108-2.127,1.937-3.341,4.471-3.341C1530.641,313.479,1532.47,314.693,1532.47,317.123Zm-2.737,2.126h-1.626c-1.328,0-2.236.3-2.236,1.317,0,.708.7,1.113,1.626,1.113,1.219,0,2.127-.607,2.236-1.62Z" fill="#040505"/>
          </g>
          <g id="Group_160" data-name="Group 160">
            <path id="Path_199" data-name="Path 199" d="M1537.05,323.4H1534.3V309.733h2.751Z" fill="#040505"/>
          </g>
        </g>
      </g>
    </g>
    <g id="Group_164" data-name="Group 164">
      <path id="Path_200" data-name="Path 200" d="M690.516,134.29c.347,7.455.077,12.366.187,18.777.1,5.633.578,10.435.314,16.9-.228,5.579.212,11.17.3,16.754q.138,8.158.218,16.314c.073,4.213.147,8.024.153,12.242,0,.708-.067,2.214-.061,2.921,0,0-8.252-.279-9.375-.148a18.629,18.629,0,0,1-6.075-.313c-.7-.207-.942-14.623-.924-15.971.074-5.521-.243-12.712-.261-18.233-.022-5.588-.934-14.006-1.017-19.591-.082-5.649-.46-11.51-.577-17.155-.113-5.7-.338-6.111-.451-11.808-.025-1.16.734-1.33,2.241-1.26,2.365.106,13.6-.134,15.324.574" fill="#ac2733"/>
      <path id="Path_201" data-name="Path 201" d="M711.116,209.184c.255-1.677.469-3.359.669-5.045a6.7,6.7,0,0,1-6.8-6.274l-.058-.972c-.025-.3-.028-.6-.043-.923L704.8,194.1c-.077-1.245-.105-2.487-.175-3.726-.031-.908-.077-1.81-.123-2.712a5.081,5.081,0,0,0,2.6.717,7.031,7.031,0,0,1-2.727-3.216c-.037-.735-.071-1.479-.117-2.214-.126-2.472-.313-4.932-.525-7.386q-.165-1.845-.393-3.674c-.138-1.221-.276-2.445-.448-3.663-.261-1.852-.608-3.7-1-5.539a5.335,5.335,0,0,0,4.569.951,6.852,6.852,0,0,1-5.091-4.307,32.015,32.015,0,0,1-1.649-5.581c-.347-1.379-1.333-4.015-1.717-5.394a5.657,5.657,0,0,0,2.7,1.33,4.119,4.119,0,0,1-2.091-1.734c-1.511-2.554-2.042-5.721-2.5-8.679a4.782,4.782,0,0,1,1.821-4.774c-1.609-.173-2.647-.319-2.647-.319.058,1.594.117,3.653.175,5.245.086,2.381-.246,6.854-.046,9.223.881,10.541.759,14.425.556,25.777-.111,6.186.808,13.638.7,19.508-.154,8.324-.1,14.161-.47,23.8a57.385,57.385,0,0,1,8.847-.1c.955.115,2.488.21,4.367.286.608-2.679,1.324-6.22,1.711-8.731" fill="#dc3834"/>
      <path id="Path_202" data-name="Path 202" d="M832.062,217.73c-.049-1.6-.1-3.653-.141-5.251-.071-2.384.2-6.857.037-9.235a253.266,253.266,0,0,1-.439-25.8c.085-6.2-.642-13.651-.556-19.533.126-8.333.083-14.176.374-23.828a7.059,7.059,0,0,1-3.6.107c-4.738-.735-30.484-.571-30.484-.571.052.987-.022,11.686.107,15.77.209,6.621-.353,10.122-.187,14.3.162,4.057.872,8.063.872,14.152,0,9.277-.949,15.081-.774,21.643.187,6.964.077,4.513-.061,11.48-.019.929.079,4.689.813,6.31a61.437,61.437,0,0,0,12.213.9V189.3h8.12v27.687c5.235-.547,13.711.744,13.711.744M813.21,142.738h.74l.028,19.545a1.338,1.338,0,1,0,.629.021l.028-19.566h.737c0,7.482,8.583,19.013,8.583,19.013-4.038,13.326-3.756,20.7-3.756,20.7H808.383s.282-7.371-3.753-20.7c0,0,8.58-11.531,8.58-19.013m-6.372,45.628v-4.822h14.909l0,4.822Z" fill="#74adae"/>
      <path id="Path_203" data-name="Path 203" d="M764.745,187.937q-.921.154-1.827.288A32.765,32.765,0,0,1,757.75,200a21.118,21.118,0,0,1-10.137,7.957,19.806,19.806,0,0,1-3.86.969c-.083,4.236-.086,8.7.295,8.809a109.09,109.09,0,0,0,13.708.31c1.121-.127,7.281.152,7.281.152,0-.708.062-2.214.059-2.921,0-4.216-.077-8.027-.151-12.239q-.069-7.548-.2-15.1" fill="#5b2645"/>
      <path id="Path_204" data-name="Path 204" d="M793.855,203.064q-.078-8.141-.218-16.278c-.092-5.573-.534-11.154-.3-16.721.264-6.45-.218-11.239-.316-16.861-.114-6.4.16-11.3-.191-18.737-1.716-.705-16.008.094-17.9-.574-1.421-.5-6.559.1-6.535,1.26.117,5.685.243,10.523.36,16.208.116,5.633-.123,10.918-.04,16.554.046,3.24.2,6.6.325,9.943q2.52-2.856,5.123-5.634,3.247-3.448,6.743-6.666a10.141,10.141,0,0,1,5.138-2.229,8.6,8.6,0,0,1,1.465-.139,4.788,4.788,0,0,1,3.817,1.661,5.255,5.255,0,0,1,1.317,3.322,5.024,5.024,0,0,1-.642,2.4,40.274,40.274,0,0,1-3.387,5.445,24.5,24.5,0,0,1-7.477,6.56,35.34,35.34,0,0,1-9.33,3.839c-.872.227-1.732.431-2.585.628q.018,7.23-.071,14.465c-.018,1.345-.6,16.013.1,16.22a67.975,67.975,0,0,0,10.942.31c1.121-.131,13.76.151,13.76.151,0-.707.062-2.21.062-2.918-.006-4.206-.077-8.008-.151-12.214m-14.273-47.655-3,3.678-5.138-4.774q1.465-1.872,2.979-3.714t3.015-3.711l5.138,4.774q-1.5,1.908-3,3.747" fill="#f5b186"/>
      <path id="Path_205" data-name="Path 205" d="M774.426,150.6q1.516-1.836,3.013-3.711-1.493,1.872-3.013,3.711c-1.01,1.224-2.005,2.466-2.978,3.711l5.137,4.777-5.137-4.777c.973-1.245,1.968-2.487,2.978-3.711" fill="#f7b288"/>
      <path id="Path_206" data-name="Path 206" d="M784.827,174.928a.814.814,0,0,0,.5-.777,2.384,2.384,0,0,0-.39-1.133,3.932,3.932,0,0,0-2.463-1.731,4.813,4.813,0,0,0-1.355-.212,3.974,3.974,0,0,0-2,.531,19.577,19.577,0,0,0-4.566,3.359q-2,1.977-4,3.957,3.855-.738,7.5-1.625a35.075,35.075,0,0,0,6.777-2.369" fill="#f7b288"/>
      <path id="Path_207" data-name="Path 207" d="M739.215,188.165c-.1-1.956-.36-3.9-.6-6.077-.4.829-.857,1.728-1.364,2.706a24.861,24.861,0,0,0-2.014,5.163,11.741,11.741,0,0,0-.356,2.794,8.811,8.811,0,0,0,.248,2.083q.535,2.268,3.461,3.5c.117.021.228.027.341.048.062-4.169.449-7,.286-10.219" fill="#dd3934"/>
      <path id="Path_208" data-name="Path 208" d="M737.161,208.061q-4.353-2.082-4.959-9.016c-.025-.377-.037-.753-.037-1.13q0-6.678,6.221-18.048c-.156-1.746-.273-3.657-.273-5.84,0-9.265,1.2-15.06.98-21.616a106.441,106.441,0,0,1,.079-11.465c.025-.929-.1-4.688-1.031-6.3,0,0-15.6-2.083-25.028-.061a40.957,40.957,0,0,1-9.738.362l.012.012a38.28,38.28,0,0,1,6.913,7.619v2.667a6.154,6.154,0,0,0,.519-1.92,61.768,61.768,0,0,1,3.221,5.369,36.011,36.011,0,0,1,3.022,6.007,12.167,12.167,0,0,1-.365,7.668,7.452,7.452,0,0,0,2.542-2.62c.627,1.609,1.2,3.237,1.7,4.877.39,1.388.746,2.782,1.056,4.185.285,1.4.537,2.815.7,4.23a22.51,22.51,0,0,1,.427,4.914,15.79,15.79,0,0,1-4.505,9.791,8.258,8.258,0,0,0,4.351-3.371,41.5,41.5,0,0,1-.9,5.666,30.891,30.891,0,0,1-3.1,8.242l-1.413,2.478a6.647,6.647,0,0,1-3.169,2.819c.062-.933.129-1.865.172-2.8a149.318,149.318,0,0,0-.169-17.523,109.44,109.44,0,0,0-7.505-34,108.573,108.573,0,0,1,5.909,34.074c.03,1.242.033,2.49.03,3.738.209,4.647.2,9.314-.021,13.973q-.213,4.381-.67,8.755c-.3,2.73-.648,5.421-1.139,8.169,10.275.328,28.123.222,28.123.222-.04-.622-.021-5.166-.04-9.445a9.826,9.826,0,0,1-1.916-.686" fill="#dc3834"/>
      <path id="Path_209" data-name="Path 209" d="M884.148,202.589q-.078-8.149-.218-16.3c-.092-5.582-.534-11.169-.307-16.742.267-6.46-.215-11.252-.313-16.882-.111-6.411.159-11.315-.188-18.765-1.719-.707-42.829-.018-44.835-.152-2.026-.13-2.306.514-2.284,1.677.116,5.694.245,9.7.359,15.391.117,5.639-.123,10.938-.04,16.581.08,5.582.488,11.506.507,17.091q.023,5.718-.028,11.44c.181-.4.362-.8.568-1.2q3.828-7.791,8.829-11.7a14.206,14.206,0,0,1-1.72-1.9,10.882,10.882,0,0,1-2.389-5.478,17.864,17.864,0,0,1-.169-2.42,14.833,14.833,0,0,1,.39-3.441,11.287,11.287,0,0,1,2.251-4.653,4.588,4.588,0,0,1,3.636-1.846h.055a14.78,14.78,0,0,1,2.78.358c.869.2,1.778.407,2.72.608l-2.389,7.319a30.77,30.77,0,0,0-5.97-1.182,9.275,9.275,0,0,0,1.069,3.289,9.937,9.937,0,0,0,2.1,2.384,3.5,3.5,0,0,0,2.555,1.042,7.04,7.04,0,0,0,2.973-.8,24.347,24.347,0,0,0,6.08-4.212l-2.555,6.523a8.331,8.331,0,0,1-2.819,3.2q-2.207,1.676-3.9,3.137c-.792.7-2.116,1.871-3.955,3.523a55.959,55.959,0,0,0-5.263,5.408,25.458,25.458,0,0,0-3.833,5.822,5.684,5.684,0,0,0-.614,2.4,3.5,3.5,0,0,0,.921,2.366,16.15,16.15,0,0,0,6.928,4.6,28.95,28.95,0,0,0,8.457,1.512c.5.018,1,.027,1.5.027a45.412,45.412,0,0,0,7.361-.607q4.445-.742,8.165-1.676a3.142,3.142,0,0,1,.694-.137c.074,0,.111.018.111.055a.2.2,0,0,1-.028.082,25.774,25.774,0,0,1-9.179,6.784,34.309,34.309,0,0,1-7.339,2.451c8.337,0,29.422.185,29.422.182,0-.705.061-2.214.061-2.919-.006-4.215-.08-8.023-.15-12.232m-27.687-54.22c-5.35,2.11-10.785,3.966-16.045,5.645l-.086-.085.651-2.976c6.086-2.025,12.437-4.136,17.132-5.946l.089.128Zm0-6.466c-5.35,2.111-10.785,3.963-16.045,5.646l-.086-.085.651-2.976c6.086-2.026,12.437-4.14,17.132-5.946l.089.13Z" fill="#00222b"/>
      <path id="Path_210" data-name="Path 210" d="M840.478,216.276a9.833,9.833,0,0,1-3.965-3.428c.009,2.469.092,4.357.341,4.43.454.11,3.986.292,7.545.38a18.361,18.361,0,0,1-3.921-1.382" fill="#01222b"/>
      <path id="Path_211" data-name="Path 211" d="M764.425,169.982c.264-6.462-.218-11.257-.314-16.888-.113-6.411.157-11.321-.187-18.774-1.723-.7-10.757-.4-12.763-.574-2.085-.179-7.984.1-7.959,1.264.113,5.7.242,10.538.359,16.235.114,5.642-.126,10.942-.04,16.584.08,5.585.485,11.513.507,17.1q.023,6.9-.049,13.8a19.683,19.683,0,0,0,6.347-1.269,27.408,27.408,0,0,0,8.777-5.2v-.635a22.862,22.862,0,0,0-.5-4.917c-.4-1.694-.857-3.359-1.354-4.983l3.992-9.053q1.82,3.99,2.57,5.691a1.779,1.779,0,0,0,.673.8c-.111-3.062-.187-6.123-.061-9.178m-5.755-10.6a8.084,8.084,0,0,1-3.937,3.729,11.093,11.093,0,0,1-2.356.805,19.079,19.079,0,0,1-2.453.331l-.5-.049c.114-.264,1.18-.884,3.188-1.852a12.905,12.905,0,0,0,3.811-2.4l.028-.124a8.352,8.352,0,0,0-3.167-.641c-.531-.048-1.013-.073-1.443-.073a3.963,3.963,0,0,0-2.242.468,7.527,7.527,0,0,0-.709.6,4.557,4.557,0,0,1-.565.48l-.049-.021a7.8,7.8,0,0,1,.663-1.925,12.709,12.709,0,0,1,1.88-3.062c.429-.51,1.47-.768,3.113-.768h.925q3.261.173,4.035.941a1.7,1.7,0,0,1,.473,1.258,5.292,5.292,0,0,1-.7,2.3" fill="#5b2645"/>
      <path id="Path_212" data-name="Path 212" d="M920.99,188.267c-.163-4.036-.872-8.027-.872-14.092,0-9.232.949-15.008.774-21.54-.188-6.933-.074-4.495.064-11.425.018-.926-.083-4.673-.814-6.283,0,0-8.408-.85-16.969-.941,10.431,17.966,14.537,33.612,12.2,46.54l-8.8,8.721,2.619-.282c.019,0,1.6-.173,3.741-.456a31.541,31.541,0,0,1-10.714,13.053.067.067,0,0,0-.019.015c.074-.27.144-.534.215-.8a103.764,103.764,0,0,0,2.4-11.792c1.226-8.567,1.88-20.93-1.587-32.455a14.786,14.786,0,0,0-1.827-3.881l-.415-.632a14.839,14.839,0,0,0,.046,2.74,15.439,15.439,0,0,0,.534,2.687c4.109,14.012,2.466,30.527-1.108,43.5-.071.256-.138.508-.212.763a58.545,58.545,0,0,1-8.285-27.2l6.694,3.068-6.479-11.792c.172-1.734.427-3.487.755-5.193l.4-2.087,9.594-24.516c-.823-.009-1.649-.009-2.469,0-4.831.054-13.506.479-13.506.479.049,1.589.1,3.639.144,5.227.068,2.372-.2,6.83-.036,9.192a252.946,252.946,0,0,1,.439,25.686c-.089,6.168.638,13.593.552,19.445-.122,8.3-.079,14.113-.371,23.718a7.067,7.067,0,0,1,3.6-.1c.623.094,1.606.176,2.822.243a22.5,22.5,0,0,1,.955-2.187,73.588,73.588,0,0,0,4.514-11.558,1.082,1.082,0,0,1,.062.1l.445.693.74-.359s.095-.045.267-.133l.323-.137.046-.018a77.267,77.267,0,0,1-3.928,10.568,20.839,20.839,0,0,1-1.787,3.113c8.694.352,25.175.243,25.175.243-.052-.981.018-11.631-.111-15.7-.208-6.59.354-10.076.188-14.23" fill="#f0862b"/>
      <path id="Path_213" data-name="Path 213" d="M436.322,292.843h3.4v20.368H452v2.973H436.322Z" fill="#00222b"/>
      <path id="Path_214" data-name="Path 214" d="M455.147,293.473h3.574v3.535h-3.574Zm.215,6.441h3.184v16.275h-3.184Z" fill="#00222b"/>
      <path id="Path_215" data-name="Path 215" d="M464.491,302.537h-2.973v-2.624h2.973v-5.32h3.184v5.32h4.816v2.624h-4.816v8.014a4.339,4.339,0,0,0,.618,2.7,2.169,2.169,0,0,0,1.753.732,3.574,3.574,0,0,0,1.52-.279,4.614,4.614,0,0,0,1.207-.839l1.45,1.923a6.731,6.731,0,0,1-2.1,1.418,6.862,6.862,0,0,1-2.567.437,4.833,4.833,0,0,1-3.842-1.4,6.538,6.538,0,0,1-1.219-4.373Z" fill="#00222b"/>
      <path id="Path_216" data-name="Path 216" d="M490.6,313.8a9.218,9.218,0,0,1-.847.808,7.286,7.286,0,0,1-1.471.944,11.179,11.179,0,0,1-2.122.784,10.6,10.6,0,0,1-2.776.334,9.471,9.471,0,0,1-3.5-.629,7.823,7.823,0,0,1-2.727-1.782,8.031,8.031,0,0,1-1.75-2.767,9.892,9.892,0,0,1-.618-3.571,9.257,9.257,0,0,1,.6-3.344,8.054,8.054,0,0,1,1.7-2.694,8.224,8.224,0,0,1,2.6-1.8,8.141,8.141,0,0,1,3.308-.663,7.738,7.738,0,0,1,3.648.8,7.243,7.243,0,0,1,2.494,2.135,9.047,9.047,0,0,1,1.434,3.046,13.673,13.673,0,0,1,.46,3.568H478.045a4.815,4.815,0,0,0,.476,1.993,5.053,5.053,0,0,0,1.185,1.579,5.824,5.824,0,0,0,1.7,1.047,5.352,5.352,0,0,0,2.018.386,7.418,7.418,0,0,0,3.433-.7,6.942,6.942,0,0,0,1.944-1.364Zm-2.865-7.173a5.258,5.258,0,0,0-1.342-3.219,4.357,4.357,0,0,0-3.4-1.333,5.115,5.115,0,0,0-2.033.388,4.915,4.915,0,0,0-1.539,1.015,4.514,4.514,0,0,0-.991,1.451,4.742,4.742,0,0,0-.387,1.7Z" fill="#00222b"/>
      <path id="Path_217" data-name="Path 217" d="M494.569,316.186V300.928c0-.209-.012-.546-.034-1.017h3.043l.105,2.624a8.806,8.806,0,0,1,.743-.926,5.485,5.485,0,0,1,1.115-.927,7.248,7.248,0,0,1,1.523-.719,6.155,6.155,0,0,1,2-.3,5.981,5.981,0,0,1,.973.073,4.46,4.46,0,0,1,.83.209l-.707,2.937a4.638,4.638,0,0,0-1.627-.243,4.585,4.585,0,0,0-3.4,1.455,5.134,5.134,0,0,0-1.01,1.591,5.024,5.024,0,0,0-.372,1.926v8.573Z" fill="#00222b"/>
      <path id="Path_218" data-name="Path 218" d="M517.219,314.226a5.518,5.518,0,0,1-2.426,1.822,8.373,8.373,0,0,1-3.1.592,8.02,8.02,0,0,1-2.036-.261,5.215,5.215,0,0,1-1.84-.878,4.65,4.65,0,0,1-1.345-1.573,4.946,4.946,0,0,1-.513-2.362,5.214,5.214,0,0,1,1.858-4.2,8.052,8.052,0,0,1,5.362-1.576c.378,0,.777.012,1.2.033s.823.049,1.2.07.709.048.991.07.486.048.6.07v-.593a2.973,2.973,0,0,0-1.114-2.608,5.149,5.149,0,0,0-3.025-.787,7.207,7.207,0,0,0-2.973.507,11.557,11.557,0,0,0-1.839,1.03l-1.49-2.132a8.205,8.205,0,0,1,1.029-.7,8.757,8.757,0,0,1,1.413-.646,11.606,11.606,0,0,1,1.842-.489,12.988,12.988,0,0,1,2.371-.192,7.567,7.567,0,0,1,5.005,1.519,5.319,5.319,0,0,1,1.825,4.324v10.1c0,.221.012.5.036.826H517.29Zm-.037-5.74c-.1-.024-.276-.051-.546-.088s-.584-.064-.94-.088-.731-.045-1.133-.067-.789-.036-1.167-.036a6.179,6.179,0,0,0-2.177.316,3.693,3.693,0,0,0-1.309.786,2.506,2.506,0,0,0-.657,1.051,3.831,3.831,0,0,0-.175,1.1,2.352,2.352,0,0,0,.922,2.014,4.214,4.214,0,0,0,2.545.68,4.957,4.957,0,0,0,1.754-.313A5.349,5.349,0,0,0,515.77,313a4.325,4.325,0,0,0,1.025-1.227,2.92,2.92,0,0,0,.387-1.433Z" fill="#00222b"/>
      <path id="Path_219" data-name="Path 219" d="M525.994,302.537h-2.972v-2.624h2.972v-5.32h3.185v5.32h4.815v2.624h-4.815v8.014a4.34,4.34,0,0,0,.617,2.7,2.169,2.169,0,0,0,1.753.732,3.571,3.571,0,0,0,1.52-.279,4.614,4.614,0,0,0,1.207-.839l1.45,1.923a6.731,6.731,0,0,1-2.1,1.418,6.859,6.859,0,0,1-2.567.437,4.834,4.834,0,0,1-3.842-1.4,6.544,6.544,0,0,1-1.219-4.373Z" fill="#00222b"/>
      <path id="Path_220" data-name="Path 220" d="M537.707,299.913h3.185v9.554a4.827,4.827,0,0,0,.955,3.34,3.566,3.566,0,0,0,2.76,1.036,4.252,4.252,0,0,0,2.282-.562,4.645,4.645,0,0,0,1.471-1.452,5.912,5.912,0,0,0,.8-2.031,11.646,11.646,0,0,0,.231-2.324v-7.561h3.184v15.275c0,.337.012.671.037,1h-3.043l-.108-2.414c-.212.279-.473.58-.777.908a5.259,5.259,0,0,1-1.136.89,7.279,7.279,0,0,1-1.554.686,6.744,6.744,0,0,1-2.017.279,5.814,5.814,0,0,1-4.742-1.837,7.633,7.633,0,0,1-1.523-5.023Z" fill="#00222b"/>
      <path id="Path_221" data-name="Path 221" d="M556.993,316.186V300.928c0-.209-.013-.546-.034-1.017H560l.1,2.624a8.831,8.831,0,0,1,.744-.926,5.478,5.478,0,0,1,1.114-.927,7.272,7.272,0,0,1,1.523-.719,6.161,6.161,0,0,1,2-.3,5.99,5.99,0,0,1,.973.073,4.45,4.45,0,0,1,.829.209l-.706,2.937a4.644,4.644,0,0,0-1.628-.243,4.585,4.585,0,0,0-3.4,1.455,5.1,5.1,0,0,0-1.01,1.591,5.024,5.024,0,0,0-.372,1.926v8.573Z" fill="#00222b"/>
      <path id="Path_222" data-name="Path 222" d="M583.993,313.8a9.387,9.387,0,0,1-.848.808,7.286,7.286,0,0,1-1.471.944,11.178,11.178,0,0,1-2.122.784,10.6,10.6,0,0,1-2.776.334,9.472,9.472,0,0,1-3.5-.629,7.824,7.824,0,0,1-2.727-1.782,8.031,8.031,0,0,1-1.75-2.767,9.892,9.892,0,0,1-.617-3.571,9.257,9.257,0,0,1,.6-3.344,8.042,8.042,0,0,1,1.7-2.694,8.224,8.224,0,0,1,2.6-1.8,8.133,8.133,0,0,1,3.307-.663,7.738,7.738,0,0,1,3.648.8,7.235,7.235,0,0,1,2.494,2.135,9.047,9.047,0,0,1,1.434,3.046,13.671,13.671,0,0,1,.46,3.568H571.433a4.815,4.815,0,0,0,.476,1.993,5.068,5.068,0,0,0,1.185,1.579,5.85,5.85,0,0,0,1.7,1.047,5.352,5.352,0,0,0,2.018.386,7.418,7.418,0,0,0,3.433-.7,6.941,6.941,0,0,0,1.944-1.364Zm-2.865-7.173a5.27,5.27,0,0,0-1.342-3.219,4.361,4.361,0,0,0-3.4-1.333,5.118,5.118,0,0,0-2.033.388,4.9,4.9,0,0,0-1.538,1.015,4.5,4.5,0,0,0-.992,1.451,4.742,4.742,0,0,0-.387,1.7Z" fill="#00222b"/>
      <path id="Path_223" data-name="Path 223" d="M589.692,316.186h-1.413V312.3h4v3.851l-2.441,4.127h-1.947Z" fill="#00222b"/>
      <path id="Path_224" data-name="Path 224" d="M603.881,292.844h7.469a10.354,10.354,0,0,1,3.979.662,7.142,7.142,0,0,1,2.512,1.682,5.77,5.77,0,0,1,1.312,2.275,8.629,8.629,0,0,1,.371,2.451,7.328,7.328,0,0,1-.6,3.079,6.134,6.134,0,0,1-1.661,2.22,7.09,7.09,0,0,1-2.531,1.348,10.745,10.745,0,0,1-3.2.456h-4.278v9.168h-3.366Zm7.61,11.3a4.775,4.775,0,0,0,3.378-1.1,3.981,3.981,0,0,0,1.188-3.061,4.064,4.064,0,0,0-1.222-3.131,4.712,4.712,0,0,0-3.344-1.139h-4.244v8.433Z" fill="#00222b"/>
      <path id="Path_225" data-name="Path 225" d="M622.6,299.913h3.184v9.554a4.832,4.832,0,0,0,.955,3.34,3.568,3.568,0,0,0,2.761,1.036,4.254,4.254,0,0,0,2.282-.562,4.646,4.646,0,0,0,1.471-1.452,5.931,5.931,0,0,0,.795-2.031,11.646,11.646,0,0,0,.23-2.324v-7.561h3.185v15.275c0,.337.012.671.037,1h-3.043l-.108-2.414c-.212.279-.473.58-.777.908a5.281,5.281,0,0,1-1.136.89,7.212,7.212,0,0,1-1.554.686,6.751,6.751,0,0,1-2.018.279,5.812,5.812,0,0,1-4.741-1.837,7.633,7.633,0,0,1-1.523-5.023Z" fill="#00222b"/>
      <path id="Path_226" data-name="Path 226" d="M641.888,292.844h3.184V301.7a5.648,5.648,0,0,1,.691-.7,5.586,5.586,0,0,1,1.081-.717,6.517,6.517,0,0,1,1.468-.544,8.4,8.4,0,0,1,5.095.438,6.748,6.748,0,0,1,2.355,1.785,7.631,7.631,0,0,1,1.431,2.679,10.976,10.976,0,0,1,.479,3.289A9.121,9.121,0,0,1,657,311.46a7.97,7.97,0,0,1-1.9,2.766,8.632,8.632,0,0,1-2.92,1.8,10.515,10.515,0,0,1-3.75.647,21,21,0,0,1-3.75-.316,15.065,15.065,0,0,1-2.8-.735Zm3.151,20.647c.328.094.737.192,1.219.3a11,11,0,0,0,2.14.158,6.653,6.653,0,0,0,2.478-.437,5.678,5.678,0,0,0,1.9-1.224,5.321,5.321,0,0,0,1.219-1.892,6.625,6.625,0,0,0,.424-2.4,8.584,8.584,0,0,0-.264-2.154,5.139,5.139,0,0,0-.848-1.819,4.392,4.392,0,0,0-1.471-1.263,4.545,4.545,0,0,0-2.155-.471,4.809,4.809,0,0,0-2.036.4,4.538,4.538,0,0,0-1.453,1.054,4.127,4.127,0,0,0-.866,1.5,5.658,5.658,0,0,0-.282,1.768Z" fill="#00222b"/>
      <rect id="Rectangle_7" data-name="Rectangle 7" width="3.185" height="23.341" transform="translate(661.246 292.841)" fill="#00222b"/>
      <path id="Path_227" data-name="Path 227" d="M668.714,293.473h3.575v3.535h-3.575Zm.212,6.441h3.185v16.275h-3.185Z" fill="#00222b"/>
      <path id="Path_228" data-name="Path 228" d="M677.7,312.091a6.679,6.679,0,0,0,2.125,1.4,7.237,7.237,0,0,0,2.865.525,6.1,6.1,0,0,0,2.657-.51,1.669,1.669,0,0,0,1.059-1.591,1.905,1.905,0,0,0-.23-.96,2.041,2.041,0,0,0-.777-.72,6.941,6.941,0,0,0-1.453-.577q-.9-.264-2.247-.577a13.84,13.84,0,0,1-1.892-.559,6.25,6.25,0,0,1-1.683-.929,4.607,4.607,0,0,1-1.2-1.4,3.98,3.98,0,0,1-.46-1.977,3.9,3.9,0,0,1,.549-2.08,4.822,4.822,0,0,1,1.465-1.506,7.125,7.125,0,0,1,2.073-.927,9.017,9.017,0,0,1,2.389-.315,10.611,10.611,0,0,1,3.59.543,8.273,8.273,0,0,1,2.638,1.522l-1.735,2.168a6.468,6.468,0,0,0-1.855-1.118,6.879,6.879,0,0,0-2.6-.455,5.217,5.217,0,0,0-2.441.489,1.681,1.681,0,0,0-.919,1.609,1.662,1.662,0,0,0,1.22,1.558,20.448,20.448,0,0,0,3.2.963,19.535,19.535,0,0,1,2.178.647,6.681,6.681,0,0,1,1.765.944,4.24,4.24,0,0,1,1.207,1.418,4.313,4.313,0,0,1,.443,2.032,4.044,4.044,0,0,1-.569,2.15,4.855,4.855,0,0,1-1.523,1.558,7.156,7.156,0,0,1-2.189.945,10.527,10.527,0,0,1-2.586.315q-4.671,0-7.008-2.484Z" fill="#00222b"/>
      <path id="Path_229" data-name="Path 229" d="M693.3,292.843h3.148v9.484c.215-.279.473-.583.78-.911a5.629,5.629,0,0,1,1.133-.908,6.934,6.934,0,0,1,1.557-.7,6.69,6.69,0,0,1,2.018-.28,5.887,5.887,0,0,1,4.778,1.856,7.589,7.589,0,0,1,1.554,5.041v9.76h-3.181v-9.517a4.785,4.785,0,0,0-.992-3.341,3.629,3.629,0,0,0-2.795-1.069,4.36,4.36,0,0,0-2.3.559,4.44,4.44,0,0,0-1.468,1.455,6.37,6.37,0,0,0-.795,2.028,10.86,10.86,0,0,0-.249,2.327v7.558H693.3Z" fill="#00222b"/>
      <path id="Path_230" data-name="Path 230" d="M712.483,293.473h3.575v3.535h-3.575Zm.212,6.441h3.185v16.275H712.7Z" fill="#00222b"/>
      <path id="Path_231" data-name="Path 231" d="M720.412,316.186V300.947c0-.222-.013-.565-.034-1.036h3.043l.1,2.451c.212-.28.473-.589.777-.926a5.336,5.336,0,0,1,1.136-.927,6.731,6.731,0,0,1,1.572-.7,6.921,6.921,0,0,1,2.036-.28,5.9,5.9,0,0,1,4.778,1.859,7.582,7.582,0,0,1,1.557,5.038v9.764H732.2v-9.518a4.8,4.8,0,0,0-.992-3.344,3.626,3.626,0,0,0-2.795-1.068,4.377,4.377,0,0,0-2.3.558,4.449,4.449,0,0,0-1.471,1.455,6.436,6.436,0,0,0-.8,2.032,10.821,10.821,0,0,0-.249,2.323v7.562Z" fill="#00222b"/>
      <path id="Path_232" data-name="Path 232" d="M741.858,319.512a8.118,8.118,0,0,0,2,.96,9.088,9.088,0,0,0,2.887.4,4.547,4.547,0,0,0,3.54-1.294,4.891,4.891,0,0,0,1.167-3.395v-2q-.249.209-.654.577a5.307,5.307,0,0,1-1.029.7,8.632,8.632,0,0,1-1.467.6,6.672,6.672,0,0,1-1.947.262,7.875,7.875,0,0,1-3.2-.614,6.847,6.847,0,0,1-2.356-1.679,7.168,7.168,0,0,1-1.446-2.554,10.134,10.134,0,0,1-.5-3.238,8.864,8.864,0,0,1,.673-3.483,8.144,8.144,0,0,1,1.9-2.763,8.5,8.5,0,0,1,2.92-1.823,10.606,10.606,0,0,1,3.786-.646,19.141,19.141,0,0,1,3.75.349,16.939,16.939,0,0,1,2.794.771v15.54a7.135,7.135,0,0,1-2.069,5.475,8.187,8.187,0,0,1-5.823,1.941,11.979,11.979,0,0,1-4-.541,9.242,9.242,0,0,1-2.407-1.239Zm9.624-16.73c-.212-.07-.571-.17-1.078-.3a10.08,10.08,0,0,0-2.282-.192,6.564,6.564,0,0,0-2.444.437,5.484,5.484,0,0,0-3.132,3.1,6.248,6.248,0,0,0-.442,2.381,7.977,7.977,0,0,0,.267,2.1,4.635,4.635,0,0,0,.847,1.713,4.112,4.112,0,0,0,1.471,1.157,5,5,0,0,0,2.156.419,5.542,5.542,0,0,0,2.054-.349,4.229,4.229,0,0,0,1.453-.929,3.812,3.812,0,0,0,.847-1.294,4.03,4.03,0,0,0,.283-1.488Z" fill="#00222b"/>
      <path id="Path_233" data-name="Path 233" d="M778.839,313.631a12.391,12.391,0,0,1-2.85,2.2,8.065,8.065,0,0,1-4.017.911,9.375,9.375,0,0,1-3.2-.507,6.612,6.612,0,0,1-2.337-1.4,5.875,5.875,0,0,1-1.413-2.062,6.567,6.567,0,0,1-.479-2.5,6.979,6.979,0,0,1,1.2-3.991,13.46,13.46,0,0,1,3.679-3.465l-.424-.525a8.614,8.614,0,0,1-1.308-2.172,6.17,6.17,0,0,1-.461-2.378,5.169,5.169,0,0,1,.424-2.046,5.376,5.376,0,0,1,1.219-1.768,5.862,5.862,0,0,1,1.965-1.224,7.28,7.28,0,0,1,2.657-.455,7.174,7.174,0,0,1,2.315.334,5.971,5.971,0,0,1,1.7.871,5.51,5.51,0,0,1,1.2,1.224,10.155,10.155,0,0,1,.832,1.418l-2.37,1.507a5.886,5.886,0,0,0-1.754-2.081,3.285,3.285,0,0,0-1.75-.507,3.063,3.063,0,0,0-2.3.8,2.632,2.632,0,0,0-.777,1.892,3.613,3.613,0,0,0,.512,1.834,11.948,11.948,0,0,0,1.361,1.874l6.443,7.453,3.08-3.882,2.4,1.889-3.5,4.34,4.318,4.968H781.1Zm-7.539-8.609a9.715,9.715,0,0,0-2.6,2.4,4.71,4.71,0,0,0-.762,2.678A3.543,3.543,0,0,0,769,312.723a4.252,4.252,0,0,0,3.114,1.048,4.97,4.97,0,0,0,2.742-.717,9.282,9.282,0,0,0,2-1.734Z" fill="#00222b"/>
      <path id="Path_234" data-name="Path 234" d="M801.52,295.783h-8.457v-2.94H813.34v2.94h-8.423v20.4h-3.4Z" fill="#00222b"/>
      <path id="Path_235" data-name="Path 235" d="M811.428,316.186V300.928c0-.209-.012-.546-.034-1.017h3.043l.1,2.624a8.817,8.817,0,0,1,.743-.926,5.484,5.484,0,0,1,1.115-.927,7.272,7.272,0,0,1,1.523-.719,6.155,6.155,0,0,1,2-.3,5.981,5.981,0,0,1,.973.073,4.46,4.46,0,0,1,.83.209l-.707,2.937a4.638,4.638,0,0,0-1.627-.243,4.585,4.585,0,0,0-3.4,1.455,5.133,5.133,0,0,0-1.01,1.591,5.023,5.023,0,0,0-.371,1.926v8.573Z" fill="#00222b"/>
      <path id="Path_236" data-name="Path 236" d="M834.078,314.226a5.541,5.541,0,0,1-2.426,1.822,8.378,8.378,0,0,1-3.1.592,8.025,8.025,0,0,1-2.036-.261,5.21,5.21,0,0,1-1.839-.878,4.616,4.616,0,0,1-1.345-1.573,4.946,4.946,0,0,1-.513-2.362,5.211,5.211,0,0,1,1.858-4.2,8.047,8.047,0,0,1,5.361-1.576c.378,0,.777.012,1.2.033s.823.049,1.2.07.709.048.992.07.485.048.6.07v-.593a2.973,2.973,0,0,0-1.115-2.608,5.145,5.145,0,0,0-3.025-.787,7.2,7.2,0,0,0-2.972.507,11.571,11.571,0,0,0-1.84,1.03l-1.489-2.132a8.118,8.118,0,0,1,1.028-.7,8.837,8.837,0,0,1,1.413-.646,11.65,11.65,0,0,1,1.843-.489,12.977,12.977,0,0,1,2.37-.192,7.57,7.57,0,0,1,5.006,1.519,5.321,5.321,0,0,1,1.824,4.324v10.1c0,.221.012.5.037.826h-2.973Zm-.037-5.74c-.1-.024-.277-.051-.547-.088s-.583-.064-.94-.088-.73-.045-1.133-.067-.789-.036-1.167-.036a6.183,6.183,0,0,0-2.177.316,3.679,3.679,0,0,0-1.308.786,2.486,2.486,0,0,0-.657,1.051,3.8,3.8,0,0,0-.175,1.1,2.354,2.354,0,0,0,.921,2.014,4.217,4.217,0,0,0,2.546.68,4.955,4.955,0,0,0,1.753-.313,5.288,5.288,0,0,0,1.468-.841,4.275,4.275,0,0,0,1.029-1.227,2.92,2.92,0,0,0,.387-1.433Z" fill="#00222b"/>
      <path id="Path_237" data-name="Path 237" d="M841.436,316.186V300.947c0-.222-.012-.565-.034-1.036h3.044l.1,2.451c.212-.28.473-.589.777-.926a5.361,5.361,0,0,1,1.136-.927,6.759,6.759,0,0,1,1.573-.7,6.912,6.912,0,0,1,2.036-.28,5.9,5.9,0,0,1,4.778,1.859,7.582,7.582,0,0,1,1.557,5.038v9.764h-3.185v-9.518a4.8,4.8,0,0,0-.992-3.344,3.624,3.624,0,0,0-2.794-1.068,4.378,4.378,0,0,0-2.3.558,4.44,4.44,0,0,0-1.471,1.455,6.412,6.412,0,0,0-.8,2.032,10.879,10.879,0,0,0-.248,2.323v7.562Z" fill="#00222b"/>
      <path id="Path_238" data-name="Path 238" d="M861.749,312.091a6.667,6.667,0,0,0,2.125,1.4,7.237,7.237,0,0,0,2.865.525,6.093,6.093,0,0,0,2.656-.51,1.67,1.67,0,0,0,1.06-1.591,1.9,1.9,0,0,0-.231-.96,2.027,2.027,0,0,0-.777-.72,6.909,6.909,0,0,0-1.452-.577q-.9-.264-2.248-.577a13.884,13.884,0,0,1-1.892-.559,6.28,6.28,0,0,1-1.683-.929,4.6,4.6,0,0,1-1.2-1.4,3.981,3.981,0,0,1-.461-1.977,3.887,3.887,0,0,1,.55-2.08,4.8,4.8,0,0,1,1.465-1.506,7.13,7.13,0,0,1,2.072-.927,9.019,9.019,0,0,1,2.39-.315,10.605,10.605,0,0,1,3.589.543,8.251,8.251,0,0,1,2.638,1.522l-1.735,2.168a6.439,6.439,0,0,0-1.855-1.118,6.879,6.879,0,0,0-2.6-.455,5.22,5.22,0,0,0-2.441.489,1.682,1.682,0,0,0-.918,1.609,1.661,1.661,0,0,0,1.219,1.558,20.464,20.464,0,0,0,3.2.963,19.451,19.451,0,0,1,2.177.647,6.686,6.686,0,0,1,1.766.944,4.252,4.252,0,0,1,1.207,1.418,4.314,4.314,0,0,1,.442,2.032,4.043,4.043,0,0,1-.568,2.15,4.9,4.9,0,0,1-1.52,1.558,7.224,7.224,0,0,1-2.193.945,10.527,10.527,0,0,1-2.586.315q-4.671,0-7.007-2.484Z" fill="#00222b"/>
      <rect id="Rectangle_8" data-name="Rectangle 8" width="3.184" height="23.341" transform="translate(877.356 292.841)" fill="#00222b"/>
      <path id="Path_239" data-name="Path 239" d="M895.191,314.226a5.535,5.535,0,0,1-2.426,1.822,8.373,8.373,0,0,1-3.1.592,8.021,8.021,0,0,1-2.036-.261,5.215,5.215,0,0,1-1.84-.878,4.617,4.617,0,0,1-1.345-1.573,4.946,4.946,0,0,1-.513-2.362,5.214,5.214,0,0,1,1.858-4.2,8.052,8.052,0,0,1,5.362-1.576c.378,0,.777.012,1.2.033l1.2.07c.381.024.71.048.992.07s.486.048.6.07v-.593a2.972,2.972,0,0,0-1.114-2.608,5.149,5.149,0,0,0-3.025-.787,7.207,7.207,0,0,0-2.973.507,11.557,11.557,0,0,0-1.839,1.03l-1.49-2.132a8.205,8.205,0,0,1,1.029-.7,8.756,8.756,0,0,1,1.413-.646,11.6,11.6,0,0,1,1.842-.489,13.011,13.011,0,0,1,2.371-.192,7.567,7.567,0,0,1,5.005,1.519,5.322,5.322,0,0,1,1.825,4.324v10.1c0,.221.012.5.036.826h-2.972Zm-.037-5.74c-.095-.024-.276-.051-.546-.088s-.584-.064-.94-.088-.731-.045-1.133-.067-.789-.036-1.167-.036a6.187,6.187,0,0,0-2.177.316,3.693,3.693,0,0,0-1.309.786,2.506,2.506,0,0,0-.657,1.051,3.8,3.8,0,0,0-.175,1.1,2.354,2.354,0,0,0,.921,2.014,4.219,4.219,0,0,0,2.546.68,4.961,4.961,0,0,0,1.754-.313,5.3,5.3,0,0,0,1.468-.841,4.289,4.289,0,0,0,1.028-1.227,2.92,2.92,0,0,0,.387-1.433Z" fill="#00222b"/>
      <path id="Path_240" data-name="Path 240" d="M903.966,302.537h-2.972v-2.624h2.972v-5.32h3.185v5.32h4.815v2.624h-4.815v8.014a4.34,4.34,0,0,0,.617,2.7,2.169,2.169,0,0,0,1.753.732,3.574,3.574,0,0,0,1.52-.279,4.613,4.613,0,0,0,1.207-.839l1.45,1.923a6.731,6.731,0,0,1-2.1,1.418,6.862,6.862,0,0,1-2.567.437,4.834,4.834,0,0,1-3.842-1.4,6.538,6.538,0,0,1-1.219-4.373Z" fill="#00222b"/>
      <path id="Path_241" data-name="Path 241" d="M916.067,293.473h3.575v3.535h-3.575Zm.212,6.441h3.185v16.275h-3.185Z" fill="#00222b"/>
      <path id="Path_242" data-name="Path 242" d="M931.922,316.676a8.8,8.8,0,0,1-3.5-.683,8.277,8.277,0,0,1-2.742-1.871,8.914,8.914,0,0,1-1.806-2.748,8.866,8.866,0,0,1,0-6.684,8.872,8.872,0,0,1,1.806-2.749,8.319,8.319,0,0,1,2.742-1.87,8.782,8.782,0,0,1,3.5-.684,8.691,8.691,0,0,1,3.467.684,8.517,8.517,0,0,1,2.761,1.87,8.713,8.713,0,0,1,1.824,2.749,8.866,8.866,0,0,1,0,6.684,8.754,8.754,0,0,1-1.824,2.748,8.473,8.473,0,0,1-2.761,1.871,8.709,8.709,0,0,1-3.467.683m0-2.73a5.141,5.141,0,0,0,2.3-.507,5.4,5.4,0,0,0,1.732-1.33,5.744,5.744,0,0,0,1.081-1.889,6.6,6.6,0,0,0,.372-2.19,6.473,6.473,0,0,0-.372-2.15,5.691,5.691,0,0,0-1.1-1.907,5.512,5.512,0,0,0-1.732-1.348,5.006,5.006,0,0,0-2.282-.508,5.122,5.122,0,0,0-2.3.508,5.356,5.356,0,0,0-1.732,1.33,5.748,5.748,0,0,0-1.084,1.889,6.648,6.648,0,0,0-.371,2.186,6.508,6.508,0,0,0,.371,2.171,5.841,5.841,0,0,0,1.1,1.889,5.56,5.56,0,0,0,1.732,1.349,5.044,5.044,0,0,0,2.285.507" fill="#00222b"/>
      <path id="Path_243" data-name="Path 243" d="M944.235,316.186V300.947c0-.222-.012-.565-.033-1.036h3.043l.1,2.451c.212-.28.473-.589.777-.926a5.363,5.363,0,0,1,1.136-.927,6.758,6.758,0,0,1,1.573-.7,6.916,6.916,0,0,1,2.036-.28,5.9,5.9,0,0,1,4.778,1.859,7.582,7.582,0,0,1,1.557,5.038v9.764h-3.185v-9.518a4.8,4.8,0,0,0-.991-3.344,3.628,3.628,0,0,0-2.8-1.068,4.378,4.378,0,0,0-2.3.558,4.44,4.44,0,0,0-1.471,1.455,6.411,6.411,0,0,0-.795,2.032,10.817,10.817,0,0,0-.249,2.323v7.562Z" fill="#00222b"/>
      <path id="Path_244" data-name="Path 244" d="M990.453,312.091a8.257,8.257,0,0,1-1.2,1.433,10.95,10.95,0,0,1-1.984,1.525,12.366,12.366,0,0,1-2.69,1.2,10.886,10.886,0,0,1-3.362.492,12.235,12.235,0,0,1-4.779-.911,10.911,10.911,0,0,1-3.712-2.539,11.559,11.559,0,0,1-2.426-3.847,13.851,13.851,0,0,1,0-9.642,12.177,12.177,0,0,1,2.426-3.921,11.173,11.173,0,0,1,3.731-2.639,11.78,11.78,0,0,1,4.83-.966,11.554,11.554,0,0,1,3.363.456,11.348,11.348,0,0,1,2.6,1.139,10.124,10.124,0,0,1,1.913,1.488,10.863,10.863,0,0,1,1.29,1.539l-2.408,2.032a13.12,13.12,0,0,0-1.007-1.245,6.822,6.822,0,0,0-1.4-1.172,8.111,8.111,0,0,0-1.877-.875,7.782,7.782,0,0,0-2.441-.352,7.952,7.952,0,0,0-3.485.738,7.845,7.845,0,0,0-2.62,1.992,8.838,8.838,0,0,0-1.646,2.94,11.1,11.1,0,0,0-.565,3.568,10.719,10.719,0,0,0,.581,3.556,8.864,8.864,0,0,0,1.649,2.888,7.538,7.538,0,0,0,2.582,1.922,8.059,8.059,0,0,0,3.4.7,8.392,8.392,0,0,0,2.745-.4,7.885,7.885,0,0,0,1.944-.963,7.5,7.5,0,0,0,1.311-1.135c.341-.386.63-.708.866-.963Z" fill="#00222b"/>
      <path id="Path_245" data-name="Path 245" d="M1001.106,316.676a8.793,8.793,0,0,1-3.5-.683,8.271,8.271,0,0,1-2.743-1.871,8.928,8.928,0,0,1-1.8-2.748,8.866,8.866,0,0,1,0-6.684,8.885,8.885,0,0,1,1.8-2.749,8.314,8.314,0,0,1,2.743-1.87,9.222,9.222,0,0,1,6.971,0,8.513,8.513,0,0,1,2.76,1.87,8.734,8.734,0,0,1,1.825,2.749,8.866,8.866,0,0,1,0,6.684,8.775,8.775,0,0,1-1.825,2.748,8.468,8.468,0,0,1-2.76,1.871,8.716,8.716,0,0,1-3.467.683m0-2.73a5.145,5.145,0,0,0,2.3-.507,5.4,5.4,0,0,0,1.732-1.33,5.762,5.762,0,0,0,1.081-1.889,6.625,6.625,0,0,0,.371-2.19,6.5,6.5,0,0,0-.371-2.15,5.745,5.745,0,0,0-1.1-1.907,5.5,5.5,0,0,0-1.732-1.348,5,5,0,0,0-2.281-.508,5.116,5.116,0,0,0-2.3.508,5.356,5.356,0,0,0-1.732,1.33,5.732,5.732,0,0,0-1.084,1.889,6.65,6.65,0,0,0-.372,2.186,6.51,6.51,0,0,0,.372,2.171,5.825,5.825,0,0,0,1.1,1.889,5.549,5.549,0,0,0,1.732,1.349,5.038,5.038,0,0,0,2.285.507" fill="#00222b"/>
      <path id="Path_246" data-name="Path 246" d="M1013.419,316.186V300.947c0-.222-.012-.565-.034-1.036h3.043l.105,2.451a8.416,8.416,0,0,1,.743-.926,5.591,5.591,0,0,1,1.1-.927,6.241,6.241,0,0,1,1.5-.7,6.565,6.565,0,0,1,2-.28,6.055,6.055,0,0,1,3.169.757,5.145,5.145,0,0,1,1.966,2.183,10.355,10.355,0,0,1,2.419-2.044,6.6,6.6,0,0,1,3.56-.9,5.713,5.713,0,0,1,4.7,1.874,7.718,7.718,0,0,1,1.523,5.023v9.764h-3.184v-9.518a5.12,5.12,0,0,0-.9-3.344,3.256,3.256,0,0,0-2.638-1.068,4.137,4.137,0,0,0-1.821.4,4.857,4.857,0,0,0-1.452,1.069,4.684,4.684,0,0,0-.955,1.555,5.255,5.255,0,0,0-.335,1.874v9.029h-3.185v-9.518a5.1,5.1,0,0,0-.906-3.344,3.2,3.2,0,0,0-2.6-1.068,4.051,4.051,0,0,0-2.2.558,4.56,4.56,0,0,0-1.434,1.455,6.135,6.135,0,0,0-.777,2.05,11.7,11.7,0,0,0-.231,2.3v7.562Z" fill="#00222b"/>
      <path id="Path_247" data-name="Path 247" d="M1043.5,316.186V300.947c0-.222-.012-.565-.034-1.036h3.043l.1,2.451a8.408,8.408,0,0,1,.743-.926,5.593,5.593,0,0,1,1.1-.927,6.243,6.243,0,0,1,1.5-.7,6.571,6.571,0,0,1,2-.28,6.051,6.051,0,0,1,3.166.757,5.151,5.151,0,0,1,1.966,2.183,10.36,10.36,0,0,1,2.419-2.044,6.6,6.6,0,0,1,3.56-.9,5.713,5.713,0,0,1,4.7,1.874,7.718,7.718,0,0,1,1.523,5.023v9.764h-3.184v-9.518a5.12,5.12,0,0,0-.9-3.344,3.256,3.256,0,0,0-2.638-1.068,4.137,4.137,0,0,0-1.821.4,4.857,4.857,0,0,0-1.452,1.069,4.7,4.7,0,0,0-.956,1.555,5.278,5.278,0,0,0-.334,1.874v9.029h-3.185v-9.518a5.12,5.12,0,0,0-.9-3.344,3.215,3.215,0,0,0-2.6-1.068,4.051,4.051,0,0,0-2.195.558,4.589,4.589,0,0,0-1.434,1.455,6.135,6.135,0,0,0-.777,2.05,11.7,11.7,0,0,0-.231,2.3v7.562Z" fill="#00222b"/>
      <path id="Path_248" data-name="Path 248" d="M1073.508,293.473h3.575v3.535h-3.575Zm.212,6.441h3.184v16.275h-3.184Z" fill="#00222b"/>
      <path id="Path_249" data-name="Path 249" d="M1082.495,312.091a6.678,6.678,0,0,0,2.125,1.4,7.238,7.238,0,0,0,2.866.525,6.1,6.1,0,0,0,2.656-.51,1.669,1.669,0,0,0,1.059-1.591,1.9,1.9,0,0,0-.23-.96,2.041,2.041,0,0,0-.777-.72,6.916,6.916,0,0,0-1.453-.577q-.9-.264-2.247-.577a13.837,13.837,0,0,1-1.892-.559,6.249,6.249,0,0,1-1.683-.929,4.608,4.608,0,0,1-1.2-1.4,3.98,3.98,0,0,1-.46-1.977,3.9,3.9,0,0,1,.549-2.08,4.822,4.822,0,0,1,1.465-1.506,7.125,7.125,0,0,1,2.073-.927,9.018,9.018,0,0,1,2.389-.315,10.611,10.611,0,0,1,3.59.543,8.272,8.272,0,0,1,2.638,1.522l-1.735,2.168a6.453,6.453,0,0,0-1.855-1.118,6.879,6.879,0,0,0-2.6-.455,5.22,5.22,0,0,0-2.441.489,1.681,1.681,0,0,0-.919,1.609,1.662,1.662,0,0,0,1.22,1.558,20.428,20.428,0,0,0,3.2.963,19.586,19.586,0,0,1,2.177.647,6.7,6.7,0,0,1,1.766.944,4.249,4.249,0,0,1,1.206,1.418,4.313,4.313,0,0,1,.443,2.032,4.044,4.044,0,0,1-.569,2.15,4.876,4.876,0,0,1-1.52,1.558,7.206,7.206,0,0,1-2.192.945,10.526,10.526,0,0,1-2.586.315q-4.671,0-7.008-2.484Z" fill="#00222b"/>
      <path id="Path_250" data-name="Path 250" d="M1099.2,312.091a6.657,6.657,0,0,0,2.125,1.4,7.237,7.237,0,0,0,2.865.525,6.093,6.093,0,0,0,2.656-.51,1.669,1.669,0,0,0,1.059-1.591,1.9,1.9,0,0,0-.23-.96,2.026,2.026,0,0,0-.777-.72,6.907,6.907,0,0,0-1.452-.577q-.9-.264-2.248-.577a13.844,13.844,0,0,1-1.892-.559,6.28,6.28,0,0,1-1.683-.929,4.6,4.6,0,0,1-1.2-1.4,3.97,3.97,0,0,1-.461-1.977,3.887,3.887,0,0,1,.55-2.08,4.808,4.808,0,0,1,1.464-1.506,7.149,7.149,0,0,1,2.073-.927,9.018,9.018,0,0,1,2.389-.315,10.607,10.607,0,0,1,3.59.543,8.259,8.259,0,0,1,2.638,1.522l-1.735,2.168a6.452,6.452,0,0,0-1.855-1.118,6.879,6.879,0,0,0-2.6-.455,5.22,5.22,0,0,0-2.441.489,1.682,1.682,0,0,0-.918,1.609,1.661,1.661,0,0,0,1.219,1.558,20.468,20.468,0,0,0,3.2.963,19.509,19.509,0,0,1,2.177.647,6.685,6.685,0,0,1,1.766.944,4.264,4.264,0,0,1,1.207,1.418,4.325,4.325,0,0,1,.442,2.032,4.053,4.053,0,0,1-.568,2.15,4.9,4.9,0,0,1-1.524,1.558,7.157,7.157,0,0,1-2.189.945,10.526,10.526,0,0,1-2.586.315q-4.671,0-7.007-2.484Z" fill="#00222b"/>
      <path id="Path_251" data-name="Path 251" d="M1114.768,293.473h3.575v3.535h-3.575Zm.212,6.441h3.185v16.275h-3.185Z" fill="#00222b"/>
      <path id="Path_252" data-name="Path 252" d="M1130.622,316.676a8.8,8.8,0,0,1-3.5-.683,8.278,8.278,0,0,1-2.742-1.871,8.929,8.929,0,0,1-1.8-2.748,8.853,8.853,0,0,1,0-6.684,8.886,8.886,0,0,1,1.8-2.749,8.32,8.32,0,0,1,2.742-1.87,8.781,8.781,0,0,1,3.5-.684,8.691,8.691,0,0,1,3.467.684,8.517,8.517,0,0,1,2.761,1.87,8.712,8.712,0,0,1,1.824,2.749,8.865,8.865,0,0,1,0,6.684,8.753,8.753,0,0,1-1.824,2.748,8.473,8.473,0,0,1-2.761,1.871,8.709,8.709,0,0,1-3.467.683m0-2.73a5.139,5.139,0,0,0,2.3-.507,5.392,5.392,0,0,0,1.732-1.33,5.746,5.746,0,0,0,1.081-1.889,6.6,6.6,0,0,0,.372-2.19,6.473,6.473,0,0,0-.372-2.15,5.691,5.691,0,0,0-1.1-1.907,5.5,5.5,0,0,0-1.732-1.348,5,5,0,0,0-2.282-.508,5.122,5.122,0,0,0-2.3.508,5.357,5.357,0,0,0-1.732,1.33,5.75,5.75,0,0,0-1.084,1.889,6.675,6.675,0,0,0-.371,2.186,6.534,6.534,0,0,0,.371,2.171,5.828,5.828,0,0,0,1.1,1.889,5.538,5.538,0,0,0,1.732,1.349,5.037,5.037,0,0,0,2.284.507" fill="#00222b"/>
      <path id="Path_253" data-name="Path 253" d="M1142.937,316.186V300.947c0-.222-.013-.565-.034-1.036h3.043l.1,2.451c.212-.28.473-.589.777-.926a5.344,5.344,0,0,1,1.137-.927,6.732,6.732,0,0,1,1.572-.7,6.916,6.916,0,0,1,2.036-.28,5.9,5.9,0,0,1,4.778,1.859,7.582,7.582,0,0,1,1.557,5.038v9.764h-3.184v-9.518a4.8,4.8,0,0,0-.992-3.344,3.628,3.628,0,0,0-2.795-1.068,4.378,4.378,0,0,0-2.3.558,4.449,4.449,0,0,0-1.471,1.455,6.434,6.434,0,0,0-.8,2.032,10.817,10.817,0,0,0-.249,2.323v7.562Z" fill="#00222b"/>
      <path id="Path_254" data-name="Path 254" d="M446.317,249.951l-2.171-2.18-2.168,2.18,2.168,2.18Z" fill="#00222b"/>
      <path id="Path_255" data-name="Path 255" d="M441.207,249.951l-2.171-2.18-2.168,2.18,2.168,2.18Z" fill="#00222b"/>
      <path id="Path_256" data-name="Path 256" d="M601.336,276.3l2.171,2.18,2.168-2.18-2.168-2.18Z" fill="#00222b"/>
      <path id="Path_257" data-name="Path 257" d="M610.823,262.484a6.194,6.194,0,0,1-1.014-.258c-.374-.128-.8-.289-1.28-.489s-1.032-.431-1.662-.708c-.774-.346-1.443-.635-2.014-.865a15.7,15.7,0,0,0-1.523-.538,11.17,11.17,0,0,0-1.207-.276,7.1,7.1,0,0,0-1.066-.085,5.334,5.334,0,0,0-2.853.744,6.48,6.48,0,0,0-2.155,2.4l1.612,1.245a5.359,5.359,0,0,1,1.382-1.142,3.349,3.349,0,0,1,1.523-.309,5.422,5.422,0,0,1,.946.085,9.389,9.389,0,0,1,1.117.276c.421.124.913.3,1.471.513s1.226.489,1.993.808l1.788.756a18.185,18.185,0,0,0-1.907.714q-1,.437-2.221,1.023c-.915.465-1.753.857-2.521,1.182a19.765,19.765,0,0,1-2.171.786,14.677,14.677,0,0,1-1.981.431,13.592,13.592,0,0,1-1.974.14h-2.8a5.051,5.051,0,0,1-2.641-.571,2.056,2.056,0,0,1-.4-.307,7.9,7.9,0,0,0,.135-1.442,8.651,8.651,0,0,0-.454-2.821,8.544,8.544,0,0,0-1.21-2.339,5.945,5.945,0,0,0-1.766-1.591,4.209,4.209,0,0,0-2.137-.586,4.385,4.385,0,0,0-2.712.917,9.337,9.337,0,0,0-2.328,2.891l-1.959,3.459a7.064,7.064,0,0,1-.774,1.142,3.544,3.544,0,0,1-.82.729,3,3,0,0,1-.979.4,5.516,5.516,0,0,1-1.21.121h-123.2a3.861,3.861,0,0,1-2.484-.641,2.535,2.535,0,0,1-.734-2.129l.138-11.734-2.764.483v2.113a15.52,15.52,0,0,0-6.6,2.734,5.608,5.608,0,0,0-2.361,4.534,4.242,4.242,0,0,0,1.679,3.462,5.54,5.54,0,0,0,1.8.9,7.711,7.711,0,0,0,2.223.309,6.917,6.917,0,0,0,3.467-.829q.594,3.909,5.635,3.912h123.2a6.176,6.176,0,0,0,2.834-.6,5.873,5.873,0,0,0,2.138-1.993,7.548,7.548,0,0,0,2.607,2.1,7.465,7.465,0,0,0,3.31.744,5.308,5.308,0,0,0,4.008-1.507c.04-.042.067-.1.1-.139a4.293,4.293,0,0,0,.789.589,6.768,6.768,0,0,0,3.464.814h2.8a14.238,14.238,0,0,0,2.239-.173,15.167,15.167,0,0,0,2.257-.553,19.473,19.473,0,0,0,2.521-1.042c.9-.437,1.91-.968,3.028-1.588.838-.486,1.593-.9,2.257-1.233s1.277-.625,1.836-.881,1.1-.467,1.612-.64,1.038-.328,1.579-.468v-2.906h-.7a6.154,6.154,0,0,1-.909-.07m-169.651,3.462a8.014,8.014,0,0,1-1.419-.122,4.537,4.537,0,0,1-1.207-.379,2.168,2.168,0,0,1-.823-.677,1.741,1.741,0,0,1-.3-1.039,2.116,2.116,0,0,1,.544-1.4,4.98,4.98,0,0,1,1.468-1.145,10.081,10.081,0,0,1,2.122-.829,15.618,15.618,0,0,1,2.484-.468l.071,5.573a8.15,8.15,0,0,1-2.942.486m142.977,3.322a5.976,5.976,0,0,1-2.712-.656,5.643,5.643,0,0,1-2.051-1.664l1.087-2.074q1.294-2.529,3.185-2.527a2.671,2.671,0,0,1,1.277.328,3.607,3.607,0,0,1,1.087.9,4.158,4.158,0,0,1,.734,1.333,4.848,4.848,0,0,1,.261,1.592,2.675,2.675,0,0,1-.768,2.043,2.944,2.944,0,0,1-2.1.726" fill="#00222b"/>
      <path id="Path_258" data-name="Path 258" d="M637.845,257.36l-2.171-2.183-2.168,2.183,2.168,2.18Z" fill="#00222b"/>
      <path id="Path_259" data-name="Path 259" d="M642.956,257.36l-2.171-2.183-2.168,2.183,2.168,2.18Z" fill="#00222b"/>
      <path id="Path_260" data-name="Path 260" d="M649.816,267.156a1.094,1.094,0,0,1-.368.829,2.64,2.64,0,0,1-.943.556,5.964,5.964,0,0,1-1.314.3,12.692,12.692,0,0,1-1.468.088h-2.8q-4.168,0-4.167-2.147c0-.185.046-.681.141-1.491s.2-1.7.313-2.664l-2.379-.279c-.047.3-.093.65-.139,1.042s-.1.783-.175,1.175-.141.777-.212,1.163-.129.7-.175.951a2.42,2.42,0,0,1-1.382,1.727,8.238,8.238,0,0,1-3.377.523h-2.8a8.886,8.886,0,0,1-1.437-.1,2.562,2.562,0,0,1-1.748-1.112,5.6,5.6,0,0,1-.592-1.142c-.169-.367-.4-.981-.688-1.834s-.574-1.707-.857-2.563l-2.626,1.215q.669,1.973,1.177,3.289a19.152,19.152,0,0,0,1,2.213,6.943,6.943,0,0,1-2.73,3.982,22.327,22.327,0,0,1-6.194,3.355l1.606,2.737a18.942,18.942,0,0,0,6.059-3.374,9.956,9.956,0,0,0,3.15-4.556,6.827,6.827,0,0,0,3.885,1.009h2.8a10.6,10.6,0,0,0,3.795-.611,4.439,4.439,0,0,0,2.294-1.71c.909,1.543,2.733,2.321,5.463,2.321h2.8a11.406,11.406,0,0,0,2.429-.258,6.35,6.35,0,0,0,2.1-.869,4.732,4.732,0,0,0,1.508-1.591,4.782,4.782,0,0,0,.578-2.442l.138-17.17-2.764.482Z" fill="#00222b"/>
      <path id="Path_261" data-name="Path 261" d="M657.063,272.037h2.417l.172-22.33-2.764.486Z" fill="#00222b"/>
      <path id="Path_262" data-name="Path 262" d="M669.243,259.263a4.9,4.9,0,0,0-2.2.5,5.224,5.224,0,0,0-1.753,1.4,6.849,6.849,0,0,0-1.155,2.129,8.367,8.367,0,0,0-.421,2.681,6.126,6.126,0,0,0,1.4,4.191,4.693,4.693,0,0,0,3.709,1.592,6.863,6.863,0,0,0,1.981-.277,5.2,5.2,0,0,0,1.624-.8q-1.151,4.4-8.715,5.436l1.262,2.839a14.15,14.15,0,0,0,4.131-1.2,10.93,10.93,0,0,0,3.166-2.233,9.534,9.534,0,0,0,2.03-3.115,10.116,10.116,0,0,0,.718-3.845,13,13,0,0,0-1.52-6.869,4.77,4.77,0,0,0-4.256-2.442m1.944,9.417a6.715,6.715,0,0,1-1.91.277,3.332,3.332,0,0,1-2.359-.8,2.914,2.914,0,0,1-.86-2.25,3.908,3.908,0,0,1,.86-2.633,2.865,2.865,0,0,1,4.69.486,9.24,9.24,0,0,1,1.028,4.224,4.329,4.329,0,0,1-1.449.692" fill="#00222b"/>
      <path id="Path_263" data-name="Path 263" d="M838.021,258.017l2.171-2.18-2.171-2.18-2.171,2.18Z" fill="#00222b"/>
      <path id="Path_264" data-name="Path 264" d="M835.08,255.836l-2.171-2.18-2.168,2.18,2.168,2.18Z" fill="#00222b"/>
      <path id="Path_265" data-name="Path 265" d="M837.635,251.371l-2.171-2.18-2.168,2.18,2.168,2.18Z" fill="#00222b"/>
      <path id="Path_266" data-name="Path 266" d="M856.993,257.36l-2.171-2.183-2.168,2.183,2.168,2.18Z" fill="#00222b"/>
      <path id="Path_267" data-name="Path 267" d="M874.808,267.156a1.1,1.1,0,0,1-.365.829,2.68,2.68,0,0,1-.946.556,5.925,5.925,0,0,1-1.314.3,12.719,12.719,0,0,1-1.468.088h-11.2q-4.164,0-4.167-2.147c0-.185.046-.681.141-1.491s.2-1.7.317-2.664l-2.38-.279c-.046.3-.092.65-.141,1.042s-.1.783-.175,1.175-.139.777-.209,1.163-.129.7-.175.951a2.43,2.43,0,0,1-1.382,1.727,8.266,8.266,0,0,1-3.378.523,5.044,5.044,0,0,1-2.644-.574,1.919,1.919,0,0,1-.743-.8c.015-.064.03-.115.043-.182.083-.392.15-.841.209-1.349s.119-1.087.174-1.731.123-1.406.194-2.286l-2.38-.207c-.049.416-.095.875-.141,1.385s-.1,1-.157,1.473-.117.9-.175,1.3-.11.689-.156.9q-.42,2.113-3.151,2.113a3.759,3.759,0,0,1-2.257-.574,1.859,1.859,0,0,1-.79-1.606c0-.185.047-.681.142-1.491s.2-1.7.313-2.664l-2.38-.279c-.049.3-.092.65-.138,1.042s-.108.783-.175,1.175-.141.777-.212,1.163-.129.7-.175.951q-.456,2.281-3.393,2.283a4,4,0,0,1-2.663-.8,3.2,3.2,0,0,1-.651-.8c.24-.82.467-1.789.688-2.906l-2.279-.623c-.325,1.1-.623,2-.89,2.666a4.829,4.829,0,0,1-.891,1.522,2.427,2.427,0,0,1-1.176.692,8.3,8.3,0,0,1-1.766.21h-123.2a8.846,8.846,0,0,1-1.434-.1,2.56,2.56,0,0,1-1.751-1.112,5.751,5.751,0,0,1-.6-1.142c-.163-.367-.39-.981-.682-1.834s-.581-1.707-.86-2.563l-2.626,1.215q.664,1.973,1.173,3.289a19.285,19.285,0,0,0,1,2.213,6.943,6.943,0,0,1-2.73,3.982,22.254,22.254,0,0,1-6.2,3.355l1.613,2.737a18.941,18.941,0,0,0,6.055-3.374,9.95,9.95,0,0,0,3.151-4.556,6.827,6.827,0,0,0,3.885,1.009h123.2a12.077,12.077,0,0,0,2.853-.347,4.035,4.035,0,0,0,1.907-1.144,4.515,4.515,0,0,0,.43-.556,4.058,4.058,0,0,0,.814.953,5.315,5.315,0,0,0,3.516,1.094,6.838,6.838,0,0,0,2.644-.486,4.789,4.789,0,0,0,1.907-1.385,5.023,5.023,0,0,0,4.342,1.871,5.752,5.752,0,0,0,4.625-1.731,4.4,4.4,0,0,0,1.118.914,6.746,6.746,0,0,0,3.464.817,10.592,10.592,0,0,0,3.795-.611,4.448,4.448,0,0,0,2.294-1.71c.909,1.543,2.73,2.321,5.46,2.321h11.2a11.386,11.386,0,0,0,2.429-.258,6.364,6.364,0,0,0,2.1-.869,4.522,4.522,0,0,0,2.085-4.033l.138-17.17-2.764.482Z" fill="#00222b"/>
      <path id="Path_268" data-name="Path 268" d="M882.055,272.037h2.417l.175-22.33-2.767.486Z" fill="#00222b"/>
      <path id="Path_269" data-name="Path 269" d="M894.235,259.263a4.9,4.9,0,0,0-2.2.5,5.233,5.233,0,0,0-1.753,1.4,6.884,6.884,0,0,0-1.152,2.129,8.2,8.2,0,0,0-.424,2.681,6.126,6.126,0,0,0,1.4,4.191,4.693,4.693,0,0,0,3.709,1.592,6.843,6.843,0,0,0,1.981-.277,5.217,5.217,0,0,0,1.625-.8q-1.152,4.4-8.716,5.436l1.263,2.839a14.1,14.1,0,0,0,4.127-1.2,10.9,10.9,0,0,0,3.169-2.233,9.591,9.591,0,0,0,2.033-3.115,10.174,10.174,0,0,0,.715-3.845,12.964,12.964,0,0,0-1.523-6.869,4.762,4.762,0,0,0-4.253-2.442m1.944,9.417a6.715,6.715,0,0,1-1.91.277,3.332,3.332,0,0,1-2.359-.8,2.913,2.913,0,0,1-.859-2.25,3.907,3.907,0,0,1,.859-2.633,2.787,2.787,0,0,1,2.221-1,2.757,2.757,0,0,1,2.469,1.488,9.287,9.287,0,0,1,1.032,4.224,4.392,4.392,0,0,1-1.453.692" fill="#00222b"/>
      <path id="Path_270" data-name="Path 270" d="M932.847,262.431c-.187-.726-.4-1.44-.648-2.147a12.176,12.176,0,0,0-.823-1.886l-2.518,1.385a18.461,18.461,0,0,1,.838,1.837q.387.966.682,1.916a15.911,15.911,0,0,1,.457,1.819,8.921,8.921,0,0,1,.157,1.525c0,.3-.252.583-.752.847a9.041,9.041,0,0,1-2.03.711,22.424,22.424,0,0,1-3.013.482q-1.731.174-3.691.174a31.765,31.765,0,0,1-4.287-.243,10.61,10.61,0,0,1-2.89-.741,3.534,3.534,0,0,1-1.627-1.318,3.6,3.6,0,0,1-.51-1.956,7.871,7.871,0,0,1,.3-2.007,15,15,0,0,1,.857-2.321l-1.852-.9a15.6,15.6,0,0,0-1.437,3.238,10.448,10.448,0,0,0-.525,3.1,5.541,5.541,0,0,0,.7,2.855,5.308,5.308,0,0,0,2.171,1.974,12.133,12.133,0,0,0,3.728,1.142,34.236,34.236,0,0,0,5.374.364q6.126,0,9.031-1.366a4.469,4.469,0,0,0,2.905-4.243,14.293,14.293,0,0,0-.159-2.041,20.1,20.1,0,0,0-.436-2.2" fill="#00222b"/>
      <path id="Path_271" data-name="Path 271" d="M919.335,276.988l2.171,2.18,2.168-2.18-2.168-2.18Z" fill="#00222b"/>
      <path id="Path_272" data-name="Path 272" d="M946.535,262.638a17.123,17.123,0,0,0-1.788-2.611A21.292,21.292,0,0,0,942.4,257.6l-2.171,2.044a23.68,23.68,0,0,1,2.156,2.129,18.676,18.676,0,0,1,1.71,2.232,12.06,12.06,0,0,1,1.124,2.147,5.178,5.178,0,0,1,.4,1.834c0,.14-.157.283-.473.435a5.59,5.59,0,0,1-1.244.379c-.513.1-1.1.192-1.769.258a19.562,19.562,0,0,1-2.045.107c-.654,0-1.339-.031-2.051-.088a18.841,18.841,0,0,1-1.978-.259l.666,3.22c.467.066,1.023.124,1.662.173s1.21.066,1.7.066q4.233,0,6.108-1.035a3.614,3.614,0,0,0,1.87-3.426,8.669,8.669,0,0,0-.4-2.529,13.878,13.878,0,0,0-1.136-2.649" fill="#00222b"/>
      <path id="Path_273" data-name="Path 273" d="M959.941,261.722a22.39,22.39,0,0,0,2.294-5.658,26.627,26.627,0,0,0,.82-6.356l-2.763.486a28.372,28.372,0,0,1-.526,5.348,17.772,17.772,0,0,1-1.47,4.346q-.77-.9-1.68-1.889c-.605-.656-1.238-1.315-1.892-1.971s-1.3-1.288-1.941-1.889-1.256-1.139-1.839-1.628l-1.959,2.32a44.043,44.043,0,0,1,4.115,3.392q2.045,1.91,3.829,3.915c-.418.6-.872,1.212-1.36,1.831s-1,1.233-1.527,1.819-1.053,1.148-1.593,1.68a20.5,20.5,0,0,1-1.576,1.418l.458,2.563a8.989,8.989,0,0,0,2.327.6,19.953,19.953,0,0,0,3.028.225,10.161,10.161,0,0,0,5.024-1,3.155,3.155,0,0,0,1.732-2.873,6.32,6.32,0,0,0-.8-2.788,23.654,23.654,0,0,0-2.7-3.893m-.07,7.252a8.879,8.879,0,0,1-2.9.4c-.513,0-1-.018-1.468-.052a8.492,8.492,0,0,1-1.3-.191,26.357,26.357,0,0,0,2.312-2.442,33.456,33.456,0,0,0,2.067-2.751q.525.624.961,1.23c.292.4.544.783.753,1.142a10.526,10.526,0,0,1,.506.968,1.889,1.889,0,0,1,.191.678q0,.624-1.118,1.02" fill="#00222b"/>
      <path id="Path_274" data-name="Path 274" d="M953.71,247.354c-.326.025-.664.058-1.014.1s-.724.106-1.121.173a3.372,3.372,0,0,1-1.452-.45,1.01,1.01,0,0,1-.544-.865.975.975,0,0,1,.4-.8,1.653,1.653,0,0,1,1.031-.31,2.176,2.176,0,0,1,1.121.31l.7-1a2.507,2.507,0,0,0-1.96-.865,2.672,2.672,0,0,0-1.925.777,2.522,2.522,0,0,0-.8,1.886,2.077,2.077,0,0,0,1.152,1.9c-.255.091-.522.185-.8.276s-.58.2-.909.313l.492,1.245a23.632,23.632,0,0,1,5.392-1.035Z" fill="#00222b"/>
      <path id="Path_275" data-name="Path 275" d="M967.432,272.037h2.417l.175-22.33-2.767.486Z" fill="#00222b"/>
      <path id="Path_276" data-name="Path 276" d="M986.02,249.951l-2.171-2.18-2.168,2.18,2.168,2.18Z" fill="#00222b"/>
      <path id="Path_277" data-name="Path 277" d="M991.131,249.951l-2.171-2.18-2.168,2.18,2.168,2.18Z" fill="#00222b"/>
      <path id="Path_278" data-name="Path 278" d="M1118.915,258.64l.492,1.245a23.719,23.719,0,0,1,5.389-1.038l.246-1.659c-.326.022-.667.058-1.014.1s-.728.1-1.124.173a3.357,3.357,0,0,1-1.449-.453,1.01,1.01,0,0,1-.544-.865.97.97,0,0,1,.4-.8,1.641,1.641,0,0,1,1.031-.31,2.176,2.176,0,0,1,1.121.31l.7-1a2.5,2.5,0,0,0-1.96-.869,2.678,2.678,0,0,0-1.928.784,2.522,2.522,0,0,0-.805,1.883,2.075,2.075,0,0,0,1.158,1.9c-.258.094-.528.185-.808.276s-.583.2-.909.313" fill="#00222b"/>
      <path id="Path_279" data-name="Path 279" d="M1130.817,276.988l2.171,2.18,2.168-2.18-2.168-2.18Z" fill="#00222b"/>
      <path id="Path_280" data-name="Path 280" d="M1135.928,276.988l2.171,2.18,2.168-2.18-2.168-2.18Z" fill="#00222b"/>
      <path id="Path_281" data-name="Path 281" d="M1158.243,262.775a12.4,12.4,0,0,0-1.96-3.495,14.942,14.942,0,0,0-3.08-2.891,16.627,16.627,0,0,0-4.047-2.078l-1.186,2.667a15.175,15.175,0,0,1,3.517,1.716,12.3,12.3,0,0,1,2.711,2.4,10.672,10.672,0,0,1,1.735,2.891,8.56,8.56,0,0,1,.611,3.2c0,.531-.371.959-1.118,1.281a7.314,7.314,0,0,1-2.871.483c-.279,0-.549-.006-.807-.018s-.513-.027-.768-.052a5.247,5.247,0,0,0,1.717-4.014,6.08,6.08,0,0,0-.387-2.163,5.682,5.682,0,0,0-1.069-1.782,4.988,4.988,0,0,0-1.591-1.2,4.681,4.681,0,0,0-3.924,0,5.011,5.011,0,0,0-1.591,1.2,5.767,5.767,0,0,0-1.069,1.764,6.02,6.02,0,0,0-.384,2.181,5.3,5.3,0,0,0,1.646,3.911c-.512.049-1.047.082-1.612.1s-1.142.037-1.747.037q-4.164,0-4.167-2.144c0-.186.046-.684.141-1.491s.2-1.7.313-2.667l-2.377-.276c-.049.3-.095.647-.141,1.038s-.1.787-.175,1.179-.141.777-.212,1.16-.129.695-.175.953a2.42,2.42,0,0,1-1.382,1.728,8.3,8.3,0,0,1-3.375.52h-2.8q-4.17,0-4.168-2.144c0-.186.046-.684.142-1.491s.2-1.7.316-2.667l-2.383-.276q-.069.451-.138,1.038c-.049.4-.108.787-.175,1.179s-.142.777-.212,1.16-.126.695-.172.953a2.424,2.424,0,0,1-1.385,1.728,8.307,8.307,0,0,1-3.378.52h-120.4a3.876,3.876,0,0,1-2.487-.641,2.535,2.535,0,0,1-.734-2.129l.141-11.737-2.767.489v2.107a15.581,15.581,0,0,0-6.6,2.736,5.612,5.612,0,0,0-2.365,4.537,4.22,4.22,0,0,0,.458,1.987,4.283,4.283,0,0,0,1.222,1.475,5.635,5.635,0,0,0,1.8.9,7.706,7.706,0,0,0,2.223.31,6.924,6.924,0,0,0,3.464-.829q.6,3.913,5.635,3.908h120.4a10.675,10.675,0,0,0,3.8-.6,4.453,4.453,0,0,0,2.293-1.71q1.363,2.314,5.461,2.314h2.8a10.687,10.687,0,0,0,3.8-.6,4.485,4.485,0,0,0,2.294-1.71q1.363,2.314,5.46,2.314a17.654,17.654,0,0,0,3.221-.324,22.787,22.787,0,0,0,3.323-.884,14.67,14.67,0,0,0,2.592.884,10.962,10.962,0,0,0,2.555.324,6.921,6.921,0,0,0,4.621-1.4,4.916,4.916,0,0,0,1.646-3.961,11.339,11.339,0,0,0-.684-3.9m-172.258,3.168a7.915,7.915,0,0,1-1.416-.122,4.322,4.322,0,0,1-1.207-.38,2.144,2.144,0,0,1-.826-.674,1.719,1.719,0,0,1-.3-1.035,2.126,2.126,0,0,1,.544-1.406,5.014,5.014,0,0,1,1.471-1.139,9.916,9.916,0,0,1,2.119-.835,15.709,15.709,0,0,1,2.481-.465l.07,5.573a8.1,8.1,0,0,1-2.938.483m161.669,2.113a5.709,5.709,0,0,1-2.033-1.366,2.657,2.657,0,0,1-.734-1.819,2.819,2.819,0,0,1,4.8-1.993,2.734,2.734,0,0,1,.8,1.993q0,2.217-2.834,3.185" fill="#00222b"/>
    </g>
    <g id="Group_165" data-name="Group 165">
      <rect id="Rectangle_9" data-name="Rectangle 9" width="5.926" height="190.028" transform="translate(1225.509 133.574)" fill="#1a1818"/>
    </g>
  </g>
</svg>
