<svg xmlns="http://www.w3.org/2000/svg" width="400" height="500" viewBox="0 0 764.85 923.272">
  <g id="Group_262" data-name="Group 262" transform="translate(-811.575)">
    <path id="Path_1398" data-name="Path 1398" d="M811.575,752.379H966.427L950.387,923.272h487.226l-14.807-170.893h153.619V0H811.575Z" fill="#f54224"/>
    <g id="Group_204" data-name="Group 204">
      <g id="Group_201" data-name="Group 201">
        <path id="Path_1399" data-name="Path 1399" d="M1185.118,853.984h17.764l-8.939-37.018Z" fill="#f1e8c6"/>
        <path id="Path_1400" data-name="Path 1400" d="M1203.57,813.757h22.967s-8.509-13.815-25.724-6.8l16.223-16.183S1201.221,787,1194,804.188c-7.22-17.191-23.036-13.409-23.036-13.409l16.223,16.183c-17.215-7.02-25.724,6.8-25.724,6.8h22.967c-17.191,7.221-13.408,23.036-13.408,23.036L1194,813.757l22.978,23.036S1220.761,820.978,1203.57,813.757Z" fill="#f1e8c6"/>
      </g>
      <g id="Group_202" data-name="Group 202">
        <path id="Path_1401" data-name="Path 1401" d="M1310,790.426h-32.537l16.268,16.269Z" fill="#0b090a"/>
        <path id="Path_1402" data-name="Path 1402" d="M1293.735,806.694H1261.2l16.269,16.269Z" fill="#0b090a"/>
        <path id="Path_1403" data-name="Path 1403" d="M1326.273,806.695h-32.537L1310,822.963Z" fill="#0b090a"/>
        <path id="Path_1404" data-name="Path 1404" d="M1310,822.963h-32.537l16.268,16.269Z" fill="#0b090a"/>
        <path id="Path_1405" data-name="Path 1405" d="M1277.467,855.5H1310l-16.269-16.269Z" fill="#0b090a"/>
        <path id="Path_1406" data-name="Path 1406" d="M1261.2,839.231h32.537l-16.268-16.269Z" fill="#0b090a"/>
        <path id="Path_1407" data-name="Path 1407" d="M1293.736,839.231h32.537L1310,822.962Z" fill="#0b090a"/>
        <path id="Path_1408" data-name="Path 1408" d="M1277.467,822.963H1310l-16.269-16.269Z" fill="#0b090a"/>
      </g>
      <g id="Group_203" data-name="Group 203">
        <path id="Path_1409" data-name="Path 1409" d="M1110.533,790.426H1078l16.269,16.269Z" fill="#0b090a"/>
        <path id="Path_1410" data-name="Path 1410" d="M1094.264,806.694h-32.537L1078,822.963Z" fill="#0b090a"/>
        <path id="Path_1411" data-name="Path 1411" d="M1126.8,806.695h-32.537l16.268,16.269Z" fill="#0b090a"/>
        <path id="Path_1412" data-name="Path 1412" d="M1110.533,822.963H1078l16.269,16.269Z" fill="#0b090a"/>
        <path id="Path_1413" data-name="Path 1413" d="M1078,855.5h32.537l-16.268-16.269Z" fill="#0b090a"/>
        <path id="Path_1414" data-name="Path 1414" d="M1061.727,839.231h32.537L1078,822.963Z" fill="#0b090a"/>
        <path id="Path_1415" data-name="Path 1415" d="M1094.265,839.231H1126.8l-16.269-16.269Z" fill="#0b090a"/>
        <path id="Path_1416" data-name="Path 1416" d="M1078,822.963h32.537l-16.268-16.269Z" fill="#0b090a"/>
      </g>
    </g>
    <g id="Group_261" data-name="Group 261">
      <g id="Group_260" data-name="Group 260">
        <g id="Group_259" data-name="Group 259">
          <g id="Group_258" data-name="Group 258">
            <g id="Group_205" data-name="Group 205">
              <path id="Path_1417" data-name="Path 1417" d="M1074.166,402.26h0l-6.835,6.884c-.139,0-.139.281,0,.281l6.835,6.883c0,.14.279.14.279,0l6.837-6.883c.139,0,.139-.281,0-.281l-6.837-6.884C1074.445,402.12,1074.166,402.12,1074.166,402.26Z" fill="#f1e8c6"/>
            </g>
            <g id="Group_206" data-name="Group 206">
              <path id="Path_1418" data-name="Path 1418" d="M1051.426,287.5h0c.14.131.419.131.419,0l6.837-6.889a.274.274,0,0,0,0-.43l-6.837-6.871c0-.149-.279-.149-.419,0l-6.7,6.871a.273.273,0,0,0,0,.43Z" fill="#f1e8c6"/>
            </g>
            <g id="Group_207" data-name="Group 207">
              <path id="Path_1419" data-name="Path 1419" d="M1190.239,358.571h0l-7.255,7.3-7.255-7.3,7.255-7.3Z" fill="#f1e8c6"/>
            </g>
            <g id="Group_208" data-name="Group 208">
              <path id="Path_1420" data-name="Path 1420" d="M1173.916,358.571h0l-7.255,7.3-7.253-7.3,7.253-7.3Z" fill="#f1e8c6"/>
            </g>
            <g id="Group_209" data-name="Group 209">
              <path id="Path_1421" data-name="Path 1421" d="M1245.2,424.455h0l-7.251,7.3-7.251-7.3,7.251-7.3Z" fill="#f1e8c6"/>
            </g>
            <g id="Group_210" data-name="Group 210">
              <path id="Path_1422" data-name="Path 1422" d="M1228.89,424.455h0l-7.27,7.3-7.248-7.3,7.248-7.3Z" fill="#f1e8c6"/>
            </g>
            <g id="Group_211" data-name="Group 211">
              <path id="Path_1423" data-name="Path 1423" d="M1206.141,320.222h0l-7.253,7.3-7.255-7.3,7.255-7.3Z" fill="#f1e8c6"/>
            </g>
            <g id="Group_212" data-name="Group 212">
              <path id="Path_1424" data-name="Path 1424" d="M1189.82,414.762h0c-3.767,0-6.837-.421-6.837,2.81v5.2h-19.671V426h30.134v-11.38S1190.239,414.762,1189.82,414.762Zm0,8.008h-2.93a4.392,4.392,0,0,1,.279-2.81,5.689,5.689,0,0,1,2.651-.421Z" fill="#f1e8c6"/>
            </g>
            <g id="Group_213" data-name="Group 213">
              <path id="Path_1425" data-name="Path 1425" d="M1092.023,308.279h125.972a.6.6,0,0,0,.558-.562v-24.86a.6.6,0,0,0-.557-.562l-4.877.131a52.976,52.976,0,0,1-8.232-.561,34.354,34.354,0,0,1-10.6-2.808c-4.884-1.966-7.394-4.774-11.44-8.144l-2.93,3.37s7.813,8.012,13.671,9.828a80.888,80.888,0,0,0,16.323,2.677c.279,0,.419.281.419.562v5.2a.513.513,0,0,1-.558.562H1094.814a2.576,2.576,0,0,1-2.651-2.678V259.812c0-.281-.279-.412-.558-.412h-6.975c-.42,0-.559.131-.559.412v40.455A7.894,7.894,0,0,0,1092.023,308.279Z" fill="#f1e8c6"/>
            </g>
            <g id="Group_214" data-name="Group 214">
              <path id="Path_1426" data-name="Path 1426" d="M1042.219,322.038H1065.1a11.579,11.579,0,0,0,11.58-11.644V279.9c0-.412-.139-.562-.558-.562h-7.115a.517.517,0,0,0-.558.562v23.737a3.253,3.253,0,0,1-3.209,3.239h-20.927a6.213,6.213,0,0,1-6.138-6.178v-7.17a.513.513,0,0,0-.558-.561h-6.976a.513.513,0,0,0-.558.561v16.306A12.177,12.177,0,0,0,1042.219,322.038Z" fill="#f1e8c6"/>
            </g>
            <g id="Group_215" data-name="Group 215">
              <path id="Path_1427" data-name="Path 1427" d="M1354.99,442.576h-21.624c-6.545.141-5.857,6.6-5.987,14.75-.149,13.346,0,15.033,0,15.033h18.835v6.321a3.29,3.29,0,0,1-3.216,3.372h-9.483a.643.643,0,0,0-.707.561v12.5a.643.643,0,0,0,.707.561h8.088a14.074,14.074,0,0,0,14.094-14.047V443.138A.643.643,0,0,0,1354.99,442.576Zm-8.776,14.61h-8.237c0-1.264.279-1.685.837-2.106,1.264-.983,5.169-1.547,7.4.14Z" fill="#f1e8c6"/>
            </g>
            <g id="Group_216" data-name="Group 216">
              <path id="Path_1428" data-name="Path 1428" d="M1357.649,382.452h-3.217V348.6a.6.6,0,0,0-.557-.562H1346.9a.6.6,0,0,0-.558.562v48.465c0,.281.279.421.558.421h10.747c.279,0,.409-.14.409-.421V382.874C1358.058,382.593,1357.928,382.452,1357.649,382.452Z" fill="#f1e8c6"/>
            </g>
            <g id="Group_217" data-name="Group 217">
              <path id="Path_1429" data-name="Path 1429" d="M1197.213,397.062h0l.139-6.743s2.233,7.3,6.279,7.164h135.332c.279,0,.558-.14.558-.421V348.6a.6.6,0,0,0-.558-.562h-6.991a.6.6,0,0,0-.558.562v33.715H1319.57v-9.553a7.993,7.993,0,0,0-6.712-7.866h-.13a3.091,3.091,0,0,0-1.116-.141l-54.832.141c3.068-1.264,5.857-2.389,8.237-3.653,5.578-3.09,11.863-12.924,11.863-12.924l-3.775-2.808c-3.347,4.354-5.448,7.585-9.91,10.817-7.1,4.915-16.046,7.023-23.706,8.427v5.9h69.464l.149,11.659H1197.631V369.668h-10.323v12.644l-35.435.14a2.658,2.658,0,0,1-2.651-2.669V348.6a.6.6,0,0,0-.558-.562h-6.974a.6.6,0,0,0-.56.562v40.879a8.006,8.006,0,0,0,8.092,8.007h47.433C1196.934,397.483,1197.213,397.343,1197.213,397.062Z" fill="#f1e8c6"/>
            </g>
            <g id="Group_218" data-name="Group 218">
              <path id="Path_1430" data-name="Path 1430" d="M1075.421,458.311h0v13.626a.661.661,0,0,1-.7.7h-43.806a.661.661,0,0,1-.7-.7V458.17a.661.661,0,0,1,.7-.7h9.487V442.3a.782.782,0,0,1,.837-.7h4.883c8.65-.141,12.836-.983,21.206-4.776,0,0,1.813-.985,1.953-.985l3.209,5.9a23.462,23.462,0,0,1-4.186,2.108c-5.721,1.825-8.51,3.091-16.323,3.793v9.833h22.74C1075.142,457.468,1075.421,457.749,1075.421,458.311Z" fill="#f1e8c6"/>
            </g>
            <g id="Group_219" data-name="Group 219">
              <path id="Path_1431" data-name="Path 1431" d="M1098.3,458.451h0V472.5a.513.513,0,0,1-.56.561h-10.6a.6.6,0,0,1-.558-.561V424.034a.6.6,0,0,1,.558-.562h6.976a.6.6,0,0,1,.558.562V457.89h3.067C1098.163,457.89,1098.3,458.03,1098.3,458.451Z" fill="#f1e8c6"/>
            </g>
            <g id="Group_220" data-name="Group 220">
              <path id="Path_1432" data-name="Path 1432" d="M1042.079,397.483h81.752a8.007,8.007,0,0,0,8.092-8.007V364.05c0-.28-.279-.421-.558-.421h-7.254c-.28,0-.559.141-.559.421v15.593a2.544,2.544,0,0,1-2.51,2.669h-77.847a5.019,5.019,0,0,1-5.022-5.056v-6.322a.6.6,0,0,0-.558-.562H1030.5a.6.6,0,0,0-.558.562v14.328A12.188,12.188,0,0,0,1042.079,397.483Z" fill="#f1e8c6"/>
            </g>
            <g id="Group_221" data-name="Group 221">
              <path id="Path_1433" data-name="Path 1433" d="M1319.142,457.326h-3.2V423.472c0-.28-.279-.421-.558-.421H1308.4c-.279,0-.557.141-.557.421v48.606c0,.281.279.421.557.421h10.747a.378.378,0,0,0,.428-.421V457.89C1319.57,457.609,1319.421,457.326,1319.142,457.326Z" fill="#f1e8c6"/>
            </g>
            <g id="Group_222" data-name="Group 222">
              <path id="Path_1434" data-name="Path 1434" d="M1300.586,423.051h-7.1c-.279,0-.558.141-.558.421v33.854l-47.729.142V435.974h-18.259a13.805,13.805,0,0,0-13.82,13.907v7.587h-89.287a2.991,2.991,0,0,1-2.929-3.09V439.486a.661.661,0,0,0-.7-.7h-8.231a.641.641,0,0,0-.558.7V478.54a3.407,3.407,0,0,1-3.349,3.37h-9.486a.64.64,0,0,0-.7.563v12.642a.639.639,0,0,0,.7.561h8.231a14.189,14.189,0,0,0,14.09-14.188V463.227c0,4.214,1.4,8.991,5.58,9.132l174.1.14c.279,0,.428-.14.428-.562V423.472A.378.378,0,0,0,1300.586,423.051Z" fill="#f1e8c6"/>
            </g>
            <g id="Group_223" data-name="Group 223">
              <path id="Path_1435" data-name="Path 1435" d="M1215.767,318.669h0v12.505a.6.6,0,0,0,.554.561h8.237a14.1,14.1,0,0,0,14.094-14.19V299.7c0,4.362,1.394,8.724,5.708,8.574h84.414a.6.6,0,0,0,.557-.562v-7.581l3.756,6.739a2.713,2.713,0,0,0,2.38,1.4h17.85a2.153,2.153,0,0,0,2.1-2.1V285.665s-2.1-9.136-16.6-8.424c0,0-11.3.561-14.93,15.313v.562h-14.652v-.15c0-10.109-7.66-18.253-17.162-18.253a19.069,19.069,0,0,0-16.027,8.986,1.454,1.454,0,0,0,0,1.123l2.082,4.081a.737.737,0,0,0,1.116.281,15.92,15.92,0,0,1,10.6-3.95c6.564,0,11.863,2.827,14.522,7.882h-7.4a8.912,8.912,0,0,0-2.51-3.52,4.865,4.865,0,0,0-6.414.15,9.593,9.593,0,0,0-2.38,3.37H1241.72c-1.674,0-3.068-1.835-3.068-3.52v-14.04a.645.645,0,0,0-.558-.712h-8.237a.662.662,0,0,0-.688.712v39.181a3.17,3.17,0,0,1-3.216,3.239h-9.632A.635.635,0,0,0,1215.767,318.669Z" fill="#f1e8c6"/>
            </g>
            <g id="Group_224" data-name="Group 224">
              <path id="Path_1436" data-name="Path 1436" d="M1241.571,334.412h0c-3.756,0-6.694-.28-6.694,2.807-.13,2.95-.13,3.231-.13,4.073h-20.793v3.231H1245.2V334.412Zm.149,6.88h-2.938c-.409-1.123-.13-1.123.279-1.685a5.927,5.927,0,0,1,2.659-.28Z" fill="#f1e8c6"/>
            </g>
            <g id="Group_225" data-name="Group 225">
              <path id="Path_1437" data-name="Path 1437" d="M1127.179,415.887h-16.741V413.5h16.741Z" fill="#f1e8c6"/>
            </g>
            <g id="Group_226" data-name="Group 226">
              <path id="Path_1438" data-name="Path 1438" d="M1124.948,426h2.231V422.77h-16.741V426h14.51Z" fill="#f1e8c6"/>
            </g>
            <g id="Group_227" data-name="Group 227">
              <path id="Path_1439" data-name="Path 1439" d="M1127.179,419.258h0v-1.125h-3.209V426h3.209v-6.743Z" fill="#f1e8c6"/>
            </g>
            <g id="Group_228" data-name="Group 228">
              <path id="Path_1440" data-name="Path 1440" d="M1120.344,419.258h0v-1.125h-3.209V426h3.209v-6.743Z" fill="#f1e8c6"/>
            </g>
            <g id="Group_229" data-name="Group 229">
              <path id="Path_1441" data-name="Path 1441" d="M1113.647,419.258h0v-1.125h-3.209V426h3.209v-6.743Z" fill="#f1e8c6"/>
            </g>
            <g id="Group_230" data-name="Group 230">
              <path id="Path_1442" data-name="Path 1442" d="M1181.589,334.263h-16.741v-2.246h16.741Z" fill="#f1e8c6"/>
            </g>
            <g id="Group_231" data-name="Group 231">
              <path id="Path_1443" data-name="Path 1443" d="M1179.217,344.523h2.372v-3.372h-16.741v3.372h14.369Z" fill="#f1e8c6"/>
            </g>
            <g id="Group_232" data-name="Group 232">
              <path id="Path_1444" data-name="Path 1444" d="M1181.589,337.78h0v-1.123h-3.209v7.866h3.209V337.78Z" fill="#f1e8c6"/>
            </g>
            <g id="Group_233" data-name="Group 233">
              <path id="Path_1445" data-name="Path 1445" d="M1174.752,337.78h0v-1.123h-3.209v7.866h3.209V337.78Z" fill="#f1e8c6"/>
            </g>
            <g id="Group_234" data-name="Group 234">
              <path id="Path_1446" data-name="Path 1446" d="M1168.057,337.78h0v-1.123h-3.209v7.866h3.209V337.78Z" fill="#f1e8c6"/>
            </g>
            <g id="Group_235" data-name="Group 235">
              <path id="Path_1447" data-name="Path 1447" d="M1057.425,503.966h0l-5.719,18.824h-3.767l-4.325-12.643-4.185,12.643h-3.767l-5.72-18.824h3.767l4.046,13.766,4.185-13.766h3.488l4.326,13.766,3.765-13.766Z" fill="#f1e8c6"/>
            </g>
            <g id="Group_236" data-name="Group 236">
              <path id="Path_1448" data-name="Path 1448" d="M1067.61,509.023h.418v3.792h-.418c-2.233,0-4.464.843-4.464,3.372v6.6h-3.767V509.3h3.767v2.949A4.277,4.277,0,0,1,1067.61,509.023Z" fill="#f1e8c6"/>
            </g>
            <g id="Group_237" data-name="Group 237">
              <path id="Path_1449" data-name="Path 1449" d="M1072.074,503.123h0a2.334,2.334,0,0,1,2.232,2.388,2.185,2.185,0,0,1-2.232,2.107,2.062,2.062,0,0,1-2.093-2.107A2.222,2.222,0,0,1,1072.074,503.123Zm1.953,19.666h-3.767V509.3h3.767Z" fill="#f1e8c6"/>
            </g>
            <g id="Group_238" data-name="Group 238">
              <path id="Path_1450" data-name="Path 1450" d="M1081.282,511.692h0v6.743c0,1.123.558,1.545,1.534,1.545h1.814v2.809h-2.79c-2.652,0-4.186-1.123-4.186-3.933v-7.164h-1.534V509.3h1.534v-2.95h3.628v2.95h3.207v2.388Z" fill="#f1e8c6"/>
            </g>
            <g id="Group_239" data-name="Group 239">
              <path id="Path_1451" data-name="Path 1451" d="M1086.3,516.046h0c0-4.354,2.791-7.023,6.974-7.023,4.606,0,7.255,3.23,6.837,8.147h-9.905a2.945,2.945,0,0,0,3.209,3.231,2.473,2.473,0,0,0,2.65-1.966h3.907c-.558,3.371-3.349,4.495-6.7,4.495C1089.095,522.93,1086.3,520.261,1086.3,516.046Zm10.183-1.123h0a3.14,3.14,0,1,0-6.277,0Z" fill="#f1e8c6"/>
            </g>
            <g id="Group_240" data-name="Group 240">
              <path id="Path_1452" data-name="Path 1452" d="M1110.717,509.023h.56v3.792h-.56c-2.092,0-4.325.843-4.325,3.372v6.6h-3.9V509.3h3.9v2.949A4.218,4.218,0,0,1,1110.717,509.023Z" fill="#f1e8c6"/>
            </g>
            <g id="Group_241" data-name="Group 241">
              <path id="Path_1453" data-name="Path 1453" d="M1118.53,523.07h0c-3.628,0-5.859-1.545-6.138-4.214h3.767c.14.983,1.116,1.686,2.51,1.686,1.257,0,2.094-.562,2.094-1.545,0-.843-.7-1.265-2.93-1.546-3.489-.421-5.162-1.4-5.162-4.074,0-2.809,2.651-4.354,5.719-4.354,3.349,0,5.58,1.264,6,4.073h-3.767a1.888,1.888,0,0,0-2.093-1.4c-1.255,0-2.092.561-2.092,1.4s.837,1.265,2.789,1.546c3.628.421,5.582,1.264,5.582,4.074C1124.809,521.666,1122.157,523.07,1118.53,523.07Z" fill="#f1e8c6"/>
            </g>
            <g id="Group_242" data-name="Group 242">
              <path id="Path_1454" data-name="Path 1454" d="M1131.365,518.154h0c-.14-1.827.7-3.231,3.209-4.636a6.594,6.594,0,0,1-1.673-4.074,4.576,4.576,0,0,1,4.743-4.495,4.2,4.2,0,0,1,4.464,4.214,5.09,5.09,0,0,1-2.373,4.074l-.976.7,2.931,3.512a6.2,6.2,0,0,0,.836-3.231l2.929.141a10.435,10.435,0,0,1-1.534,5.478l2.512,2.95h-3.767l-.976-1.264a.137.137,0,0,0-.14.141,7.344,7.344,0,0,1-4.466,1.4C1133.6,523.07,1131.365,520.823,1131.365,518.154Zm3.488-.281h0a2.37,2.37,0,0,0,2.512,2.247,3.4,3.4,0,0,0,2.231-.843l-3.209-3.652C1135.271,516.468,1134.853,517.03,1134.853,517.873Zm2.791-9.974h0a1.735,1.735,0,0,0-1.815,1.686c0,.7.418,1.264,1.255,2.388l.839-.562C1139.875,510.146,1139.735,507.9,1137.644,507.9Z" fill="#f1e8c6"/>
            </g>
            <g id="Group_243" data-name="Group 243">
              <path id="Path_1455" data-name="Path 1455" d="M1167.637,522.789h-3.9l-3.767-7.445h-3.349v7.445h-3.488V503.966h6.837q6.7,0,6.7,5.478v.281a4.5,4.5,0,0,1-2.928,4.495l-.7.281Zm-4.465-12.783h0v-.421c0-1.546-1.115-2.248-3.346-2.248h-3.21v5.057h3.21C1162.057,512.394,1163.172,511.551,1163.172,510.006Z" fill="#f1e8c6"/>
            </g>
            <g id="Group_244" data-name="Group 244">
              <path id="Path_1456" data-name="Path 1456" d="M1169.172,516.046h0c0-4.354,2.931-7.023,7.114-7.023,4.464,0,7.255,3.23,6.7,8.147h-9.9a3.01,3.01,0,0,0,3.207,3.231,2.385,2.385,0,0,0,2.652-1.966h3.906c-.558,3.371-3.209,4.495-6.558,4.495C1171.961,522.93,1169.172,520.261,1169.172,516.046Zm10.323-1.123h0a3.076,3.076,0,0,0-3.209-3.231,3.165,3.165,0,0,0-3.207,3.231Z" fill="#f1e8c6"/>
            </g>
            <g id="Group_245" data-name="Group 245">
              <path id="Path_1457" data-name="Path 1457" d="M1198.05,514.08h0v8.709h-3.208v-1.826c-.558.983-2.093,2.107-4.882,2.107-2.512,0-4.6-1.264-4.6-3.933,0-2.95,2.371-4.214,6.7-4.214h2.233v-.843a2.494,2.494,0,0,0-4.884-.422h-3.626c.279-2.95,2.65-4.635,6.138-4.635C1195.54,509.023,1198.05,510.708,1198.05,514.08Zm-3.766,2.95h-2.233c-1.812,0-2.93.421-2.93,1.826,0,.983.839,1.545,2.094,1.545,1.673,0,2.93-.843,3.069-2.247Z" fill="#f1e8c6"/>
            </g>
            <g id="Group_246" data-name="Group 246">
              <path id="Path_1458" data-name="Path 1458" d="M1205.584,523.07h0c-3.07,0-5.58-2.247-5.58-6.743v-.281c0-4.354,2.51-7.023,5.859-7.023,2.79,0,4.046,1.545,4.324,2.528v-7.445h3.907v18.683h-3.628v-2.528C1209.909,521.666,1208.375,523.07,1205.584,523.07Zm4.743-6.743h0v-.421c0-1.967-.976-3.793-3.208-3.793-1.814,0-3.348,1.264-3.348,3.793v.421c0,2.248,1.255,3.793,3.207,3.793C1208.793,520.12,1210.327,518.856,1210.327,516.327Z" fill="#f1e8c6"/>
            </g>
            <g id="Group_247" data-name="Group 247">
              <path id="Path_1459" data-name="Path 1459" d="M1216.321,516.046h0a6.615,6.615,0,0,1,6.973-7.023c4.611,0,7.4,3.23,6.842,8.147h-9.91a2.952,2.952,0,0,0,3.217,3.231,2.463,2.463,0,0,0,2.64-1.966h3.923c-.558,3.371-3.217,4.495-6.712,4.495C1219.11,522.93,1216.321,520.261,1216.321,516.046Zm10.189-1.123h0a3,3,0,0,0-3.216-3.231,3.05,3.05,0,0,0-3.068,3.231Z" fill="#f1e8c6"/>
            </g>
            <g id="Group_248" data-name="Group 248">
              <path id="Path_1460" data-name="Path 1460" d="M1240.883,509.023h.409v3.792h-.409c-2.231,0-4.462.843-4.462,3.372v6.6h-3.775V509.3h3.775v2.949A4.266,4.266,0,0,1,1240.883,509.023Z" fill="#f1e8c6"/>
            </g>
            <g id="Group_249" data-name="Group 249">
              <path id="Path_1461" data-name="Path 1461" d="M1248.692,523.07h0c-3.625,0-6.005-1.545-6.136-4.214h3.626a2.375,2.375,0,0,0,2.51,1.686c1.265,0,2.1-.562,2.1-1.545,0-.843-.706-1.265-2.807-1.546-3.626-.421-5.3-1.4-5.3-4.074,0-2.809,2.658-4.354,5.857-4.354,3.216,0,5.447,1.264,5.875,4.073h-3.774c-.131-.983-.967-1.4-2.1-1.4-1.246,0-2.083.561-2.083,1.4s.837,1.265,2.789,1.546c3.626.421,5.578,1.264,5.578,4.074C1254.828,521.666,1252.188,523.07,1248.692,523.07Z" fill="#f1e8c6"/>
            </g>
            <g id="Group_250" data-name="Group 250">
              <path id="Path_1462" data-name="Path 1462" d="M1273.942,503.966h0v3.512h-8.088v4.917h6.694v3.091h-6.694v7.3h-3.626V503.966Z" fill="#f1e8c6"/>
            </g>
            <g id="Group_251" data-name="Group 251">
              <path id="Path_1463" data-name="Path 1463" d="M1275.764,516.046h0c0-4.354,2.789-7.023,6.973-7.023,4.592,0,7.251,3.23,6.823,8.147h-9.891a2.938,2.938,0,0,0,3.2,3.231,2.576,2.576,0,0,0,2.659-1.966h3.9c-.558,3.371-3.347,4.495-6.693,4.495C1278.553,522.93,1275.764,520.261,1275.764,516.046Zm10.171-1.123h0a3.135,3.135,0,1,0-6.266,0Z" fill="#f1e8c6"/>
            </g>
            <g id="Group_252" data-name="Group 252">
              <path id="Path_1464" data-name="Path 1464" d="M1297.109,523.07h0c-3.625,0-5.875-1.545-6.154-4.214h3.774a2.131,2.131,0,0,0,2.38,1.686c1.4,0,2.231-.562,2.231-1.545,0-.843-.706-1.265-2.937-1.546-3.477-.421-5.169-1.4-5.169-4.074,0-2.809,2.659-4.354,5.727-4.354,3.216,0,5.447,1.264,5.856,4.073h-3.625a1.878,1.878,0,0,0-2.083-1.4c-1.264,0-2.1.561-2.1,1.4s.837,1.265,2.789,1.546c3.626.421,5.448,1.264,5.448,4.074C1303.245,521.666,1300.735,523.07,1297.109,523.07Z" fill="#f1e8c6"/>
            </g>
            <g id="Group_253" data-name="Group 253">
              <path id="Path_1465" data-name="Path 1465" d="M1309.79,511.692h0v6.743c0,1.123.558,1.545,1.394,1.545h1.823v2.809h-2.789c-2.659,0-4.054-1.123-4.054-3.933v-7.164h-1.673V509.3h1.673v-2.95h3.626v2.95h3.217v2.388Z" fill="#f1e8c6"/>
            </g>
            <g id="Group_254" data-name="Group 254">
              <path id="Path_1466" data-name="Path 1466" d="M1317.469,503.123h0a2.326,2.326,0,0,1,2.1,2.388,2.161,2.161,0,0,1-2.1,2.107,2.189,2.189,0,0,1-2.231-2.107A2.34,2.34,0,0,1,1317.469,503.123Zm1.822,19.666h-3.774V509.3h3.774Z" fill="#f1e8c6"/>
            </g>
            <g id="Group_255" data-name="Group 255">
              <path id="Path_1467" data-name="Path 1467" d="M1332.251,509.3h3.5l-5.169,13.486h-4.183l-5.3-13.486h4.053l3.626,9.412Z" fill="#f1e8c6"/>
            </g>
            <g id="Group_256" data-name="Group 256">
              <path id="Path_1468" data-name="Path 1468" d="M1350.249,514.08h0v8.709H1346.9v-1.826c-.558.983-2.082,2.107-4.741,2.107-2.51,0-4.741-1.264-4.741-3.933,0-2.95,2.51-4.214,6.842-4.214h2.231v-.843a2.5,2.5,0,0,0-4.89-.422h-3.626c.149-2.95,2.659-4.635,6.136-4.635C1347.739,509.023,1350.249,510.708,1350.249,514.08Zm-3.756,2.95h-2.231c-1.822,0-3.068.421-3.068,1.826,0,.983.967,1.545,2.231,1.545,1.674,0,2.919-.843,3.068-2.247Z" fill="#f1e8c6"/>
            </g>
            <g id="Group_257" data-name="Group 257">
              <path id="Path_1469" data-name="Path 1469" d="M1356.533,522.789h-3.774V503.825h3.774Z" fill="#f1e8c6"/>
            </g>
          </g>
        </g>
      </g>
    </g>
  </g>
</svg>
