<svg xmlns="http://www.w3.org/2000/svg" width="40.797" height="40.797" viewBox="0 0 40.797 40.797">
  <g id="Group_142" data-name="Group 142" transform="translate(-637.43 -450.78)">
    <circle id="Ellipse_1" data-name="Ellipse 1" cx="20.399" cy="20.399" r="20.399" transform="translate(637.43 450.78)" fill="#ffae19"/>
    <g id="Group_141" data-name="Group 141">
      <g id="Group_139" data-name="Group 139">
        <g id="Group_137" data-name="Group 137">
          <circle id="Ellipse_2" data-name="Ellipse 2" cx="1.804" cy="1.804" r="1.804" transform="translate(649.238 463.823)" fill="#040505" stroke="#040505" stroke-miterlimit="10" stroke-width="4"/>
          <path id="Path_184" data-name="Path 184" d="M651.042,467.824a2.2,2.2,0,1,1,2.2-2.2A2.2,2.2,0,0,1,651.042,467.824Zm0-3.609a1.412,1.412,0,1,0,1.413,1.412A1.414,1.414,0,0,0,651.042,464.215Z" fill="#040505" stroke="#040505" stroke-miterlimit="10" stroke-width="4"/>
        </g>
        <g id="Group_138" data-name="Group 138">
          <circle id="Ellipse_3" data-name="Ellipse 3" cx="1.804" cy="1.804" r="1.804" transform="translate(662.811 463.823)" fill="#040505" stroke="#040505" stroke-miterlimit="10" stroke-width="4"/>
          <path id="Path_185" data-name="Path 185" d="M664.615,467.824a2.2,2.2,0,1,1,2.2-2.2A2.2,2.2,0,0,1,664.615,467.824Zm0-3.609a1.412,1.412,0,1,0,1.412,1.412A1.414,1.414,0,0,0,664.615,464.215Z" fill="#040505" stroke="#040505" stroke-miterlimit="10" stroke-width="4"/>
        </g>
      </g>
      <g id="Group_140" data-name="Group 140">
        <path id="Path_186" data-name="Path 186" d="M665.49,479.956h-.01l-15.323-.188a.846.846,0,1,1,.021-1.692l15.323.188a.846.846,0,0,1-.011,1.692Z" fill="#040505"/>
      </g>
    </g>
  </g>
</svg>
