<svg id="Component_1_2" data-name="Component 1 – 2" xmlns="http://www.w3.org/2000/svg" width="426.569" height="514.923" viewBox="0 0 426.569 514.923">
  <path id="Path_117" data-name="Path 117" d="M746.716,419.613h86.364l-8.946,95.31h271.733l-8.258-95.31h85.676V0H746.716Z" transform="translate(-746.716)" fill="#e34e34"/>
  <g id="Group_42" data-name="Group 42" transform="translate(-746.716)">
    <g id="Group_39" data-name="Group 39">
      <path id="Path_118" data-name="Path 118" d="M955.046,476.28h9.907l-4.985-20.645Z" fill="#efdfc3"/>
      <path id="Path_119" data-name="Path 119" d="M965.337,453.845h12.81s-4.746-7.7-14.347-3.79l9.048-9.026s-8.821-2.109-12.848,7.479c-4.027-9.588-12.847-7.479-12.847-7.479l9.047,9.026c-9.6-3.915-14.347,3.79-14.347,3.79h12.81c-9.588,4.027-7.478,12.847-7.478,12.847L960,453.845l12.815,12.847S974.925,457.872,965.337,453.845Z" fill="#efdfc3"/>
    </g>
    <g id="Group_40" data-name="Group 40">
      <path id="Path_120" data-name="Path 120" d="M1024.7,440.832h-18.146l9.073,9.073Z" fill="#0d0d0d"/>
      <path id="Path_121" data-name="Path 121" d="M1015.624,449.906H997.477l9.073,9.073Z" fill="#0d0d0d"/>
      <path id="Path_122" data-name="Path 122" d="M1033.771,449.906h-18.146l9.073,9.073Z" fill="#0d0d0d"/>
      <path id="Path_123" data-name="Path 123" d="M1024.7,458.979h-18.146l9.073,9.073Z" fill="#0d0d0d"/>
      <path id="Path_124" data-name="Path 124" d="M1006.551,477.125H1024.7l-9.073-9.073Z" fill="#0d0d0d"/>
      <path id="Path_125" data-name="Path 125" d="M997.477,468.052h18.146l-9.073-9.073Z" fill="#0d0d0d"/>
      <path id="Path_126" data-name="Path 126" d="M1015.624,468.052h18.146l-9.073-9.073Z" fill="#0d0d0d"/>
      <path id="Path_127" data-name="Path 127" d="M1006.551,458.979H1024.7l-9.073-9.073Z" fill="#0d0d0d"/>
    </g>
    <g id="Group_41" data-name="Group 41">
      <path id="Path_128" data-name="Path 128" d="M913.449,440.832H895.3l9.073,9.073Z" fill="#0d0d0d"/>
      <path id="Path_129" data-name="Path 129" d="M904.376,449.906H886.229l9.073,9.073Z" fill="#0d0d0d"/>
      <path id="Path_130" data-name="Path 130" d="M922.523,449.906H904.376l9.073,9.073Z" fill="#0d0d0d"/>
      <path id="Path_131" data-name="Path 131" d="M913.449,458.979H895.3l9.073,9.073Z" fill="#0d0d0d"/>
      <path id="Path_132" data-name="Path 132" d="M895.3,477.125h18.146l-9.073-9.073Z" fill="#0d0d0d"/>
      <path id="Path_133" data-name="Path 133" d="M886.229,468.052h18.146l-9.073-9.073Z" fill="#0d0d0d"/>
      <path id="Path_134" data-name="Path 134" d="M904.376,468.052h18.146l-9.073-9.073Z" fill="#0d0d0d"/>
      <path id="Path_135" data-name="Path 135" d="M895.3,458.979h18.146l-9.073-9.073Z" fill="#0d0d0d"/>
    </g>
  </g>
  <g id="Group_99" data-name="Group 99" transform="translate(-746.716)">
    <g id="Group_98" data-name="Group 98">
      <g id="Group_97" data-name="Group 97">
        <g id="Group_96" data-name="Group 96">
          <g id="Group_43" data-name="Group 43">
            <path id="Path_136" data-name="Path 136" d="M856.9,227.683h0l-5.88,5.923c-.12,0-.12.241,0,.241l5.88,5.922c0,.121.24.121.24,0l5.882-5.922c.12,0,.12-.241,0-.241l-5.882-5.923C857.14,227.563,856.9,227.563,856.9,227.683Z" fill="#efdfc3"/>
          </g>
          <g id="Group_44" data-name="Group 44">
            <path id="Path_137" data-name="Path 137" d="M837.336,128.948h0c.12.113.36.113.36,0l5.882-5.927a.235.235,0,0,0,0-.37L837.7,116.74c0-.129-.24-.129-.36,0l-5.761,5.911a.235.235,0,0,0,0,.37Z" fill="#efdfc3"/>
          </g>
          <g id="Group_45" data-name="Group 45">
            <path id="Path_138" data-name="Path 138" d="M956.764,190.095h0l-6.242,6.285-6.242-6.285,6.242-6.285Z" fill="#efdfc3"/>
          </g>
          <g id="Group_46" data-name="Group 46">
            <path id="Path_139" data-name="Path 139" d="M942.72,190.095h0l-6.242,6.285-6.24-6.285,6.24-6.285Z" fill="#efdfc3"/>
          </g>
          <g id="Group_47" data-name="Group 47">
            <path id="Path_140" data-name="Path 140" d="M1004.047,246.779h0l-6.239,6.285-6.239-6.285,6.239-6.285Z" fill="#efdfc3"/>
          </g>
          <g id="Group_48" data-name="Group 48">
            <path id="Path_141" data-name="Path 141" d="M990.018,246.779h0l-6.255,6.285-6.236-6.285,6.236-6.285Z" fill="#efdfc3"/>
          </g>
          <g id="Group_49" data-name="Group 49">
            <path id="Path_142" data-name="Path 142" d="M970.446,157.1h0l-6.24,6.281-6.242-6.281,6.242-6.281Z" fill="#efdfc3"/>
          </g>
          <g id="Group_50" data-name="Group 50">
            <path id="Path_143" data-name="Path 143" d="M956.4,238.439h0c-3.241,0-5.882-.362-5.882,2.418v4.472H933.6v2.78h25.926v-9.791S956.764,238.439,956.4,238.439Zm0,6.89h-2.521a3.776,3.776,0,0,1,.24-2.417,4.878,4.878,0,0,1,2.281-.363Z" fill="#efdfc3"/>
          </g>
          <g id="Group_51" data-name="Group 51">
            <path id="Path_144" data-name="Path 144" d="M872.264,146.826h108.38a.518.518,0,0,0,.48-.483V124.954a.517.517,0,0,0-.48-.483l-4.2.112a45.446,45.446,0,0,1-7.082-.483,29.509,29.509,0,0,1-9.121-2.416c-4.2-1.691-6.362-4.107-9.843-7.006l-2.521,2.9s6.722,6.894,11.762,8.456a69.544,69.544,0,0,0,14.044,2.3c.24,0,.36.242.36.483V133.3a.441.441,0,0,1-.48.483h-98.9a2.215,2.215,0,0,1-2.281-2.3v-26.35c0-.241-.24-.354-.48-.354h-6c-.361,0-.481.113-.481.354v34.806A6.792,6.792,0,0,0,872.264,146.826Z" fill="#efdfc3"/>
          </g>
          <g id="Group_52" data-name="Group 52">
            <path id="Path_145" data-name="Path 145" d="M829.414,158.664H849.1a9.963,9.963,0,0,0,9.963-10.018V122.409c0-.354-.12-.483-.48-.483H852.46a.445.445,0,0,0-.48.483v20.423a2.8,2.8,0,0,1-2.761,2.786h-18a5.346,5.346,0,0,1-5.282-5.315v-6.169a.441.441,0,0,0-.48-.483h-6a.441.441,0,0,0-.48.483v14.029A10.476,10.476,0,0,0,829.414,158.664Z" fill="#efdfc3"/>
          </g>
          <g id="Group_53" data-name="Group 53">
            <path id="Path_146" data-name="Path 146" d="M1098.509,262.369h-18.6c-5.631.121-5.039,5.681-5.151,12.69-.128,11.482,0,12.934,0,12.934h16.2v5.439a2.83,2.83,0,0,1-2.767,2.9h-8.159a.553.553,0,0,0-.608.484v10.755a.553.553,0,0,0,.608.483h6.959a12.109,12.109,0,0,0,12.126-12.086V262.853A.553.553,0,0,0,1098.509,262.369Zm-7.551,12.57h-7.086c0-1.088.24-1.45.72-1.812a6.3,6.3,0,0,1,6.366.12Z" fill="#efdfc3"/>
          </g>
          <g id="Group_54" data-name="Group 54">
            <path id="Path_147" data-name="Path 147" d="M1100.8,210.641h-2.767V181.514a.518.518,0,0,0-.48-.484h-6a.518.518,0,0,0-.48.484v41.7c0,.241.24.362.48.362h9.246c.24,0,.352-.121.352-.362V211C1101.148,210.762,1101.036,210.641,1100.8,210.641Z" fill="#efdfc3"/>
          </g>
          <g id="Group_55" data-name="Group 55">
            <path id="Path_148" data-name="Path 148" d="M962.764,223.211h0l.12-5.8s1.921,6.285,5.4,6.164h116.433c.24,0,.48-.121.48-.362v-41.7a.518.518,0,0,0-.48-.484H1078.7a.518.518,0,0,0-.48.484v29.007h-10.19V202.3a6.877,6.877,0,0,0-5.775-6.768h-.112a2.664,2.664,0,0,0-.96-.121l-47.175.121c2.64-1.087,5.039-2.055,7.087-3.142,4.8-2.659,10.206-11.12,10.206-11.12l-3.247-2.416c-2.88,3.746-4.687,6.526-8.527,9.306-6.11,4.23-13.8,6.043-20.4,7.251v5.077H1058.9l.128,10.031H963.124V199.643h-8.881v10.878l-30.487.12a2.287,2.287,0,0,1-2.281-2.3V181.514a.518.518,0,0,0-.48-.484h-6a.518.518,0,0,0-.481.484v35.17a6.888,6.888,0,0,0,6.962,6.889h40.809C962.524,223.573,962.764,223.452,962.764,223.211Z" fill="#efdfc3"/>
          </g>
          <g id="Group_56" data-name="Group 56">
            <path id="Path_149" data-name="Path 149" d="M857.98,275.907h0V287.63a.568.568,0,0,1-.6.6H819.692a.568.568,0,0,1-.6-.6V275.786a.568.568,0,0,1,.6-.6h8.162V262.128a.673.673,0,0,1,.72-.6h4.2c7.442-.121,11.043-.846,18.245-4.109,0,0,1.56-.847,1.68-.847l2.761,5.077a20.181,20.181,0,0,1-3.6,1.813c-4.922,1.571-7.322,2.659-14.044,3.263v8.461H857.38C857.74,275.182,857.98,275.423,857.98,275.907Z" fill="#efdfc3"/>
          </g>
          <g id="Group_57" data-name="Group 57">
            <path id="Path_150" data-name="Path 150" d="M877.666,276.027h0v12.086a.442.442,0,0,1-.482.484h-9.121a.518.518,0,0,1-.48-.484v-41.7a.518.518,0,0,1,.48-.483h6a.518.518,0,0,1,.48.483v29.128h2.639C877.546,275.544,877.666,275.665,877.666,276.027Z" fill="#efdfc3"/>
          </g>
          <g id="Group_58" data-name="Group 58">
            <path id="Path_151" data-name="Path 151" d="M829.294,223.573H899.63a6.888,6.888,0,0,0,6.961-6.889V194.809c0-.241-.24-.362-.48-.362h-6.24c-.241,0-.481.121-.481.362v13.415a2.189,2.189,0,0,1-2.16,2.3H830.254a4.319,4.319,0,0,1-4.321-4.351v-5.439a.518.518,0,0,0-.48-.483h-6.121a.518.518,0,0,0-.48.483v12.328A10.486,10.486,0,0,0,829.294,223.573Z" fill="#efdfc3"/>
          </g>
          <g id="Group_59" data-name="Group 59">
            <path id="Path_152" data-name="Path 152" d="M1067.667,275.059h-2.752V245.933c0-.241-.24-.362-.48-.362h-6.014c-.24,0-.48.121-.48.362v41.818c0,.242.24.362.48.362h9.246a.325.325,0,0,0,.368-.362V275.544C1068.035,275.3,1067.907,275.059,1067.667,275.059Z" fill="#efdfc3"/>
          </g>
          <g id="Group_60" data-name="Group 60">
            <path id="Path_153" data-name="Path 153" d="M1051.7,245.571h-6.111c-.24,0-.48.121-.48.362v29.126l-41.064.123V256.689H988.338a11.878,11.878,0,0,0-11.89,11.965v6.528H899.63a2.574,2.574,0,0,1-2.52-2.659V259.71a.569.569,0,0,0-.6-.6h-7.082a.552.552,0,0,0-.48.6v33.6a2.931,2.931,0,0,1-2.881,2.9h-8.161a.551.551,0,0,0-.6.485v10.876a.55.55,0,0,0,.6.483h7.082a12.207,12.207,0,0,0,12.122-12.206V280.136c0,3.626,1.2,7.736,4.8,7.857l149.791.12c.24,0,.368-.12.368-.483v-41.7A.325.325,0,0,0,1051.7,245.571Z" fill="#efdfc3"/>
          </g>
          <g id="Group_61" data-name="Group 61">
            <path id="Path_154" data-name="Path 154" d="M978.728,155.765h0v10.759a.514.514,0,0,0,.476.483h7.087A12.129,12.129,0,0,0,998.416,154.8V139.449c0,3.753,1.2,7.506,4.911,7.377h72.626a.518.518,0,0,0,.48-.483V139.82l3.231,5.8a2.333,2.333,0,0,0,2.048,1.208h15.357a1.852,1.852,0,0,0,1.808-1.8V127.37s-1.808-7.86-14.286-7.248c0,0-9.726.483-12.845,13.175v.483H1059.14v-.129c0-8.7-6.59-15.7-14.765-15.7a16.4,16.4,0,0,0-13.789,7.731,1.251,1.251,0,0,0,0,.966l1.792,3.511a.635.635,0,0,0,.96.242,13.691,13.691,0,0,1,9.118-3.4c5.647,0,10.206,2.432,12.493,6.781h-6.366a7.682,7.682,0,0,0-2.16-3.028,4.186,4.186,0,0,0-5.519.129,8.264,8.264,0,0,0-2.048,2.9h-37.8a3.02,3.02,0,0,1-2.64-3.028v-12.08a.555.555,0,0,0-.479-.612H990.85a.569.569,0,0,0-.592.612v33.711a2.728,2.728,0,0,1-2.767,2.786H979.2A.545.545,0,0,0,978.728,155.765Z" fill="#efdfc3"/>
          </g>
          <g id="Group_62" data-name="Group 62">
            <path id="Path_155" data-name="Path 155" d="M1000.928,169.31h0c-3.231,0-5.759-.242-5.759,2.414-.112,2.539-.112,2.78-.112,3.505H977.168v2.78h26.879v-8.7Zm.128,5.919h-2.528c-.351-.966-.112-.966.24-1.45a5.1,5.1,0,0,1,2.288-.241Z" fill="#efdfc3"/>
          </g>
          <g id="Group_63" data-name="Group 63">
            <path id="Path_156" data-name="Path 156" d="M902.511,239.407h-14.4v-2.055h14.4Z" fill="#efdfc3"/>
          </g>
          <g id="Group_64" data-name="Group 64">
            <path id="Path_157" data-name="Path 157" d="M900.591,248.109h1.92v-2.78h-14.4v2.78h12.484Z" fill="#efdfc3"/>
          </g>
          <g id="Group_65" data-name="Group 65">
            <path id="Path_158" data-name="Path 158" d="M902.511,242.308h0v-.968H899.75v6.769h2.761v-5.8Z" fill="#efdfc3"/>
          </g>
          <g id="Group_66" data-name="Group 66">
            <path id="Path_159" data-name="Path 159" d="M896.63,242.308h0v-.968h-2.761v6.769h2.761v-5.8Z" fill="#efdfc3"/>
          </g>
          <g id="Group_67" data-name="Group 67">
            <path id="Path_160" data-name="Path 160" d="M890.868,242.308h0v-.968h-2.761v6.769h2.761v-5.8Z" fill="#efdfc3"/>
          </g>
          <g id="Group_68" data-name="Group 68">
            <path id="Path_161" data-name="Path 161" d="M949.322,169.181h-14.4v-1.933h14.4Z" fill="#efdfc3"/>
          </g>
          <g id="Group_69" data-name="Group 69">
            <path id="Path_162" data-name="Path 162" d="M947.281,178.009h2.041v-2.9h-14.4v2.9h12.362Z" fill="#efdfc3"/>
          </g>
          <g id="Group_70" data-name="Group 70">
            <path id="Path_163" data-name="Path 163" d="M949.322,172.207h0v-.966h-2.761v6.768h2.761v-5.8Z" fill="#efdfc3"/>
          </g>
          <g id="Group_71" data-name="Group 71">
            <path id="Path_164" data-name="Path 164" d="M943.44,172.207h0v-.966h-2.761v6.768h2.761v-5.8Z" fill="#efdfc3"/>
          </g>
          <g id="Group_72" data-name="Group 72">
            <path id="Path_165" data-name="Path 165" d="M937.68,172.207h0v-.966h-2.761v6.768h2.761v-5.8Z" fill="#efdfc3"/>
          </g>
          <g id="Group_73" data-name="Group 73">
            <path id="Path_166" data-name="Path 166" d="M842.5,315.186h0l-4.921,16.195h-3.241L830.615,320.5l-3.6,10.877h-3.241l-4.921-16.195h3.241l3.481,11.844,3.6-11.844h3L835.9,327.03l3.239-11.844Z" fill="#efdfc3"/>
          </g>
          <g id="Group_74" data-name="Group 74">
            <path id="Path_167" data-name="Path 167" d="M851.26,319.537h.36V322.8h-.36c-1.921,0-3.841.725-3.841,2.9v5.68h-3.241v-11.6h3.241v2.538A3.681,3.681,0,0,1,851.26,319.537Z" fill="#efdfc3"/>
          </g>
          <g id="Group_75" data-name="Group 75">
            <path id="Path_168" data-name="Path 168" d="M855.1,314.461h0a2.008,2.008,0,0,1,1.919,2.054,1.878,1.878,0,0,1-1.919,1.813,1.774,1.774,0,0,1-1.8-1.813A1.912,1.912,0,0,1,855.1,314.461Zm1.679,16.92h-3.241v-11.6h3.241Z" fill="#efdfc3"/>
          </g>
          <g id="Group_76" data-name="Group 76">
            <path id="Path_169" data-name="Path 169" d="M863.022,321.833h0v5.8c0,.967.48,1.33,1.32,1.33H865.9v2.417h-2.4c-2.281,0-3.6-.967-3.6-3.384v-6.164h-1.319v-2.055H859.9V317.24h3.121v2.538h2.76v2.055Z" fill="#efdfc3"/>
          </g>
          <g id="Group_77" data-name="Group 77">
            <path id="Path_170" data-name="Path 170" d="M867.343,325.58h0a5.628,5.628,0,0,1,6-6.043c3.962,0,6.241,2.779,5.882,7.01H870.7a2.534,2.534,0,0,0,2.761,2.779,2.128,2.128,0,0,0,2.28-1.692h3.361c-.48,2.9-2.881,3.868-5.762,3.868C869.744,331.5,867.343,329.2,867.343,325.58Zm8.762-.967h0a2.7,2.7,0,1,0-5.4,0Z" fill="#efdfc3"/>
          </g>
          <g id="Group_78" data-name="Group 78">
            <path id="Path_171" data-name="Path 171" d="M888.347,319.537h.481V322.8h-.481c-1.8,0-3.721.725-3.721,2.9v5.68h-3.359v-11.6h3.359v2.538A3.63,3.63,0,0,1,888.347,319.537Z" fill="#efdfc3"/>
          </g>
          <g id="Group_79" data-name="Group 79">
            <path id="Path_172" data-name="Path 172" d="M895.069,331.623h0c-3.121,0-5.041-1.33-5.281-3.626h3.241c.12.846.96,1.45,2.16,1.45,1.081,0,1.8-.483,1.8-1.329,0-.725-.6-1.088-2.521-1.33-3-.362-4.441-1.208-4.441-3.505,0-2.417,2.281-3.746,4.921-3.746,2.881,0,4.8,1.088,5.162,3.505H896.87a1.625,1.625,0,0,0-1.8-1.209c-1.08,0-1.8.483-1.8,1.209s.72,1.087,2.4,1.329c3.121.363,4.8,1.088,4.8,3.505C900.471,330.414,898.19,331.623,895.069,331.623Z" fill="#efdfc3"/>
          </g>
          <g id="Group_80" data-name="Group 80">
            <path id="Path_173" data-name="Path 173" d="M906.111,327.393h0c-.12-1.572.6-2.78,2.761-3.989a5.674,5.674,0,0,1-1.439-3.505,3.937,3.937,0,0,1,4.081-3.867,3.611,3.611,0,0,1,3.84,3.626,4.375,4.375,0,0,1-2.041,3.5l-.84.605,2.522,3.021a5.334,5.334,0,0,0,.719-2.779l2.52.12a8.976,8.976,0,0,1-1.32,4.714l2.161,2.538h-3.241l-.839-1.088a.118.118,0,0,0-.12.121,6.321,6.321,0,0,1-3.843,1.209C908.033,331.623,906.111,329.689,906.111,327.393Zm3-.242h0a2.04,2.04,0,0,0,2.162,1.934,2.928,2.928,0,0,0,1.919-.726l-2.761-3.142C909.472,325.942,909.112,326.426,909.112,327.151Zm2.4-8.581h0a1.493,1.493,0,0,0-1.562,1.45c0,.605.36,1.088,1.08,2.055l.722-.484C913.433,320.5,913.313,318.57,911.514,318.57Z" fill="#efdfc3"/>
          </g>
          <g id="Group_81" data-name="Group 81">
            <path id="Path_174" data-name="Path 174" d="M937.318,331.381h-3.359l-3.241-6.406h-2.881v6.406h-3v-16.2h5.882q5.762,0,5.76,4.713v.242a3.872,3.872,0,0,1-2.519,3.868l-.6.241Zm-3.841-11h0v-.363c0-1.329-.96-1.934-2.879-1.934h-2.761v4.351H930.6C932.517,322.437,933.477,321.712,933.477,320.383Z" fill="#efdfc3"/>
          </g>
          <g id="Group_82" data-name="Group 82">
            <path id="Path_175" data-name="Path 175" d="M938.639,325.58h0c0-3.747,2.522-6.043,6.121-6.043,3.841,0,6.242,2.779,5.762,7.01H942a2.59,2.59,0,0,0,2.76,2.779,2.052,2.052,0,0,0,2.281-1.692H950.4c-.48,2.9-2.761,3.868-5.642,3.868C941.039,331.5,938.639,329.2,938.639,325.58Zm8.882-.967h0a2.647,2.647,0,0,0-2.761-2.78,2.724,2.724,0,0,0-2.76,2.78Z" fill="#efdfc3"/>
          </g>
          <g id="Group_83" data-name="Group 83">
            <path id="Path_176" data-name="Path 176" d="M963.484,323.888h0v7.493h-2.759V329.81c-.48.846-1.8,1.813-4.2,1.813-2.161,0-3.961-1.088-3.961-3.384,0-2.538,2.04-3.626,5.761-3.626h1.921v-.725a2.146,2.146,0,0,0-4.2-.363h-3.119c.24-2.538,2.28-3.988,5.281-3.988C961.325,319.537,963.484,320.987,963.484,323.888Zm-3.239,2.538h-1.921c-1.56,0-2.522.362-2.522,1.571,0,.846.722,1.329,1.8,1.329,1.439,0,2.521-.725,2.641-1.933Z" fill="#efdfc3"/>
          </g>
          <g id="Group_84" data-name="Group 84">
            <path id="Path_177" data-name="Path 177" d="M969.966,331.623h0c-2.641,0-4.8-1.934-4.8-5.8v-.241c0-3.747,2.16-6.043,5.041-6.043,2.4,0,3.481,1.329,3.721,2.175v-6.4h3.361v16.074h-3.121V329.2C973.687,330.414,972.367,331.623,969.966,331.623Zm4.081-5.8h0v-.362c0-1.692-.84-3.263-2.76-3.263-1.561,0-2.881,1.087-2.881,3.263v.362c0,1.934,1.08,3.264,2.76,3.264C972.727,329.085,974.047,328,974.047,325.821Z" fill="#efdfc3"/>
          </g>
          <g id="Group_85" data-name="Group 85">
            <path id="Path_178" data-name="Path 178" d="M979.2,325.58h0a5.692,5.692,0,0,1,6-6.043c3.967,0,6.367,2.779,5.887,7.01h-8.526a2.539,2.539,0,0,0,2.767,2.779,2.12,2.12,0,0,0,2.272-1.692h3.375c-.48,2.9-2.768,3.868-5.775,3.868C981.6,331.5,979.2,329.2,979.2,325.58Zm8.767-.967h0a2.582,2.582,0,0,0-2.768-2.78,2.624,2.624,0,0,0-2.639,2.78Z" fill="#efdfc3"/>
          </g>
          <g id="Group_86" data-name="Group 86">
            <path id="Path_179" data-name="Path 179" d="M1000.336,319.537h.352V322.8h-.352c-1.92,0-3.839.725-3.839,2.9v5.68h-3.248v-11.6H996.5v2.538A3.671,3.671,0,0,1,1000.336,319.537Z" fill="#efdfc3"/>
          </g>
          <g id="Group_87" data-name="Group 87">
            <path id="Path_180" data-name="Path 180" d="M1007.055,331.623h0c-3.12,0-5.167-1.33-5.279-3.626h3.119a2.043,2.043,0,0,0,2.16,1.45c1.088,0,1.807-.483,1.807-1.329,0-.725-.607-1.088-2.415-1.33-3.119-.362-4.559-1.208-4.559-3.505,0-2.417,2.287-3.746,5.039-3.746s4.687,1.088,5.055,3.505h-3.248c-.112-.846-.831-1.209-1.807-1.209-1.072,0-1.792.483-1.792,1.209s.72,1.087,2.4,1.329c3.119.363,4.8,1.088,4.8,3.505C1012.334,330.414,1010.062,331.623,1007.055,331.623Z" fill="#efdfc3"/>
          </g>
          <g id="Group_88" data-name="Group 88">
            <path id="Path_181" data-name="Path 181" d="M1028.778,315.186h0v3.021h-6.959v4.23h5.759V325.1h-5.759v6.285H1018.7V315.186Z" fill="#efdfc3"/>
          </g>
          <g id="Group_89" data-name="Group 89">
            <path id="Path_182" data-name="Path 182" d="M1030.346,325.58h0a5.627,5.627,0,0,1,6-6.043c3.951,0,6.239,2.779,5.871,7.01h-8.51a2.527,2.527,0,0,0,2.751,2.779,2.216,2.216,0,0,0,2.288-1.692h3.359c-.48,2.9-2.88,3.868-5.759,3.868C1032.746,331.5,1030.346,329.2,1030.346,325.58Zm8.75-.967h0a2.7,2.7,0,1,0-5.39,0Z" fill="#efdfc3"/>
          </g>
          <g id="Group_90" data-name="Group 90">
            <path id="Path_183" data-name="Path 183" d="M1048.711,331.623h0c-3.12,0-5.055-1.33-5.3-3.626h3.247a1.832,1.832,0,0,0,2.048,1.45c1.2,0,1.919-.483,1.919-1.329,0-.725-.608-1.088-2.527-1.33-2.992-.362-4.447-1.208-4.447-3.505,0-2.417,2.287-3.746,4.927-3.746,2.767,0,4.687,1.088,5.039,3.505h-3.12a1.615,1.615,0,0,0-1.791-1.209c-1.088,0-1.808.483-1.808,1.209s.72,1.087,2.4,1.329c3.12.363,4.688,1.088,4.688,3.505C1053.99,330.414,1051.83,331.623,1048.711,331.623Z" fill="#efdfc3"/>
          </g>
          <g id="Group_91" data-name="Group 91">
            <path id="Path_184" data-name="Path 184" d="M1059.62,321.833h0v5.8c0,.967.48,1.33,1.2,1.33h1.568v2.417h-2.4c-2.287,0-3.487-.967-3.487-3.384v-6.164h-1.44v-2.055h1.44V317.24h3.119v2.538h2.768v2.055Z" fill="#efdfc3"/>
          </g>
          <g id="Group_92" data-name="Group 92">
            <path id="Path_185" data-name="Path 185" d="M1066.227,314.461h0a2,2,0,0,1,1.808,2.054,1.859,1.859,0,0,1-1.808,1.813,1.884,1.884,0,0,1-1.92-1.813A2.013,2.013,0,0,1,1066.227,314.461Zm1.568,16.92h-3.248v-11.6h3.248Z" fill="#efdfc3"/>
          </g>
          <g id="Group_93" data-name="Group 93">
            <path id="Path_186" data-name="Path 186" d="M1078.945,319.778h3.007l-4.447,11.6h-3.6l-4.559-11.6h3.487l3.119,8.1Z" fill="#efdfc3"/>
          </g>
          <g id="Group_94" data-name="Group 94">
            <path id="Path_187" data-name="Path 187" d="M1094.43,323.888h0v7.493h-2.88V329.81c-.48.846-1.791,1.813-4.079,1.813-2.16,0-4.079-1.088-4.079-3.384,0-2.538,2.159-3.626,5.887-3.626h1.919v-.725a2.148,2.148,0,0,0-4.207-.363h-3.119c.128-2.538,2.287-3.988,5.279-3.988C1092.27,319.537,1094.43,320.987,1094.43,323.888Zm-3.232,2.538h-1.919c-1.568,0-2.64.362-2.64,1.571,0,.846.832,1.329,1.92,1.329,1.439,0,2.511-.725,2.639-1.933Z" fill="#efdfc3"/>
          </g>
          <g id="Group_95" data-name="Group 95">
            <path id="Path_188" data-name="Path 188" d="M1099.837,331.381h-3.247V315.065h3.247Z" fill="#efdfc3"/>
          </g>
        </g>
      </g>
    </g>
  </g>
</svg>
