<svg xmlns="http://www.w3.org/2000/svg" xmlns:xlink="http://www.w3.org/1999/xlink" width="40" height="70" viewBox="0 0 57.069 93.335">
  <defs>
    <radialGradient id="radial-gradient" cx="0.22" cy="0.096" r="0.882" gradientTransform="matrix(0.117, 0.997, 0.999, -0.044, -51.063, 54.704)" gradientUnits="objectBoundingBox">
      <stop offset="0" stop-color="#ff0001"/>
      <stop offset="1" stop-color="#800001"/>
    </radialGradient>
    <linearGradient id="linear-gradient" x1="-2.677" y1="123.905" x2="-1.773" y2="123.492" gradientUnits="objectBoundingBox">
      <stop offset="0" stop-color="#fff"/>
      <stop offset="1" stop-color="#e9e7e3"/>
    </linearGradient>
    <radialGradient id="radial-gradient-2" cx="0.192" cy="0.127" r="0.753" gradientTransform="matrix(0.692, 0.943, 1.298, -0.222, -65.845, 83.18)" gradientUnits="objectBoundingBox">
      <stop offset="0" stop-color="#f9606b"/>
      <stop offset="1" stop-color="#980001"/>
    </radialGradient>
    <radialGradient id="radial-gradient-3" cx="0.623" cy="0.336" r="0.604" gradientTransform="matrix(0.134, 0.991, -0.994, 0.135, 0.758, -4.986)" gradientUnits="objectBoundingBox">
      <stop offset="0" stop-color="#b8b8b8"/>
      <stop offset="0.467" stop-color="#b8b8b8"/>
      <stop offset="1" stop-color="#b8b8b8"/>
    </radialGradient>
    <radialGradient id="radial-gradient-4" cx="0.626" cy="0.328" r="0.609" gradientTransform="matrix(0.106, 0.994, -1, 0.106, 0.97, -10.852)" gradientUnits="objectBoundingBox">
      <stop offset="0" stop-color="#bbb"/>
      <stop offset="0.467" stop-color="#bbb"/>
      <stop offset="1" stop-color="#bab9b9"/>
    </radialGradient>
    <radialGradient id="radial-gradient-5" cx="0.631" cy="0.318" r="0.617" gradientTransform="matrix(0.073, 0.997, -1.007, 0.074, 1.361, -17.925)" gradientUnits="objectBoundingBox">
      <stop offset="0" stop-color="#bdbdbd"/>
      <stop offset="0.467" stop-color="#bdbdbd"/>
      <stop offset="1" stop-color="#bbb"/>
    </radialGradient>
    <radialGradient id="radial-gradient-6" cx="0.637" cy="0.306" r="0.631" gradientTransform="matrix(0.036, 0.999, -1.013, 0.037, 2.032, -26.573)" gradientUnits="objectBoundingBox">
      <stop offset="0" stop-color="#bfbfbf"/>
      <stop offset="0.467" stop-color="#bfbfbf"/>
      <stop offset="1" stop-color="#bdbdbc"/>
    </radialGradient>
    <radialGradient id="radial-gradient-7" cx="0.645" cy="0.292" r="0.651" gradientTransform="matrix(0.006, 1, -1.017, 0.006, 2.916, -37.12)" gradientUnits="objectBoundingBox">
      <stop offset="0" stop-color="#c2c2c2"/>
      <stop offset="0.467" stop-color="#c2c2c2"/>
      <stop offset="1" stop-color="#bfbfbe"/>
    </radialGradient>
    <radialGradient id="radial-gradient-8" cx="0.654" cy="0.274" r="0.681" gradientTransform="matrix(0.053, 0.999, -1.02, 0.054, 2.103, -48.419)" gradientUnits="objectBoundingBox">
      <stop offset="0" stop-color="#c4c4c4"/>
      <stop offset="0.467" stop-color="#c4c4c4"/>
      <stop offset="1" stop-color="#c0c0bf"/>
    </radialGradient>
    <radialGradient id="radial-gradient-9" cx="0.667" cy="0.251" r="0.724" gradientTransform="matrix(0.106, 0.994, -1.021, 0.109, 0.397, -61.813)" gradientUnits="objectBoundingBox">
      <stop offset="0" stop-color="#c6c6c6"/>
      <stop offset="0.467" stop-color="#c6c6c6"/>
      <stop offset="1" stop-color="#c2c2c1"/>
    </radialGradient>
    <radialGradient id="radial-gradient-10" cx="0.685" cy="0.222" r="0.784" gradientTransform="matrix(0.166, 0.986, -1.017, 0.171, -2.61, -77.969)" gradientUnits="objectBoundingBox">
      <stop offset="0" stop-color="#c9c9c9"/>
      <stop offset="0.467" stop-color="#c9c9c9"/>
      <stop offset="1" stop-color="#c4c4c2"/>
    </radialGradient>
    <radialGradient id="radial-gradient-11" cx="0.709" cy="0.181" r="0.872" gradientTransform="matrix(0.232, 0.973, -1.009, 0.241, -7.542, -97.949)" gradientUnits="objectBoundingBox">
      <stop offset="0" stop-color="#cbcbcb"/>
      <stop offset="0.467" stop-color="#cbcbcb"/>
      <stop offset="1" stop-color="#c6c5c4"/>
    </radialGradient>
    <radialGradient id="radial-gradient-12" cx="0.744" cy="0.123" r="1.002" gradientTransform="matrix(0.305, 0.953, -0.993, 0.317, -15.429, -123.635)" gradientUnits="objectBoundingBox">
      <stop offset="0" stop-color="#cecece"/>
      <stop offset="0.467" stop-color="#cecece"/>
      <stop offset="1" stop-color="#c7c7c5"/>
    </radialGradient>
    <radialGradient id="radial-gradient-13" cx="0.798" cy="0.035" r="1.208" gradientTransform="matrix(0.383, 0.924, -0.968, 0.401, -28.172, -158.787)" gradientUnits="objectBoundingBox">
      <stop offset="0" stop-color="#d0d0d0"/>
      <stop offset="0.467" stop-color="#d0d0d0"/>
      <stop offset="1" stop-color="#c9c9c7"/>
    </radialGradient>
    <radialGradient id="radial-gradient-14" cx="0.889" cy="-0.114" r="1.564" gradientTransform="matrix(0.464, 0.886, -0.932, 0.489, -49.955, -212.274)" gradientUnits="objectBoundingBox">
      <stop offset="0" stop-color="#d2d2d2"/>
      <stop offset="0.467" stop-color="#d2d2d2"/>
      <stop offset="1" stop-color="#cacac8"/>
    </radialGradient>
    <radialGradient id="radial-gradient-15" cx="1.075" cy="-0.414" r="2.294" gradientTransform="matrix(0.548, 0.837, -0.884, 0.579, -92.953, -311.002)" gradientUnits="objectBoundingBox">
      <stop offset="0" stop-color="#d5d5d5"/>
      <stop offset="0.467" stop-color="#d5d5d5"/>
      <stop offset="1" stop-color="#ccccca"/>
    </radialGradient>
    <radialGradient id="radial-gradient-16" cx="1.634" cy="-1.317" r="4.516" gradientTransform="matrix(0.629, 0.777, -0.825, 0.668, -217.267, -589.853)" gradientUnits="objectBoundingBox">
      <stop offset="0" stop-color="#d7d7d7"/>
      <stop offset="0.467" stop-color="#d7d7d7"/>
      <stop offset="1" stop-color="#cecdcb"/>
    </radialGradient>
    <radialGradient id="radial-gradient-17" cx="160.048" cy="-256.695" r="635.627" gradientTransform="matrix(0.707, 0.708, -0.754, 0.753, -34218.426, -77074.328)" gradientUnits="objectBoundingBox">
      <stop offset="0" stop-color="#d9d9d9"/>
      <stop offset="0.467" stop-color="#d9d9d9"/>
      <stop offset="1" stop-color="#cfcfcc"/>
    </radialGradient>
    <radialGradient id="radial-gradient-18" cx="1.645" cy="-1.357" r="4.584" gradientTransform="matrix(-0.735, -0.679, -0.725, 0.785, -660.214, -298.571)" gradientUnits="objectBoundingBox">
      <stop offset="0" stop-color="#dcdcdc"/>
      <stop offset="0.467" stop-color="#dcdcdc"/>
      <stop offset="1" stop-color="#d1d0ce"/>
    </radialGradient>
    <radialGradient id="radial-gradient-19" cx="1.073" cy="-0.434" r="2.315" gradientTransform="matrix(-0.761, -0.649, -0.695, 0.814, -364.447, -156.495)" gradientUnits="objectBoundingBox">
      <stop offset="0" stop-color="#dedede"/>
      <stop offset="0.467" stop-color="#dedede"/>
      <stop offset="1" stop-color="#d2d2cf"/>
    </radialGradient>
    <radialGradient id="radial-gradient-20" cx="0.885" cy="-0.13" r="1.574" gradientTransform="matrix(-0.786, -0.619, -0.663, 0.842, -267.573, -108.771)" gradientUnits="objectBoundingBox">
      <stop offset="0" stop-color="#e0e0e0"/>
      <stop offset="0.467" stop-color="#e0e0e0"/>
      <stop offset="1" stop-color="#d4d3d1"/>
    </radialGradient>
    <radialGradient id="radial-gradient-21" cx="0.792" cy="0.02" r="1.215" gradientTransform="matrix(-0.809, -0.588, -0.63, 0.868, -220.113, -84.446)" gradientUnits="objectBoundingBox">
      <stop offset="0" stop-color="#e3e3e3"/>
      <stop offset="0.467" stop-color="#e3e3e3"/>
      <stop offset="1" stop-color="#d5d5d2"/>
    </radialGradient>
    <radialGradient id="radial-gradient-22" cx="0.737" cy="0.108" r="1.007" gradientTransform="matrix(-0.831, -0.557, -0.597, 0.891, -192.328, -69.421)" gradientUnits="objectBoundingBox">
      <stop offset="0" stop-color="#e5e5e5"/>
      <stop offset="0.467" stop-color="#e5e5e5"/>
      <stop offset="1" stop-color="#d7d6d3"/>
    </radialGradient>
    <radialGradient id="radial-gradient-23" cx="0.702" cy="0.166" r="0.875" gradientTransform="matrix(-0.851, -0.525, -0.563, 0.912, -174.319, -59.017)" gradientUnits="objectBoundingBox">
      <stop offset="0" stop-color="#e7e7e7"/>
      <stop offset="0.467" stop-color="#e7e7e7"/>
      <stop offset="1" stop-color="#d8d8d5"/>
    </radialGradient>
    <radialGradient id="radial-gradient-24" cx="0.676" cy="0.206" r="0.786" gradientTransform="matrix(-0.87, -0.494, -0.529, 0.931, -161.845, -51.238)" gradientUnits="objectBoundingBox">
      <stop offset="0" stop-color="#eaeaea"/>
      <stop offset="0.467" stop-color="#eaeaea"/>
      <stop offset="1" stop-color="#dad9d6"/>
    </radialGradient>
    <radialGradient id="radial-gradient-25" cx="0.658" cy="0.236" r="0.724" gradientTransform="matrix(-0.887, -0.463, -0.495, 0.948, -152.783, -45.096)" gradientUnits="objectBoundingBox">
      <stop offset="0" stop-color="#ececec"/>
      <stop offset="0.467" stop-color="#ececec"/>
      <stop offset="1" stop-color="#dbdbd7"/>
    </radialGradient>
    <radialGradient id="radial-gradient-26" cx="0.644" cy="0.258" r="0.68" gradientTransform="matrix(-0.902, -0.432, -0.461, 0.962, -145.955, -40.048)" gradientUnits="objectBoundingBox">
      <stop offset="0" stop-color="#eee"/>
      <stop offset="0.467" stop-color="#eee"/>
      <stop offset="1" stop-color="#dddcd8"/>
    </radialGradient>
    <radialGradient id="radial-gradient-27" cx="0.633" cy="0.276" r="0.648" gradientTransform="matrix(-0.916, 0.401, 0.427, 0.975, -223.685, 40.57)" gradientUnits="objectBoundingBox">
      <stop offset="0" stop-color="#f1f1f1"/>
      <stop offset="0.467" stop-color="#f1f1f1"/>
      <stop offset="1" stop-color="#deddda"/>
    </radialGradient>
    <radialGradient id="radial-gradient-28" cx="0.624" cy="0.289" r="0.626" gradientTransform="matrix(-0.928, 0.372, 0.395, 0.986, -209.358, 34.582)" gradientUnits="objectBoundingBox">
      <stop offset="0" stop-color="#f3f3f3"/>
      <stop offset="0.467" stop-color="#f3f3f3"/>
      <stop offset="1" stop-color="#e0dfdb"/>
    </radialGradient>
    <radialGradient id="radial-gradient-29" cx="0.617" cy="0.301" r="0.61" gradientTransform="matrix(-0.939, 0.343, 0.363, 0.996, -197.198, 29.531)" gradientUnits="objectBoundingBox">
      <stop offset="0" stop-color="#f5f5f5"/>
      <stop offset="0.467" stop-color="#f5f5f5"/>
      <stop offset="1" stop-color="#e1e0dc"/>
    </radialGradient>
    <radialGradient id="radial-gradient-30" cx="0.611" cy="0.31" r="0.599" gradientTransform="matrix(-0.949, 0.314, 0.332, 1.004, -186.715, 25.219)" gradientUnits="objectBoundingBox">
      <stop offset="0" stop-color="#f8f8f8"/>
      <stop offset="0.467" stop-color="#f8f8f8"/>
      <stop offset="1" stop-color="#e2e2dd"/>
    </radialGradient>
    <radialGradient id="radial-gradient-31" cx="0.606" cy="0.317" r="0.593" gradientTransform="matrix(-0.958, 0.287, 0.303, 1.011, -177.559, 21.5)" gradientUnits="objectBoundingBox">
      <stop offset="0" stop-color="#fafafa"/>
      <stop offset="0.467" stop-color="#fafafa"/>
      <stop offset="1" stop-color="#e4e3de"/>
    </radialGradient>
    <radialGradient id="radial-gradient-32" cx="0.602" cy="0.324" r="0.59" gradientTransform="matrix(-0.966, 0.26, 0.274, 1.016, -169.475, 18.265)" gradientUnits="objectBoundingBox">
      <stop offset="0" stop-color="#fdfdfd"/>
      <stop offset="0.467" stop-color="#fdfdfd"/>
      <stop offset="1" stop-color="#e5e4e0"/>
    </radialGradient>
    <radialGradient id="radial-gradient-33" cx="0.362" cy="0.359" r="0.589" gradientTransform="matrix(-0.039, 0.999, 1.049, 0.041, -156.957, 147.121)" gradientUnits="objectBoundingBox">
      <stop offset="0" stop-color="#fff"/>
      <stop offset="0.467" stop-color="#fff"/>
      <stop offset="1" stop-color="#e7e6e1"/>
    </radialGradient>
  </defs>
  <g id="Group_156" data-name="Group 156" transform="translate(-707.948 -4512.311)">
    <path id="path2986" d="M736.482,4512.311a28.535,28.535,0,0,0-28.534,28.534,28.163,28.163,0,0,0,2.838,12.417c8.525,17.417,17.137,34.935,25.7,52.384,9.052-18.192,17.938-36.771,25.7-52.384a27.831,27.831,0,0,0,2.838-12.417A28.535,28.535,0,0,0,736.482,4512.311Zm0,4.711A23.382,23.382,0,1,1,713.1,4540.4,23.381,23.381,0,0,1,736.482,4517.022Z" fill="url(#radial-gradient)"/>
    <g id="Group_154" data-name="Group 154" opacity="0.75" style="mix-blend-mode: multiply;isolation: isolate">
      <path id="path3805" d="M761.828,4540.813a24.328,24.328,0,1,1-24.325-23.948,24.138,24.138,0,0,1,24.325,23.948Z" fill="#fff" opacity="0"/>
      <path id="Path_1035" data-name="Path 1035" d="M761.767,4540.794a24.3,24.3,0,1,1-24.3-23.929,24.115,24.115,0,0,1,24.3,23.929Z" fill="#faf9f8" opacity="0.032"/>
      <path id="Path_1036" data-name="Path 1036" d="M761.706,4540.776a24.267,24.267,0,1,1-24.264-23.911,24.089,24.089,0,0,1,24.264,23.911Z" fill="#f5f4f1" opacity="0.065"/>
      <path id="Path_1037" data-name="Path 1037" d="M761.645,4540.758a24.236,24.236,0,1,1-24.234-23.893,24.065,24.065,0,0,1,24.234,23.893Z" fill="#f0eeeb" opacity="0.097"/>
      <path id="Path_1038" data-name="Path 1038" d="M761.584,4540.74a24.205,24.205,0,1,1-24.2-23.875,24.04,24.04,0,0,1,24.2,23.875Z" fill="#ebe8e4" opacity="0.129"/>
      <path id="Path_1039" data-name="Path 1039" d="M761.523,4540.721a24.175,24.175,0,1,1-24.172-23.856,24.016,24.016,0,0,1,24.172,23.856Z" fill="#e6e3de" opacity="0.161"/>
      <path id="Path_1040" data-name="Path 1040" d="M761.463,4540.7a24.144,24.144,0,1,1-24.143-23.838,23.992,23.992,0,0,1,24.143,23.838Z" fill="#e1ddd8" opacity="0.194"/>
      <path id="Path_1041" data-name="Path 1041" d="M761.4,4540.685a24.114,24.114,0,1,1-24.112-23.82,23.968,23.968,0,0,1,24.112,23.82Z" fill="#dcd8d2" opacity="0.226"/>
      <path id="Path_1042" data-name="Path 1042" d="M761.341,4540.667a24.083,24.083,0,1,1-24.082-23.8,23.944,23.944,0,0,1,24.082,23.8Z" fill="#d7d3cc" opacity="0.258"/>
      <path id="Path_1043" data-name="Path 1043" d="M761.28,4540.648a24.053,24.053,0,1,1-24.051-23.783,23.918,23.918,0,0,1,24.051,23.783Z" fill="#d3cdc6" opacity="0.29"/>
      <path id="Path_1044" data-name="Path 1044" d="M761.219,4540.63a24.022,24.022,0,1,1-24.021-23.765,23.895,23.895,0,0,1,24.021,23.765Z" fill="#cec8c1" opacity="0.323"/>
      <path id="Path_1045" data-name="Path 1045" d="M761.158,4540.612a23.991,23.991,0,1,1-23.99-23.747,23.869,23.869,0,0,1,23.99,23.747Z" fill="#c9c3bb" opacity="0.355"/>
      <path id="Path_1046" data-name="Path 1046" d="M761.1,4540.594a23.961,23.961,0,1,1-23.96-23.729,23.846,23.846,0,0,1,23.96,23.729Z" fill="#c5beb6" opacity="0.387"/>
      <path id="Path_1047" data-name="Path 1047" d="M761.037,4540.575a23.931,23.931,0,1,1-23.93-23.71,23.822,23.822,0,0,1,23.93,23.71Z" fill="#c0b9b1" opacity="0.419"/>
      <path id="Path_1048" data-name="Path 1048" d="M760.976,4540.557a23.9,23.9,0,1,1-23.9-23.692,23.8,23.8,0,0,1,23.9,23.692Z" fill="#bbb4ac" opacity="0.452"/>
      <path id="Path_1049" data-name="Path 1049" d="M760.915,4540.539a23.869,23.869,0,1,1-23.869-23.674,23.772,23.772,0,0,1,23.869,23.674Z" fill="#b7afa7" opacity="0.484"/>
      <path id="Path_1050" data-name="Path 1050" d="M760.854,4540.521a23.839,23.839,0,1,1-23.838-23.656,23.747,23.747,0,0,1,23.838,23.656Z" fill="#b2aaa2" opacity="0.516"/>
      <path id="Path_1051" data-name="Path 1051" d="M760.793,4540.5a23.808,23.808,0,1,1-23.807-23.637,23.723,23.723,0,0,1,23.807,23.637Z" fill="#aea69d" opacity="0.548"/>
      <path id="Path_1052" data-name="Path 1052" d="M760.733,4540.484a23.778,23.778,0,1,1-23.778-23.619,23.7,23.7,0,0,1,23.778,23.619Z" fill="#a9a199" opacity="0.581"/>
      <path id="Path_1053" data-name="Path 1053" d="M760.672,4540.466a23.747,23.747,0,1,1-23.747-23.6,23.675,23.675,0,0,1,23.747,23.6Z" fill="#a59c94" opacity="0.613"/>
      <path id="Path_1054" data-name="Path 1054" d="M760.611,4540.448a23.717,23.717,0,1,1-23.717-23.583,23.65,23.65,0,0,1,23.717,23.583Z" fill="#a19890" opacity="0.645"/>
      <path id="Path_1055" data-name="Path 1055" d="M760.55,4540.429a23.686,23.686,0,1,1-23.686-23.564,23.625,23.625,0,0,1,23.686,23.564Z" fill="#9c938b" opacity="0.677"/>
      <path id="Path_1056" data-name="Path 1056" d="M760.489,4540.411a23.656,23.656,0,1,1-23.655-23.546,23.6,23.6,0,0,1,23.655,23.546Z" fill="#988f87" opacity="0.71"/>
      <path id="Path_1057" data-name="Path 1057" d="M760.428,4540.393a23.625,23.625,0,1,1-23.625-23.528,23.576,23.576,0,0,1,23.625,23.528Z" fill="#938a83" opacity="0.742"/>
      <path id="Path_1058" data-name="Path 1058" d="M760.368,4540.375a23.6,23.6,0,1,1-23.595-23.51,23.553,23.553,0,0,1,23.595,23.51Z" fill="#8f867f" opacity="0.774"/>
      <path id="Path_1059" data-name="Path 1059" d="M760.307,4540.356a23.565,23.565,0,1,1-23.565-23.491,23.528,23.528,0,0,1,23.565,23.491Z" fill="#8b817b" opacity="0.806"/>
      <path id="Path_1060" data-name="Path 1060" d="M760.246,4540.338a23.534,23.534,0,1,1-23.534-23.473,23.5,23.5,0,0,1,23.534,23.473Z" fill="#877d77" opacity="0.839"/>
      <path id="Path_1061" data-name="Path 1061" d="M760.185,4540.32a23.5,23.5,0,1,1-23.5-23.455,23.479,23.479,0,0,1,23.5,23.455Z" fill="#827974" opacity="0.871"/>
      <path id="Path_1062" data-name="Path 1062" d="M760.124,4540.3a23.473,23.473,0,1,1-23.473-23.437,23.455,23.455,0,0,1,23.473,23.437Z" fill="#7e7570" opacity="0.903"/>
      <path id="Path_1063" data-name="Path 1063" d="M760.064,4540.283a23.443,23.443,0,1,1-23.443-23.418,23.431,23.431,0,0,1,23.443,23.418Z" fill="#7a716c" opacity="0.935"/>
      <path id="Path_1064" data-name="Path 1064" d="M760,4540.265a23.413,23.413,0,1,1-23.413-23.4,23.407,23.407,0,0,1,23.413,23.4Z" fill="#766d69" opacity="0.968"/>
      <path id="path3803" d="M759.942,4540.247a23.382,23.382,0,1,1-23.382-23.382,23.382,23.382,0,0,1,23.382,23.382Z" fill="#726965"/>
    </g>
    <path id="path3772" d="M759.864,4540.4a23.382,23.382,0,1,1-23.382-23.383A23.382,23.382,0,0,1,759.864,4540.4Z" fill="url(#linear-gradient)"/>
    <path id="path3777" d="M736.129,4513.248a27.577,27.577,0,0,0-24.483,39.633c2.043,4.29,4.2,8.518,6.258,12.8,5.289,10.794,10.38,21.688,15.889,32.371,2.153,4.175,5.294-33.148,1.855-33.344-9.3-.528-18.177-6.347-21.639-14.983a24.34,24.34,0,0,1,33.674-30.917c1.1.576,2.71-1.822,2.143-2.132A27.777,27.777,0,0,0,736.129,4513.248Z" fill="url(#radial-gradient-2)"/>
    <g id="Group_155" data-name="Group 155">
      <path id="path3799" d="M758.131,4540.4a21.648,21.648,0,1,1-21.649-21.649A21.648,21.648,0,0,1,758.131,4540.4Z" fill="#b6b6b6"/>
      <circle id="Ellipse_31" data-name="Ellipse 31" cx="21.617" cy="21.617" r="21.617" transform="matrix(0.167, -0.986, 0.986, 0.167, 711.586, 4558.124)" fill="url(#radial-gradient-3)"/>
      <circle id="Ellipse_32" data-name="Ellipse 32" cx="21.584" cy="21.584" r="21.584" transform="matrix(0.174, -0.985, 0.985, 0.174, 711.523, 4557.936)" fill="url(#radial-gradient-4)"/>
      <circle id="Ellipse_33" data-name="Ellipse 33" cx="21.552" cy="21.552" r="21.552" transform="translate(711.47 4557.759) rotate(-79.594)" fill="url(#radial-gradient-5)"/>
      <circle id="Ellipse_34" data-name="Ellipse 34" cx="21.52" cy="21.52" r="21.52" transform="translate(711.425 4557.592) rotate(-79.234)" fill="url(#radial-gradient-6)"/>
      <circle id="Ellipse_35" data-name="Ellipse 35" cx="21.488" cy="21.488" r="21.488" transform="matrix(0.193, -0.981, 0.981, 0.193, 711.388, 4557.436)" fill="url(#radial-gradient-7)"/>
      <circle id="Ellipse_36" data-name="Ellipse 36" cx="21.455" cy="21.455" r="21.455" transform="matrix(0.198, -0.98, 0.98, 0.198, 711.358, 4557.287)" fill="url(#radial-gradient-8)"/>
      <circle id="Ellipse_37" data-name="Ellipse 37" cx="21.423" cy="21.423" r="21.423" transform="translate(711.335 4557.147) rotate(-78.279)" fill="url(#radial-gradient-9)"/>
      <circle id="Ellipse_38" data-name="Ellipse 38" cx="21.391" cy="21.391" r="21.391" transform="matrix(0.208, -0.978, 0.978, 0.208, 711.317, 4557.015)" fill="url(#radial-gradient-10)"/>
      <circle id="Ellipse_39" data-name="Ellipse 39" cx="21.358" cy="21.358" r="21.358" transform="translate(711.305 4556.889) rotate(-77.73)" fill="url(#radial-gradient-11)"/>
      <circle id="Ellipse_40" data-name="Ellipse 40" cx="21.326" cy="21.326" r="21.326" transform="matrix(0.217, -0.976, 0.976, 0.217, 711.298, 4556.77)" fill="url(#radial-gradient-12)"/>
      <circle id="Ellipse_41" data-name="Ellipse 41" cx="21.294" cy="21.294" r="21.294" transform="translate(711.295 4556.657) rotate(-77.239)" fill="url(#radial-gradient-13)"/>
      <circle id="Ellipse_42" data-name="Ellipse 42" cx="21.262" cy="21.262" r="21.262" transform="matrix(0.225, -0.974, 0.974, 0.225, 711.296, 4556.549)" fill="url(#radial-gradient-14)"/>
      <circle id="Ellipse_43" data-name="Ellipse 43" cx="21.229" cy="21.229" r="21.229" transform="translate(711.301 4556.446) rotate(-76.798)" fill="url(#radial-gradient-15)"/>
      <circle id="Ellipse_44" data-name="Ellipse 44" cx="21.197" cy="21.197" r="21.197" transform="translate(711.31 4556.349) rotate(-76.594)" fill="url(#radial-gradient-16)"/>
      <circle id="Ellipse_45" data-name="Ellipse 45" cx="21.165" cy="21.165" r="21.165" transform="translate(711.321 4556.255) rotate(-76.399)" fill="url(#radial-gradient-17)"/>
      <circle id="Ellipse_46" data-name="Ellipse 46" cx="21.133" cy="21.133" r="21.133" transform="matrix(0.238, -0.971, 0.971, 0.238, 711.335, 4556.166)" fill="url(#radial-gradient-18)"/>
      <circle id="Ellipse_47" data-name="Ellipse 47" cx="21.1" cy="21.1" r="21.1" transform="matrix(0.241, -0.97, 0.97, 0.241, 711.353, 4556.081)" fill="url(#radial-gradient-19)"/>
      <circle id="Ellipse_48" data-name="Ellipse 48" cx="21.068" cy="21.068" r="21.068" transform="translate(711.373 4555.999) rotate(-75.869)" fill="url(#radial-gradient-20)"/>
      <circle id="Ellipse_49" data-name="Ellipse 49" cx="21.036" cy="21.036" r="21.036" transform="matrix(0.247, -0.969, 0.969, 0.247, 711.394, 4555.921)" fill="url(#radial-gradient-21)"/>
      <circle id="Ellipse_50" data-name="Ellipse 50" cx="21.004" cy="21.004" r="21.004" transform="translate(711.419 4555.846) rotate(-75.553)" fill="url(#radial-gradient-22)"/>
      <circle id="Ellipse_51" data-name="Ellipse 51" cx="20.971" cy="20.971" r="20.971" transform="matrix(0.252, -0.968, 0.968, 0.252, 711.445, 4555.774)" fill="url(#radial-gradient-23)"/>
      <circle id="Ellipse_52" data-name="Ellipse 52" cx="20.939" cy="20.939" r="20.939" transform="translate(711.473 4555.705) rotate(-75.264)" fill="url(#radial-gradient-24)"/>
      <circle id="Ellipse_53" data-name="Ellipse 53" cx="20.907" cy="20.907" r="20.907" transform="translate(711.504 4555.639) rotate(-75.128)" fill="url(#radial-gradient-25)"/>
      <circle id="Ellipse_54" data-name="Ellipse 54" cx="20.875" cy="20.875" r="20.875" transform="matrix(0.259, -0.966, 0.966, 0.259, 711.535, 4555.575)" fill="url(#radial-gradient-26)"/>
      <circle id="Ellipse_55" data-name="Ellipse 55" cx="20.842" cy="20.842" r="20.842" transform="translate(711.568 4555.514) rotate(-74.873)" fill="url(#radial-gradient-27)"/>
      <circle id="Ellipse_56" data-name="Ellipse 56" cx="20.81" cy="20.81" r="20.81" transform="translate(711.603 4555.455) rotate(-74.752)" fill="url(#radial-gradient-28)"/>
      <circle id="Ellipse_57" data-name="Ellipse 57" cx="20.778" cy="20.778" r="20.778" transform="matrix(0.265, -0.964, 0.964, 0.265, 711.639, 4555.397)" fill="url(#radial-gradient-29)"/>
      <circle id="Ellipse_58" data-name="Ellipse 58" cx="20.746" cy="20.746" r="20.746" transform="translate(711.676 4555.342) rotate(-74.525)" fill="url(#radial-gradient-30)"/>
      <circle id="Ellipse_59" data-name="Ellipse 59" cx="20.713" cy="20.713" r="20.713" transform="translate(711.714 4555.29) rotate(-74.418)" fill="url(#radial-gradient-31)"/>
      <circle id="Ellipse_60" data-name="Ellipse 60" cx="20.681" cy="20.681" r="20.681" transform="translate(711.754 4555.238) rotate(-74.314)" fill="url(#radial-gradient-32)"/>
      <path id="path3801" d="M757.931,4540.936a20.649,20.649,0,1,1-20.649-20.649A20.649,20.649,0,0,1,757.931,4540.936Z" fill="url(#radial-gradient-33)"/>
    </g>
  </g>
</svg>
