<svg xmlns="http://www.w3.org/2000/svg" width="264.546" height="65.074" viewBox="0 0 264.546 65.074">
  <g id="Group_33" data-name="Group 33" transform="translate(-2034.692 -951.133)">
    <g id="Group_30" data-name="Group 30">
      <g id="Group_29" data-name="Group 29">
        <path id="Path_79" data-name="Path 79" d="M2158.083,1014.691h17.764l-8.939-37.018Z" fill="#1a1818"/>
        <path id="Path_80" data-name="Path 80" d="M2176.534,974.465H2199.5s-8.509-13.816-25.725-6.8L2190,951.486s-15.816-3.782-23.036,13.409c-7.22-17.191-23.036-13.409-23.036-13.409l16.223,16.183c-17.215-7.02-25.725,6.8-25.725,6.8H2157.4c-17.191,7.22-13.409,23.035-13.409,23.035l22.979-23.035,22.978,23.035S2193.725,981.685,2176.534,974.465Z" fill="#1a1818"/>
      </g>
    </g>
    <g id="Group_31" data-name="Group 31">
      <path id="Path_81" data-name="Path 81" d="M2282.968,951.133h-32.537L2266.7,967.4Z" fill="#e34e34"/>
      <path id="Path_82" data-name="Path 82" d="M2266.7,967.4h-32.537l16.269,16.269Z" fill="#e34e34"/>
      <path id="Path_83" data-name="Path 83" d="M2299.238,967.4H2266.7l16.269,16.269Z" fill="#e34e34"/>
      <path id="Path_84" data-name="Path 84" d="M2282.968,983.67h-32.537l16.269,16.269Z" fill="#e34e34"/>
      <path id="Path_85" data-name="Path 85" d="M2250.431,1016.207h32.537L2266.7,999.938Z" fill="#e34e34"/>
      <path id="Path_86" data-name="Path 86" d="M2234.163,999.938H2266.7l-16.269-16.269Z" fill="#e34e34"/>
      <path id="Path_87" data-name="Path 87" d="M2266.7,999.938h32.537l-16.269-16.269Z" fill="#e34e34"/>
      <path id="Path_88" data-name="Path 88" d="M2250.431,983.67h32.537L2266.7,967.4Z" fill="#e34e34"/>
    </g>
    <g id="Group_32" data-name="Group 32">
      <path id="Path_89" data-name="Path 89" d="M2083.5,951.133H2050.96l16.269,16.269Z" fill="#e34e34"/>
      <path id="Path_90" data-name="Path 90" d="M2067.229,967.4h-32.537l16.268,16.269Z" fill="#e34e34"/>
      <path id="Path_91" data-name="Path 91" d="M2099.766,967.4h-32.537L2083.5,983.67Z" fill="#e34e34"/>
      <path id="Path_92" data-name="Path 92" d="M2083.5,983.67H2050.96l16.269,16.269Z" fill="#e34e34"/>
      <path id="Path_93" data-name="Path 93" d="M2050.96,1016.207H2083.5l-16.269-16.269Z" fill="#e34e34"/>
      <path id="Path_94" data-name="Path 94" d="M2034.692,999.938h32.537L2050.96,983.67Z" fill="#e34e34"/>
      <path id="Path_95" data-name="Path 95" d="M2067.229,999.938h32.537L2083.5,983.669Z" fill="#e34e34"/>
      <path id="Path_96" data-name="Path 96" d="M2050.96,983.67H2083.5L2067.229,967.4Z" fill="#e34e34"/>
    </g>
  </g>
</svg>
