<svg xmlns="http://www.w3.org/2000/svg" width="54.871" height="200.453" viewBox="0 0 54.871 200.453">
  <g id="Group_177" data-name="Group 177" transform="translate(-1811.852 -89.026)">
    <g id="Group_176" data-name="Group 176">
      <g id="Group_173" data-name="Group 173">
        <path id="Path_290" data-name="Path 290" d="M1831.8,289.48h14.978l-7.537-30.868Z" fill="#0d0d0d"/>
        <path id="Path_291" data-name="Path 291" d="M1847.357,255.936h19.366s-7.175-11.52-21.691-5.667l13.68-13.494s-13.336-3.154-19.425,11.181c-6.087-14.335-19.423-11.181-19.423-11.181l13.679,13.494c-14.516-5.853-21.691,5.667-21.691,5.667h19.366c-14.495,6.021-11.306,19.209-11.306,19.209l19.375-19.209,19.376,19.209S1861.852,261.957,1847.357,255.936Z" fill="#0d0d0d"/>
      </g>
      <g id="Group_174" data-name="Group 174">
        <path id="Path_292" data-name="Path 292" d="M1831.8,142.026h14.978l-7.537-30.868Z" fill="#0d0d0d"/>
        <path id="Path_293" data-name="Path 293" d="M1847.357,108.482h19.366s-7.175-11.52-21.691-5.667l13.68-13.494s-13.336-3.154-19.425,11.181c-6.087-14.335-19.423-11.181-19.423-11.181l13.679,13.494c-14.516-5.853-21.691,5.667-21.691,5.667h19.366c-14.495,6.021-11.306,19.209-11.306,19.209l19.375-19.209,19.376,19.209S1861.852,114.5,1847.357,108.482Z" fill="#0d0d0d"/>
      </g>
      <g id="Group_175" data-name="Group 175">
        <path id="Path_294" data-name="Path 294" d="M1826.027,163.027l13.26,13.113,13.26-13.113Z" fill="#e44e33"/>
        <path id="Path_295" data-name="Path 295" d="M1852.547,215.479l-13.26-13.113-13.26,13.113Z" fill="#e44e33"/>
        <path id="Path_296" data-name="Path 296" d="M1865.807,202.365l-13.259-13.112,13.259-13.112h-53.039l13.26,13.113-13.26,13.113h53.039Z" fill="#e44e33"/>
      </g>
    </g>
  </g>
</svg>
