<svg xmlns="http://www.w3.org/2000/svg" width="358.161" height="62.053" viewBox="0 0 358.161 62.053">
  <g id="Group_171" data-name="Group 171" transform="translate(-478.582 -450.78)">
    <g id="Group_170" data-name="Group 170">
      <g id="Group_142" data-name="Group 142">
        <circle id="Ellipse_1" data-name="Ellipse 1" cx="20.399" cy="20.399" r="20.399" transform="translate(637.43 450.78)" fill="#ffae19"/>
        <g id="Group_141" data-name="Group 141">
          <g id="Group_139" data-name="Group 139">
            <g id="Group_137" data-name="Group 137">
              <circle id="Ellipse_2" data-name="Ellipse 2" cx="1.804" cy="1.804" r="1.804" transform="translate(649.238 463.823)" fill="#040505" stroke="#040505" stroke-miterlimit="10" stroke-width="4"/>
              <path id="Path_184" data-name="Path 184" d="M651.042,467.824a2.2,2.2,0,1,1,2.2-2.2A2.2,2.2,0,0,1,651.042,467.824Zm0-3.609a1.412,1.412,0,1,0,1.413,1.412A1.414,1.414,0,0,0,651.042,464.215Z" fill="#040505" stroke="#040505" stroke-miterlimit="10" stroke-width="4"/>
            </g>
            <g id="Group_138" data-name="Group 138">
              <circle id="Ellipse_3" data-name="Ellipse 3" cx="1.804" cy="1.804" r="1.804" transform="translate(662.811 463.823)" fill="#040505" stroke="#040505" stroke-miterlimit="10" stroke-width="4"/>
              <path id="Path_185" data-name="Path 185" d="M664.615,467.824a2.2,2.2,0,1,1,2.2-2.2A2.2,2.2,0,0,1,664.615,467.824Zm0-3.609a1.412,1.412,0,1,0,1.412,1.412A1.414,1.414,0,0,0,664.615,464.215Z" fill="#040505" stroke="#040505" stroke-miterlimit="10" stroke-width="4"/>
            </g>
          </g>
          <g id="Group_140" data-name="Group 140">
            <path id="Path_186" data-name="Path 186" d="M665.49,479.956h-.01l-15.323-.188a.846.846,0,1,1,.021-1.692l15.323.188a.846.846,0,0,1-.011,1.692Z" fill="#040505"/>
          </g>
        </g>
      </g>
      <g id="Group_149" data-name="Group 149">
        <g id="Group_143" data-name="Group 143">
          <circle id="Ellipse_4" data-name="Ellipse 4" cx="20.399" cy="20.399" r="20.399" transform="translate(488.085 450.78)" fill="#e4001b"/>
        </g>
        <g id="Group_148" data-name="Group 148">
          <g id="Group_144" data-name="Group 144">
            <path id="Path_187" data-name="Path 187" d="M517.757,483.435a.848.848,0,0,1-.818-.632,8.746,8.746,0,0,0-16.912,0,.846.846,0,1,1-1.637-.43,10.438,10.438,0,0,1,20.186,0,.847.847,0,0,1-.819,1.062Z" fill="#040505"/>
          </g>
          <g id="Group_147" data-name="Group 147">
            <g id="Group_145" data-name="Group 145">
              <circle id="Ellipse_5" data-name="Ellipse 5" cx="1.804" cy="1.804" r="1.804" transform="translate(499.892 463.823)" fill="#040505" stroke="#040505" stroke-miterlimit="10" stroke-width="4"/>
              <path id="Path_188" data-name="Path 188" d="M501.7,467.824a2.2,2.2,0,1,1,2.2-2.2A2.2,2.2,0,0,1,501.7,467.824Zm0-3.609a1.412,1.412,0,1,0,1.412,1.412A1.414,1.414,0,0,0,501.7,464.215Z" fill="#040505" stroke="#040505" stroke-miterlimit="10" stroke-width="4"/>
            </g>
            <g id="Group_146" data-name="Group 146">
              <circle id="Ellipse_6" data-name="Ellipse 6" cx="1.804" cy="1.804" r="1.804" transform="translate(513.465 463.823)" fill="#040505" stroke="#040505" stroke-miterlimit="10" stroke-width="4"/>
              <path id="Path_189" data-name="Path 189" d="M515.27,467.824a2.2,2.2,0,1,1,2.2-2.2A2.2,2.2,0,0,1,515.27,467.824Zm0-3.609a1.412,1.412,0,1,0,1.412,1.412A1.414,1.414,0,0,0,515.27,464.215Z" fill="#040505" stroke="#040505" stroke-miterlimit="10" stroke-width="4"/>
            </g>
          </g>
        </g>
      </g>
      <g id="Group_155" data-name="Group 155">
        <circle id="Ellipse_7" data-name="Ellipse 7" cx="20.399" cy="20.399" r="20.399" transform="translate(786.776 450.78)" fill="#3a8e35"/>
        <g id="Group_154" data-name="Group 154">
          <g id="Group_152" data-name="Group 152">
            <g id="Group_150" data-name="Group 150">
              <circle id="Ellipse_8" data-name="Ellipse 8" cx="1.804" cy="1.804" r="1.804" transform="translate(798.583 463.823)" fill="#040505" stroke="#040505" stroke-miterlimit="10" stroke-width="4"/>
              <path id="Path_190" data-name="Path 190" d="M800.388,467.824a2.2,2.2,0,1,1,2.2-2.2A2.2,2.2,0,0,1,800.388,467.824Zm0-3.609a1.412,1.412,0,1,0,1.412,1.412A1.413,1.413,0,0,0,800.388,464.215Z" fill="#040505" stroke="#040505" stroke-miterlimit="10" stroke-width="4"/>
            </g>
            <g id="Group_151" data-name="Group 151">
              <circle id="Ellipse_9" data-name="Ellipse 9" cx="1.804" cy="1.804" r="1.804" transform="translate(812.156 463.823)" fill="#040505" stroke="#040505" stroke-miterlimit="10" stroke-width="4"/>
              <path id="Path_191" data-name="Path 191" d="M813.961,467.824a2.2,2.2,0,1,1,2.2-2.2A2.2,2.2,0,0,1,813.961,467.824Zm0-3.609a1.412,1.412,0,1,0,1.412,1.412A1.413,1.413,0,0,0,813.961,464.215Z" fill="#040505" stroke="#040505" stroke-miterlimit="10" stroke-width="4"/>
            </g>
          </g>
          <g id="Group_153" data-name="Group 153">
            <path id="Path_192" data-name="Path 192" d="M807.174,483.434a10.437,10.437,0,0,1-10.092-7.775.846.846,0,1,1,1.636-.431,8.746,8.746,0,0,0,16.913,0,.846.846,0,1,1,1.636.431A10.437,10.437,0,0,1,807.174,483.434Z" fill="#040505"/>
          </g>
        </g>
      </g>
      <g id="Group_163" data-name="Group 163">
        <g id="Group_156" data-name="Group 156">
          <circle id="Ellipse_10" data-name="Ellipse 10" cx="20.399" cy="20.399" r="20.399" transform="translate(562.757 450.78)" fill="#f77c20"/>
        </g>
        <g id="Group_162" data-name="Group 162">
          <g id="Group_160" data-name="Group 160">
            <g id="Group_159" data-name="Group 159">
              <g id="Group_157" data-name="Group 157">
                <circle id="Ellipse_11" data-name="Ellipse 11" cx="1.804" cy="1.804" r="1.804" transform="translate(574.565 463.823)" fill="#040505" stroke="#040505" stroke-miterlimit="10" stroke-width="4"/>
                <path id="Path_193" data-name="Path 193" d="M576.369,467.824a2.2,2.2,0,1,1,2.2-2.2A2.2,2.2,0,0,1,576.369,467.824Zm0-3.609a1.412,1.412,0,1,0,1.413,1.412A1.414,1.414,0,0,0,576.369,464.215Z" fill="#040505" stroke="#040505" stroke-miterlimit="10" stroke-width="4"/>
              </g>
              <g id="Group_158" data-name="Group 158">
                <circle id="Ellipse_12" data-name="Ellipse 12" cx="1.804" cy="1.804" r="1.804" transform="translate(588.138 463.823)" fill="#040505" stroke="#040505" stroke-miterlimit="10" stroke-width="4"/>
                <path id="Path_194" data-name="Path 194" d="M589.942,467.824a2.2,2.2,0,1,1,2.2-2.2A2.2,2.2,0,0,1,589.942,467.824Zm0-3.609a1.412,1.412,0,1,0,1.413,1.412A1.414,1.414,0,0,0,589.942,464.215Z" fill="#040505" stroke="#040505" stroke-miterlimit="10" stroke-width="4"/>
              </g>
            </g>
          </g>
          <g id="Group_161" data-name="Group 161">
            <path id="Path_195" data-name="Path 195" d="M591.369,482.181a.847.847,0,0,1-.725-.409,8.742,8.742,0,0,0-14.976,0,.846.846,0,0,1-1.449-.875,10.436,10.436,0,0,1,17.874,0,.847.847,0,0,1-.724,1.284Z" fill="#040505"/>
          </g>
        </g>
      </g>
      <g id="Group_169" data-name="Group 169">
        <circle id="Ellipse_13" data-name="Ellipse 13" cx="20.399" cy="20.399" r="20.399" transform="translate(712.103 450.78)" fill="#95bf27"/>
        <g id="Group_168" data-name="Group 168">
          <g id="Group_166" data-name="Group 166">
            <g id="Group_164" data-name="Group 164">
              <circle id="Ellipse_14" data-name="Ellipse 14" cx="1.804" cy="1.804" r="1.804" transform="translate(723.911 463.823)" fill="#040505" stroke="#040505" stroke-miterlimit="10" stroke-width="4"/>
              <path id="Path_196" data-name="Path 196" d="M725.715,467.824a2.2,2.2,0,1,1,2.2-2.2A2.2,2.2,0,0,1,725.715,467.824Zm0-3.609a1.412,1.412,0,1,0,1.412,1.412A1.413,1.413,0,0,0,725.715,464.215Z" fill="#040505" stroke="#040505" stroke-miterlimit="10" stroke-width="4"/>
            </g>
            <g id="Group_165" data-name="Group 165">
              <circle id="Ellipse_15" data-name="Ellipse 15" cx="1.804" cy="1.804" r="1.804" transform="translate(737.484 463.823)" fill="#040505" stroke="#040505" stroke-miterlimit="10" stroke-width="4"/>
              <path id="Path_197" data-name="Path 197" d="M739.288,467.824a2.2,2.2,0,1,1,2.2-2.2A2.2,2.2,0,0,1,739.288,467.824Zm0-3.609a1.412,1.412,0,1,0,1.412,1.412A1.413,1.413,0,0,0,739.288,464.215Z" fill="#040505" stroke="#040505" stroke-miterlimit="10" stroke-width="4"/>
            </g>
          </g>
          <g id="Group_167" data-name="Group 167">
            <path id="Path_198" data-name="Path 198" d="M732.5,482.181a10.426,10.426,0,0,1-8.937-5.047.846.846,0,1,1,1.448-.874,8.744,8.744,0,0,0,14.977,0,.846.846,0,0,1,1.449.874,10.429,10.429,0,0,1-8.937,5.047Z" fill="#040505"/>
          </g>
        </g>
      </g>
    </g>
    <rect id="Rectangle_6" data-name="Rectangle 6" width="59.803" height="17.013" rx="6.08" transform="translate(478.582 495.82)" fill="#e4001b"/>
    <rect id="Rectangle_7" data-name="Rectangle 7" width="59.803" height="17.013" rx="6.08" transform="translate(553.254 495.82)" fill="#f77c20"/>
    <rect id="Rectangle_8" data-name="Rectangle 8" width="59.803" height="17.013" rx="6.08" transform="translate(627.816 495.82)" fill="#ffae19"/>
    <rect id="Rectangle_9" data-name="Rectangle 9" width="59.803" height="17.013" rx="6.08" transform="translate(702.378 495.82)" fill="#95bf27"/>
    <rect id="Rectangle_10" data-name="Rectangle 10" width="59.803" height="17.013" rx="6.08" transform="translate(776.94 495.82)" fill="#3a8e35"/>
    <text id="مستاء_بشدة" data-name="مستاء بشدة" transform="translate(508.483 507.184)" fill="#1a1818" font-size="9.702" font-family="SegoeUI, Segoe UI"><tspan x="-23.608" y="0">مستاء بشدة</tspan></text>
    <text id="مستاء" transform="translate(583.155 507.184)" fill="#1a1818" font-size="9.702" font-family="SegoeUI, Segoe UI"><tspan x="-11.748" y="0">مستاء</tspan></text>
    <text id="راضٍ_بشدة" data-name="راضٍ بشدة" transform="translate(808.843 507.184)" fill="#1a1818" font-size="9.702" font-family="SegoeUI, Segoe UI"><tspan x="-21.178" y="0">راضٍ بشدة</tspan></text>
    <text id="راضٍ" transform="translate(732.28 507.184)" fill="#1a1818" font-size="9.702" font-family="SegoeUI, Segoe UI"><tspan x="-9.318" y="0">راضٍ</tspan></text>
    <text id="محايد" transform="translate(657.718 507.184)" fill="#1a1818" font-size="9.702" font-family="SegoeUI, Segoe UI"><tspan x="-10.938" y="0">محايد</tspan></text>
  </g>
</svg>
